<?xml version="1.0"?>
<svg width="70" height="53" xmlns="http://www.w3.org/2000/svg" xmlns:svg="http://www.w3.org/2000/svg" enable-background="new 0 0 346 76.25" version="1.1" xml:space="preserve">
 <style type="text/css">.st0{display:none;}
	.st1{display:inline;}
	.st2{display:inline;fill:#94A3B8;}
	.st3{fill:#94A3B8;}</style>
 <g class="layer">
  <title>Layer 1</title>
  <g class="st0" id="Foreground">
   <g class="st1" id="svg_1">
    <g class="st0" id="svg_2">
     <path class="st2" d="m95.22,27.66l13.43,0c5.42,0 9.11,1.76 9.11,7.09c0,2.77 -1.41,4.76 -3.87,5.94c3.48,0.97 5.2,3.65 5.2,7.22c0,5.81 -4.89,8.28 -10.04,8.28l-13.83,0l0,-28.53zm6.25,11.53l6.34,0c2.2,0 3.87,-0.97 3.87,-3.39c0,-2.73 -2.11,-3.26 -4.32,-3.26l-5.9,0l0,6.65l0.01,0zm0,12.11l6.74,0c2.47,0 4.62,-0.79 4.62,-3.74c0,-2.91 -1.85,-4.09 -4.54,-4.09l-6.82,0l0,7.83z" id="svg_3"/>
     <path class="st2" d="m123.03,27.66l21.31,0l0,5.28l-15.06,0l0,6.12l13.83,0l0,4.84l-13.83,0l0,7l15.41,0l0,5.28l-21.66,0l0,-28.52z" id="svg_4"/>
     <path class="st2" d="m148.84,27.66l15.37,0c5.11,0 8.37,3.57 8.37,7.88c0,3.35 -1.36,5.86 -4.54,7.13l0,0.09c3.08,0.79 4.01,3.79 4.18,6.69c0.13,1.76 0.04,5.15 1.19,6.74l-6.3,0c-0.75,-1.81 -0.66,-4.54 -0.97,-6.82c-0.44,-2.99 -1.63,-4.32 -4.76,-4.32l-6.3,0l0,11.14l-6.25,0l0,-28.53l0.01,0zm6.25,12.9l6.87,0c2.82,0 4.31,-1.19 4.31,-4.1c0,-2.73 -1.5,-3.92 -4.31,-3.92l-6.87,0l0,8.02z" id="svg_5"/>
     <path class="st2" d="m197.46,52.93c-2.2,2.86 -5.06,3.92 -7.84,3.92c-8.81,0 -14.05,-6.56 -14.05,-14.79c0,-8.5 5.24,-15.1 14.05,-15.1c5.86,0 11.36,3.61 12.02,10.08l-5.99,0c-0.7,-3.17 -3.08,-4.8 -6.03,-4.8c-5.64,0 -7.75,4.8 -7.75,9.82c0,4.76 2.11,9.55 7.75,9.55c4.09,0 6.43,-2.2 6.78,-6.16l-6.3,0l0,-4.67l11.98,0l0,15.41l-3.96,0l-0.66,-3.26z" id="svg_6"/>
     <path class="st2" d="m206.95,27.66l21.31,0l0,5.28l-15.06,0l0,6.12l13.83,0l0,4.84l-13.83,0l0,7l15.41,0l0,5.28l-21.66,0l0,-28.52z" id="svg_7"/>
     <path class="st2" d="m232.8,27.66l12.11,0c4.76,0 9.12,1.67 9.12,7c0,2.99 -1.98,5.72 -4.93,6.38l0,0.09c3.65,0.48 6.03,3.21 6.03,6.96c0,2.69 -0.97,8.1 -10.22,8.1l-12.11,0l0,-28.53zm2.73,12.5l9.38,0c4.32,0 6.43,-2.16 6.43,-4.84c0,-3.57 -2.2,-5.33 -6.43,-5.33l-9.38,0l0,10.17zm0,13.7l9.38,0c4.09,0 7.49,-1.41 7.49,-5.86c0,-3.65 -2.73,-5.5 -7.49,-5.5l-9.38,0l0,11.36z" id="svg_8"/>
     <path class="st2" d="m258.59,27.66l2.73,0l0,17.66c0,6.69 3.17,9.16 8.32,9.16c5.24,0 8.41,-2.47 8.41,-9.16l0,-17.66l2.73,0l0,18.27c0,5.86 -3.17,10.88 -11.14,10.88c-7.88,0 -11.05,-5.02 -11.05,-10.88l0,-18.27z" id="svg_9"/>
     <path class="st2" d="m285.78,27.66l2.73,0l0,26.2l15.98,0l0,2.33l-18.71,0l0,-28.53z" id="svg_10"/>
     <path class="st2" d="m306.69,27.66l2.73,0l0,15.32l16.6,-15.32l3.66,0l-12.73,11.8l13.34,16.73l-3.52,0l-11.89,-14.88l-5.46,5.11l0,9.77l-2.73,0l0,-28.53z" id="svg_11"/>
    </g>
   </g>
  </g>
  <g id="Layer_2">
   <g id="svg_12">
    <path class="st3" d="m11.05,13.24l0,14.55c0,7.81 6.33,14.14 14.14,14.14l18.42,0c7.81,0 14.14,-6.33 14.14,-14.14l0,-14.55c0.01,0.02 9.23,0.01 9.22,0.01l0,14.55c0,12.9 -10.46,23.36 -23.36,23.36l-18.43,0c-12.9,0 -23.36,-10.46 -23.36,-23.36l0,-14.55c0.01,0 9.23,0 9.23,-0.01z" id="svg_13"/>
    <g id="svg_14">
     <path class="st3" d="m39.05,15.16c-2.09,0 -9.19,0 -9.19,0l0,1.61l0,2.18c0,0 6.66,0 9.19,0c1.05,0 1.68,-0.95 1.68,-1.9c0,-0.1 -0.01,-0.19 -0.02,-0.29c-0.11,-0.83 -0.72,-1.6 -1.66,-1.6z" id="svg_15"/>
     <path class="st3" d="m39.05,22.96c-2.54,0 -9.19,0 -9.19,0l0,3.79c0,0 7.1,0 9.19,0c1.05,0 1.68,-0.95 1.68,-1.9c0.01,-0.94 -0.63,-1.89 -1.68,-1.89z" id="svg_16"/>
     <path class="st3" d="m34.28,0.18c-17.57,0 -20.13,14.45 -20.14,14.42c0,0.73 0,1.46 0,2.17c0,5.91 -0.02,10.87 -0.02,10.87c0,6.11 4.95,11.06 11.06,11.06l18.42,0c6.11,0 11.06,-4.96 11.06,-11.07c0,0 0,-5.34 0,-10.87c0,-0.73 0,-1.46 0,-2.18c0.01,0.24 -2.75,-14.4 -20.38,-14.4zm10.11,27.24c-0.6,1.2 -1.76,3.48 -5.7,3.48l-12.9,0l0,-14.13l0,-5.75l12.9,0c3.94,0 5.11,2.28 5.7,3.48c0.27,0.53 0.45,1.36 0.46,2.28c0.02,1.44 -0.37,3.09 -1.52,4.19l0,0c1.88,1.78 1.74,5.1 1.06,6.45z" id="svg_17"/>
    </g>
   </g>
  </g>
 </g>
</svg>