<svg width="18" height="18" viewBox="0 0 18 18" fill="none" xmlns="http://www.w3.org/2000/svg">
<path d="M14.25 9.52002H1.5C1.48694 9.52002 1.47128 9.51482 1.45699 9.50053C1.4427 9.48624 1.4375 9.47058 1.4375 9.45752C1.4375 9.44446 1.4427 9.4288 1.45699 9.41451C1.47128 9.40022 1.48694 9.39502 1.5 9.39502H14.25C14.2631 9.39502 14.2787 9.40022 14.293 9.41451C14.3073 9.4288 14.3125 9.44446 14.3125 9.45752C14.3125 9.47058 14.3073 9.48624 14.293 9.50053C14.2787 9.51482 14.2631 9.52002 14.25 9.52002Z" fill="white" stroke="white"/>
<path d="M3.7508 4.99045L3.7508 4.99037L3.74185 4.99092C3.08684 5.03117 2.44204 5.11927 2.02921 5.61704C1.82677 5.86113 1.71451 6.16249 1.64988 6.49884C1.58559 6.8335 1.5625 7.2355 1.5625 7.70998V12.9525C1.5625 13.4384 1.58171 13.8595 1.65208 14.2101C1.72362 14.5665 1.85602 14.8921 2.11374 15.1461C2.37067 15.3993 2.69899 15.5288 3.05828 15.599C3.41283 15.6682 3.83973 15.6875 4.33502 15.6875H11.415C11.9045 15.6875 12.3255 15.6691 12.6753 15.6036C13.0288 15.5373 13.3532 15.4152 13.6101 15.1747C13.8699 14.9315 14.007 14.6178 14.0832 14.2735C14.1578 13.9364 14.1818 13.5331 14.1875 13.0711L14.1875 13.0711V13.065V7.70998C14.1875 7.22403 14.1683 6.803 14.0979 6.45236C14.0264 6.09596 13.894 5.77033 13.6363 5.51635C13.3793 5.26314 13.051 5.13364 12.6917 5.06347C12.3372 4.99422 11.9103 4.97498 11.415 4.97498H4.33502C4.12082 4.97498 3.92398 4.98292 3.7508 4.99045ZM11.415 15.8125H4.33502C3.07131 15.8125 2.40119 15.6044 2.02323 15.2305C1.64688 14.8581 1.4375 14.1994 1.4375 12.9525V7.70998C1.4375 6.71217 1.55721 6.05145 1.86379 5.6221C2.14521 5.22799 2.66276 4.928 3.74421 4.86442C3.93784 4.85697 4.13002 4.84998 4.33502 4.84998H11.415C12.6787 4.84998 13.3488 5.05805 13.7268 5.43198C14.1031 5.80432 14.3125 6.46307 14.3125 7.70998V13.0694C14.2975 14.2661 14.0841 14.8944 13.7108 15.2504C13.332 15.6117 12.6648 15.8125 11.415 15.8125Z" fill="white" stroke="white"/>
<path d="M14.2218 13.1301C14.2201 13.1294 14.2188 13.1288 14.218 13.1284L14.215 13.1254L14.2087 13.1195C14.195 13.1068 14.1875 13.0881 14.1875 13.0725V7.71C14.1875 7.22406 14.1683 6.80302 14.0979 6.45239C14.0264 6.09599 13.894 5.77035 13.6363 5.51637C13.3793 5.26317 13.051 5.13366 12.6917 5.06349C12.3372 4.99424 11.9103 4.975 11.415 4.975H4.33502C4.12082 4.975 3.92398 4.98294 3.7508 4.99047L3.7508 4.99046L3.74755 4.99062C3.74735 4.99063 3.74211 4.9908 3.73249 4.98708C3.72272 4.9833 3.71149 4.97663 3.70114 4.96697C3.69938 4.96533 3.68798 4.95281 3.68751 4.92195C3.70262 3.73006 3.91593 3.10403 4.28884 2.74901C4.66776 2.38826 5.33527 2.1875 6.58502 2.1875H13.665C14.9287 2.1875 15.5988 2.39557 15.9768 2.76951C16.3531 3.14184 16.5625 3.8006 16.5625 5.0475V10.29C16.5625 11.2878 16.4428 11.9485 16.1362 12.3779C15.8556 12.7708 15.3403 13.0702 14.2652 13.135H14.2652H14.2651H14.2651H14.265H14.2649H14.2649H14.2648H14.2647H14.2647H14.2646H14.2645H14.2645H14.2644H14.2643H14.2643H14.2642H14.2641H14.2641H14.264H14.2639H14.2639H14.2638H14.2637H14.2637H14.2636H14.2635H14.2635H14.2634H14.2633H14.2633H14.2632H14.2632H14.2631H14.263H14.263H14.2629H14.2628H14.2628H14.2627H14.2626H14.2626H14.2625H14.2624H14.2624H14.2623H14.2622H14.2622H14.2621H14.262H14.262H14.2619H14.2618H14.2618H14.2617H14.2616H14.2616H14.2615H14.2615H14.2614H14.2613H14.2613H14.2612H14.2611H14.2611H14.261H14.2609H14.2609H14.2608H14.2607H14.2607H14.2606H14.2605H14.2605H14.2604H14.2604H14.2603H14.2602H14.2602H14.2601H14.26H14.26H14.2599H14.2598H14.2598H14.2597H14.2597H14.2596H14.2595H14.2595H14.2594H14.2593H14.2593H14.2592H14.2591H14.2591H14.259H14.259H14.2589H14.2588H14.2588H14.2587H14.2586H14.2586H14.2585H14.2585H14.2584H14.2583H14.2583H14.2582H14.2581H14.2581H14.258H14.258H14.2579H14.2578H14.2578H14.2577H14.2576H14.2576H14.2575H14.2575H14.2574H14.2573H14.2573H14.2572H14.2572H14.2571H14.257H14.257H14.2569H14.2569H14.2568H14.2567H14.2567H14.2566H14.2566H14.2565H14.2564H14.2564H14.2563H14.2563H14.2562H14.2561H14.2561H14.256H14.256H14.2559H14.2558H14.2558H14.2557H14.2557H14.2556H14.2555H14.2555H14.2554H14.2554H14.2553H14.2553H14.2552H14.2551H14.2551H14.255H14.255H14.2549H14.2549H14.2548H14.2547H14.2547H14.2546H14.2546H14.2545H14.2545H14.2544H14.2543H14.2543H14.2542H14.2542H14.2541H14.2541H14.254H14.254H14.2539H14.2538H14.2538H14.2537H14.2537H14.2536H14.2536H14.2535H14.2535H14.2534H14.2533H14.2533H14.2532H14.2532H14.2531H14.2531H14.253H14.253H14.2529H14.2529H14.2528H14.2528H14.2527H14.2527H14.2526H14.2526H14.2525H14.2524H14.2524H14.2523H14.2523H14.2522H14.2522H14.2521H14.2521H14.252H14.252H14.2519H14.2519H14.2518H14.2518H14.2517H14.2517H14.2516H14.2516H14.2515H14.2515H14.2514H14.2514H14.2513H14.2513H14.2512H14.2512H14.2512H14.2511H14.2511H14.251H14.251H14.2509H14.2509H14.2508H14.2508H14.2507H14.2507H14.2506H14.2506H14.2505H14.2505H14.2504H14.2504H14.2504H14.2503H14.2503H14.2502H14.2502H14.2501H14.2501H14.25H14.25C14.2392 13.135 14.229 13.1329 14.2218 13.1301ZM3.83641 4.31275L3.79627 4.85H4.33502H11.415C12.6787 4.85 13.3488 5.05807 13.7268 5.43201C14.1031 5.80434 14.3125 6.46309 14.3125 7.71V12.45V13.0486L14.9016 12.942C15.4185 12.8484 15.8716 12.6407 16.1433 12.1268C16.3797 11.6796 16.4375 11.0638 16.4375 10.29V5.0475C16.4375 4.56156 16.4183 4.14053 16.3479 3.78989C16.2764 3.43349 16.144 3.10785 15.8863 2.85387C15.6293 2.60067 15.301 2.47116 14.9417 2.40099C14.5872 2.33174 14.1603 2.3125 13.665 2.3125H6.58502C6.15091 2.3125 5.77298 2.32692 5.45216 2.37467C5.13184 2.42234 4.83347 2.50789 4.58068 2.67407C4.03487 3.03287 3.88702 3.63535 3.83641 4.31275Z" fill="white" stroke="white"/>
<path d="M5.2202 13.92H3.93018C3.62268 13.92 3.36768 13.665 3.36768 13.3575C3.36768 13.05 3.62268 12.795 3.93018 12.795H5.2202C5.5277 12.795 5.7827 13.05 5.7827 13.3575C5.7827 13.665 5.5352 13.92 5.2202 13.92Z" fill="white"/>
<path d="M9.4124 13.92H6.8324C6.5249 13.92 6.2699 13.665 6.2699 13.3575C6.2699 13.05 6.5249 12.795 6.8324 12.795H9.4124C9.7199 12.795 9.9749 13.05 9.9749 13.3575C9.9749 13.665 9.7274 13.92 9.4124 13.92Z" fill="white"/>
</svg>
