<svg width="16" height="16" viewBox="0 0 16 16" fill="none" xmlns="http://www.w3.org/2000/svg">
<g id="vuesax/linear/category-2">
<g id="category-2">
<path id="Vector" d="M11.3359 6.66683H12.6693C14.0026 6.66683 14.6693 6.00016 14.6693 4.66683V3.3335C14.6693 2.00016 14.0026 1.3335 12.6693 1.3335H11.3359C10.0026 1.3335 9.33594 2.00016 9.33594 3.3335V4.66683C9.33594 6.00016 10.0026 6.66683 11.3359 6.66683Z" stroke="#BDBDBD" stroke-width="1.5" stroke-miterlimit="10" stroke-linecap="round" stroke-linejoin="round"/>
<path id="Vector_2" d="M3.33594 14.6668H4.66927C6.0026 14.6668 6.66927 14.0002 6.66927 12.6668V11.3335C6.66927 10.0002 6.0026 9.3335 4.66927 9.3335H3.33594C2.0026 9.3335 1.33594 10.0002 1.33594 11.3335V12.6668C1.33594 14.0002 2.0026 14.6668 3.33594 14.6668Z" stroke="#BDBDBD" stroke-width="1.5" stroke-miterlimit="10" stroke-linecap="round" stroke-linejoin="round"/>
<path id="Vector_3" d="M4.0026 6.66683C5.47536 6.66683 6.66927 5.47292 6.66927 4.00016C6.66927 2.5274 5.47536 1.3335 4.0026 1.3335C2.52984 1.3335 1.33594 2.5274 1.33594 4.00016C1.33594 5.47292 2.52984 6.66683 4.0026 6.66683Z" stroke="#BDBDBD" stroke-width="1.5" stroke-miterlimit="10" stroke-linecap="round" stroke-linejoin="round"/>
<path id="Vector_4" d="M12.0026 14.6668C13.4754 14.6668 14.6693 13.4729 14.6693 12.0002C14.6693 10.5274 13.4754 9.3335 12.0026 9.3335C10.5298 9.3335 9.33594 10.5274 9.33594 12.0002C9.33594 13.4729 10.5298 14.6668 12.0026 14.6668Z" stroke="#BDBDBD" stroke-width="1.5" stroke-miterlimit="10" stroke-linecap="round" stroke-linejoin="round"/>
</g>
</g>
</svg>
