<svg width="24" height="25" viewBox="0 0 24 25" fill="none" xmlns="http://www.w3.org/2000/svg">
<g id="icon / jam-icons / outline &#38; logos / chevron-right">
<path id="Vector" d="M13.3166 12.5705L8.36665 7.62049C8.18449 7.43189 8.0837 7.17929 8.08598 6.91709C8.08825 6.6549 8.19342 6.40408 8.37883 6.21867C8.56424 6.03327 8.81505 5.9281 9.07725 5.92582C9.33944 5.92354 9.59205 6.02434 9.78065 6.20649L15.4376 11.8635C15.6251 12.051 15.7304 12.3053 15.7304 12.5705C15.7304 12.8357 15.6251 13.09 15.4376 13.2775L9.78065 18.9345C9.59205 19.1167 9.33944 19.2174 9.07725 19.2152C8.81505 19.2129 8.56424 19.1077 8.37883 18.9223C8.19342 18.7369 8.08825 18.4861 8.08598 18.2239C8.0837 17.9617 8.18449 17.7091 8.36665 17.5205L13.3166 12.5705Z" fill="#475569"/>
</g>
</svg>
