<?xml version="1.0"?>
<svg width="24" height="24" xmlns="http://www.w3.org/2000/svg" xmlns:svg="http://www.w3.org/2000/svg">
 <g class="layer">
  <title>Layer 1</title>
  <path d="m7,2c-1.3,0.13 -2.18,0.42 -2.83,1.08c-1.17,1.17 -1.17,3.07 -1.17,6.86l0,4.02c0,3.79 0,5.68 1.17,6.86c1.17,1.18 3.06,1.18 6.83,1.18l2,0c3.77,0 5.66,0 6.83,-1.18c1.06,-1.07 1.16,-2.71 1.17,-5.84" fill="none" id="svg_1" stroke="#000000" stroke-linecap="round" stroke-linejoin="round" stroke-width="1.5"/>
  <path d="m12.01,6.84c-0.09,-0.41 -0.5,-0.66 -0.9,-0.57s-0.66,0.49 -0.57,0.89l1.47,-0.32zm0.08,3.78l0.73,-0.16l-0.73,0.16zm7.72,-3.39c0.09,-0.4 -0.16,-0.81 -0.56,-0.9s-0.81,0.16 -0.9,0.56l1.46,0.34zm-1.55,3.39l-0.73,-0.16l0,0l0.73,0.16zm-5.77,0.63l0.42,-0.61l-0.42,0.61zm5.37,0l0.43,0.62l-0.43,-0.62zm4.35,-5.49c0,-0.41 -0.34,-0.75 -0.75,-0.75s-0.75,0.34 -0.75,0.75l1.5,0zm-1.5,4.68c0,0.41 0.33,0.75 0.75,0.75s0.75,-0.34 0.75,-0.75l-1.5,0zm-10.96,-5.32c0,0.14 -0.05,0.23 -0.05,0.23c-0.01,0 0,-0.02 0.05,-0.06c0.1,-0.1 0.26,-0.22 0.5,-0.38c0.47,-0.3 1.13,-0.65 1.85,-0.98c0.72,-0.33 1.47,-0.63 2.11,-0.85c0.32,-0.11 0.6,-0.19 0.84,-0.25c0.24,-0.06 0.39,-0.08 0.45,-0.08l0,-1.5c-0.25,0 -0.53,0.05 -0.81,0.12c-0.29,0.07 -0.62,0.17 -0.97,0.29c-0.69,0.24 -1.49,0.56 -2.24,0.91c-0.76,0.34 -1.49,0.72 -2.05,1.08c-0.27,0.18 -0.53,0.37 -0.72,0.56c-0.1,0.1 -0.21,0.21 -0.29,0.35c-0.08,0.12 -0.17,0.32 -0.17,0.56l1.5,0zm13,0c0,-0.24 -0.09,-0.44 -0.17,-0.56c-0.08,-0.14 -0.19,-0.25 -0.29,-0.35c-0.19,-0.19 -0.45,-0.38 -0.72,-0.56c-0.56,-0.36 -1.29,-0.74 -2.05,-1.08c-0.75,-0.35 -1.55,-0.67 -2.24,-0.91c-0.35,-0.12 -0.68,-0.22 -0.97,-0.29c-0.28,-0.07 -0.56,-0.12 -0.81,-0.12l0,1.5c0.06,0 0.21,0.02 0.45,0.08c0.24,0.06 0.52,0.14 0.84,0.25c0.64,0.22 1.39,0.52 2.11,0.85c0.72,0.33 1.38,0.68 1.85,0.98c0.24,0.16 0.4,0.28 0.5,0.38c0.05,0.04 0.06,0.06 0.05,0.06c0,0 -0.05,-0.09 -0.05,-0.23l1.5,0zm-1.5,0c0,-0.13 0.05,-0.22 0.05,-0.22c0.01,0 0,0.02 -0.05,0.06c-0.1,0.1 -0.26,0.22 -0.5,0.38c-0.47,0.3 -1.13,0.65 -1.85,0.98c-0.72,0.33 -1.47,0.63 -2.11,0.85c-0.32,0.11 -0.6,0.19 -0.84,0.25c-0.24,0.06 -0.39,0.08 -0.45,0.08l0,1.5c0.25,0 0.53,-0.05 0.81,-0.12c0.29,-0.07 0.62,-0.17 0.97,-0.29c0.69,-0.24 1.49,-0.56 2.24,-0.91c0.76,-0.34 1.49,-0.72 2.05,-1.08c0.27,-0.18 0.53,-0.37 0.72,-0.56c0.1,-0.1 0.21,-0.21 0.29,-0.35c0.08,-0.12 0.17,-0.32 0.17,-0.57l-1.5,0zm-13,0c0,0.25 0.09,0.45 0.17,0.57c0.08,0.14 0.19,0.25 0.29,0.35c0.19,0.19 0.45,0.38 0.72,0.56c0.56,0.36 1.29,0.74 2.05,1.08c0.75,0.35 1.55,0.67 2.24,0.91c0.35,0.12 0.68,0.22 0.97,0.29c0.28,0.07 0.56,0.12 0.81,0.12l0,-1.5c-0.06,0 -0.21,-0.02 -0.45,-0.08c-0.24,-0.06 -0.52,-0.14 -0.84,-0.25c-0.64,-0.22 -1.39,-0.52 -2.11,-0.85c-0.72,-0.33 -1.38,-0.68 -1.85,-0.98c-0.24,-0.16 -0.4,-0.28 -0.5,-0.38c-0.05,-0.04 -0.06,-0.06 -0.05,-0.06c0,0 0.05,0.09 0.05,0.22l-1.5,0zm2.29,2.04l0.82,3.63l1.46,-0.33c-0.27,-1.21 -0.54,-2.41 -0.81,-3.62l-1.47,0.32zm7.81,-0.27l-0.82,3.57l1.46,0.33l0.82,-3.56l-1.46,-0.34zm-6.29,4.98c0.88,0.61 2.02,0.88 3.11,0.88s2.24,-0.27 3.12,-0.88l-0.85,-1.23c-0.57,0.39 -1.39,0.61 -2.26,0.61s-1.7,-0.22 -2.27,-0.61l-0.85,1.23zm5.47,-1.41c-0.03,0.11 -0.07,0.16 -0.09,0.18l0.85,1.23c0.4,-0.28 0.62,-0.7 0.7,-1.08l-1.46,-0.33zm-6.17,0.33c0.08,0.38 0.3,0.8 0.7,1.08l0.85,-1.23c-0.02,-0.02 -0.06,-0.07 -0.09,-0.18l-1.46,0.33zm9.35,-5.03l0,4.68l1.5,0l0,-4.68l-1.5,0z" fill="#000000" id="svg_2" stroke="#000000"/>
 </g>
</svg>