<svg width="65" height="64" viewBox="0 0 65 64" fill="none" xmlns="http://www.w3.org/2000/svg">
<g id="icon / ionicons / filled / diamond">
<path id="Vector" d="M15.5437 4.00002C15.4607 3.99926 15.3789 4.01914 15.3055 4.05789C15.2322 4.09663 15.1696 4.15302 15.1235 4.22196C15.0774 4.2909 15.0491 4.37024 15.0413 4.45282C15.0335 4.53541 15.0463 4.61864 15.0787 4.69502L15.3662 5.37377L20.4537 17.2363C20.4882 17.317 20.5434 17.3871 20.6137 17.4397C20.684 17.4923 20.7669 17.5254 20.8541 17.5358C20.9412 17.5462 21.0296 17.5335 21.1103 17.4989C21.1909 17.4643 21.2611 17.4091 21.3137 17.3388L30.7037 4.80002C30.7594 4.72574 30.7933 4.6374 30.8016 4.54492C30.81 4.45244 30.7924 4.35947 30.7509 4.27641C30.7094 4.19336 30.6455 4.12351 30.5665 4.0747C30.4875 4.02588 30.3965 4.00002 30.3037 4.00002H15.5437Z" fill="#3194A0"/>
<path id="Vector_2" d="M52.8173 7.25723L47.6573 19.3035C47.6249 19.3795 47.6118 19.4624 47.6192 19.5448C47.6267 19.6271 47.6544 19.7064 47.7 19.7753C47.7456 19.8443 47.8076 19.9009 47.8804 19.9401C47.9532 19.9793 48.0346 19.9997 48.1173 19.9997H60.7423C60.8315 19.9998 60.919 19.976 60.9959 19.9308C61.0727 19.8856 61.1361 19.8208 61.1794 19.7429C61.2228 19.665 61.2445 19.5769 61.2424 19.4878C61.2403 19.3986 61.2143 19.3117 61.1673 19.236L53.7011 7.19098C53.6528 7.11343 53.5843 7.05058 53.5028 7.00924C53.4214 6.9679 53.3302 6.94965 53.2391 6.95648C53.1481 6.9633 53.0606 6.99494 52.9862 7.04796C52.9119 7.10098 52.8535 7.17336 52.8173 7.25723Z" fill="#3194A0"/>
<path id="Vector_3" d="M10.953 7.19653L3.48929 19.2365C3.44226 19.3123 3.41634 19.3992 3.41421 19.4883C3.41207 19.5774 3.43381 19.6655 3.47715 19.7434C3.5205 19.8213 3.58389 19.8862 3.66074 19.9314C3.7376 19.9765 3.82514 20.0003 3.91429 20.0003H16.5393C16.622 20.0002 16.7034 19.9795 16.7763 19.9402C16.8491 19.9009 16.911 19.8442 16.9564 19.775C17.0019 19.7059 17.0295 19.6266 17.0368 19.5441C17.044 19.4617 17.0307 19.3788 16.998 19.3028L11.828 7.26277C11.7911 7.18099 11.7328 7.11066 11.6592 7.05918C11.5857 7.0077 11.4997 6.97695 11.4102 6.97018C11.3207 6.9634 11.231 6.98084 11.1506 7.02067C11.0701 7.06049 11.0019 7.12124 10.953 7.19653Z" fill="#3194A0"/>
<path id="Vector_4" d="M49.4878 4.00001H33.8066C33.7613 3.99971 33.7169 4.01209 33.6783 4.03572C33.6397 4.05936 33.6085 4.09333 33.5882 4.13377C33.568 4.17422 33.5594 4.21953 33.5635 4.26459C33.5676 4.30965 33.5843 4.35266 33.6116 4.38876L43.6016 17.6963C43.6271 17.7304 43.6611 17.7573 43.7003 17.7741C43.7395 17.7909 43.7824 17.7971 43.8248 17.792C43.8671 17.787 43.9074 17.7708 43.9415 17.7452C43.9756 17.7196 44.0024 17.6855 44.0191 17.6463L49.2791 5.37501L49.7041 4.33251C49.719 4.29672 49.7251 4.25784 49.7218 4.21919C49.7185 4.18055 49.7058 4.14328 49.6849 4.1106C49.664 4.07791 49.6355 4.05078 49.6018 4.03151C49.5682 4.01225 49.5303 4.00144 49.4916 4.00001H49.4878Z" fill="#3194A0"/>
<path id="Vector_5" d="M30.207 56L19.0282 24.3138C18.9954 24.2217 18.9348 24.1422 18.8549 24.086C18.775 24.0298 18.6796 23.9998 18.582 24H3.54445C3.45734 23.9998 3.37192 24.024 3.2979 24.0699C3.22389 24.1159 3.16427 24.1817 3.12583 24.2598C3.0874 24.338 3.0717 24.4254 3.08051 24.5121C3.08933 24.5987 3.12231 24.6812 3.1757 24.75L30.1757 59.7263C30.2671 59.8446 30.3975 59.9268 30.5437 59.9581C30.69 59.9895 30.8426 59.968 30.9745 59.8975C31.1071 59.8277 31.2103 59.7126 31.2651 59.573C31.3199 59.4335 31.3228 59.279 31.2732 59.1375L30.207 56Z" fill="#3194A0"/>
<path id="Vector_6" d="M61.1125 24H46.075C45.9778 24 45.883 24.0302 45.8037 24.0864C45.7245 24.1426 45.6646 24.222 45.6325 24.3138L33.3575 59.0837C33.3059 59.2297 33.3081 59.3893 33.3635 59.5338C33.4189 59.6784 33.524 59.7984 33.66 59.8725C33.796 59.9461 33.9537 59.9691 34.105 59.9373C34.2563 59.9055 34.3914 59.8209 34.4862 59.6987L61.4812 24.75C61.5346 24.6812 61.5676 24.5987 61.5764 24.5121C61.5852 24.4254 61.5695 24.338 61.5311 24.2598C61.4927 24.1817 61.4331 24.1159 61.359 24.0699C61.285 24.024 61.1996 23.9998 61.1125 24Z" fill="#3194A0"/>
<path id="Vector_7" d="M32.7253 9.86602L39.7253 19.1998C39.781 19.2741 39.815 19.3624 39.8233 19.4549C39.8316 19.5473 39.8141 19.6403 39.7725 19.7234C39.731 19.8064 39.6672 19.8763 39.5882 19.9251C39.5092 19.9739 39.4182 19.9998 39.3253 19.9998H25.3253C25.2325 19.9998 25.1414 19.9739 25.0625 19.9251C24.9835 19.8763 24.9196 19.8064 24.8781 19.7234C24.8366 19.6403 24.819 19.5473 24.8273 19.4549C24.8357 19.3624 24.8696 19.2741 24.9253 19.1998L31.9253 9.86602C31.9719 9.80392 32.0323 9.75352 32.1017 9.7188C32.1711 9.68409 32.2477 9.66602 32.3253 9.66602C32.4029 9.66602 32.4795 9.68409 32.5489 9.7188C32.6184 9.75352 32.6788 9.80392 32.7253 9.86602ZM31.8503 48.6548L23.3878 24.666C23.3612 24.5906 23.3531 24.51 23.3642 24.4308C23.3752 24.3517 23.405 24.2763 23.4512 24.211C23.4973 24.1458 23.5584 24.0925 23.6294 24.0558C23.7004 24.019 23.7791 23.9998 23.8591 23.9998H40.7916C40.8715 23.9998 40.9503 24.019 41.0212 24.0558C41.0922 24.0925 41.1533 24.1458 41.1995 24.211C41.2456 24.2763 41.2755 24.3517 41.2865 24.4308C41.2975 24.51 41.2894 24.5906 41.2628 24.666L32.7966 48.6548C32.762 48.7521 32.6982 48.8364 32.6138 48.896C32.5294 48.9557 32.4286 48.9877 32.3253 48.9877C32.222 48.9877 32.1212 48.9557 32.0368 48.896C31.9524 48.8364 31.8886 48.7521 31.8541 48.6548H31.8503Z" fill="white"/>
</g>
</svg>
