<svg width="18" height="18" viewBox="0 0 18 18" fill="none" xmlns="http://www.w3.org/2000/svg">
<path d="M12 16.5625H6C4.72616 16.5625 3.78925 16.1978 3.17074 15.5793C2.55223 14.9607 2.1875 14.0238 2.1875 12.75V5.25C2.1875 3.97616 2.55223 3.03925 3.17074 2.42074C3.78925 1.80223 4.72616 1.4375 6 1.4375H12C13.2738 1.4375 14.2107 1.80223 14.8293 2.42074C15.4478 3.03925 15.8125 3.97616 15.8125 5.25V12.75C15.8125 14.0238 15.4478 14.9607 14.8293 15.5793C14.2107 16.1978 13.2738 16.5625 12 16.5625ZM6 1.5625C4.85401 1.5625 3.90568 1.84096 3.24832 2.49832C2.59096 3.15568 2.3125 4.10401 2.3125 5.25V12.75C2.3125 13.896 2.59096 14.8443 3.24832 15.5017C3.90568 16.159 4.85401 16.4375 6 16.4375H12C13.146 16.4375 14.0943 16.159 14.7517 15.5017C15.409 14.8443 15.6875 13.896 15.6875 12.75V5.25C15.6875 4.10401 15.409 3.15568 14.7517 2.49832C14.0943 1.84096 13.146 1.5625 12 1.5625H6Z" fill="white" stroke="white"/>
<path d="M13.875 6.9375H12.375C11.235 6.9375 10.3125 6.015 10.3125 4.875V3.375C10.3125 3.0675 10.5675 2.8125 10.875 2.8125C11.1825 2.8125 11.4375 3.0675 11.4375 3.375V4.875C11.4375 5.3925 11.8575 5.8125 12.375 5.8125H13.875C14.1825 5.8125 14.4375 6.0675 14.4375 6.375C14.4375 6.6825 14.1825 6.9375 13.875 6.9375Z" fill="white"/>
<path d="M9 10.3125H6C5.6925 10.3125 5.4375 10.0575 5.4375 9.75C5.4375 9.4425 5.6925 9.1875 6 9.1875H9C9.3075 9.1875 9.5625 9.4425 9.5625 9.75C9.5625 10.0575 9.3075 10.3125 9 10.3125Z" fill="white"/>
<path d="M12 13.3125H6C5.6925 13.3125 5.4375 13.0575 5.4375 12.75C5.4375 12.4425 5.6925 12.1875 6 12.1875H12C12.3075 12.1875 12.5625 12.4425 12.5625 12.75C12.5625 13.0575 12.3075 13.3125 12 13.3125Z" fill="white"/>
</svg>
