<svg width="44" height="44" viewBox="0 0 44 44" fill="none" xmlns="http://www.w3.org/2000/svg">
<g id="Frame" clip-path="url(#clip0_1902_226348)">
<g id="Group">
<path id="Vector" d="M7.1006 28.3873H5.68117C3.72145 28.3873 2.13281 26.7987 2.13281 24.839C2.13281 23.6632 3.08603 22.71 4.26183 22.71H7.10052L7.1006 28.3873Z" fill="#BD4150"/>
<path id="Vector_2" d="M34.0671 0H7.80911L7.07812 1.41934V43.3125H40.4543L41.8736 42.5807V7.80648L34.0671 0Z" fill="#ECEAEC"/>
<path id="Vector_3" d="M7.80997 40.4516V0C7.02613 0 6.39062 0.635422 6.39062 1.41934V42.5807C6.39062 43.3646 7.02613 44 7.80997 44H40.4551C41.239 44 41.8745 43.3645 41.8745 42.5807H9.93898C8.7631 42.5807 7.80997 41.6274 7.80997 40.4516ZM41.8745 7.68462C41.8745 7.30821 41.7249 6.94719 41.4587 6.68095L35.1932 0.41568C34.927 0.149527 34.566 3.44553e-06 34.1896 0L34.068 0V7.0968C34.068 7.28502 34.1428 7.46553 34.2759 7.59862C34.4089 7.73171 34.5895 7.80648 34.7777 7.80648H41.8745V7.68462Z" fill="#DAD8DB"/>
<path id="Vector_4" d="M26.2607 26.9679H4.26066C4.01179 26.9679 3.7728 26.9252 3.55073 26.8467L2.86719 27.9872V36.9533C2.86719 38.1292 3.82041 39.0823 4.9962 39.0823H26.2607L27.68 38.3227V28.3873C27.68 27.6034 27.0446 26.9679 26.2607 26.9679Z" fill="#E15F78"/>
<path id="Vector_5" d="M3.55216 26.8467C2.72716 26.5534 2.13281 25.7646 2.13281 24.8389V37.613C2.13281 38.7888 3.08603 39.7421 4.26183 39.7421H26.2618C27.0457 39.7421 27.6812 39.1066 27.6812 38.3227H5.68117C4.50538 38.3227 3.55216 37.3695 3.55216 36.1937V26.8467Z" fill="#DB4655"/>
<g id="Group_2">
<path id="Vector_6" d="M22.3848 32.592H20.9918V31.2468H22.5664C22.9587 31.2468 23.2761 30.929 23.2761 30.5371C23.2761 30.1452 22.9586 29.8274 22.5664 29.8274H20.2821C20.1889 29.8274 20.0966 29.8458 20.0105 29.8814C19.9244 29.9171 19.8461 29.9693 19.7802 30.0352C19.7143 30.1011 19.662 30.1794 19.6264 30.2655C19.5907 30.3516 19.5724 30.4439 19.5724 30.5371V36.173C19.5724 36.5649 19.8899 36.8827 20.2821 36.8827C20.6743 36.8827 20.9918 36.5649 20.9918 36.173V34.0114H22.3848C22.7771 34.0114 23.0945 33.6936 23.0945 33.3017C23.0945 32.9098 22.777 32.592 22.3848 32.592ZM9.3687 29.8066H7.78788C7.69453 29.8067 7.6021 29.8251 7.51588 29.8609C7.42966 29.8967 7.35134 29.9491 7.28541 30.0152C7.15299 30.1484 7.07865 30.3285 7.07864 30.5163H7.07812V36.1938C7.07812 36.5856 7.39558 36.9034 7.7878 36.9034C8.18002 36.9034 8.49747 36.5856 8.49747 36.1938V34.4336C8.81587 34.4319 9.16589 34.4303 9.36862 34.4303C10.6604 34.4303 11.7118 33.3932 11.7118 32.1187C11.7119 30.8437 10.6605 29.8066 9.3687 29.8066ZM9.3687 33.0109C9.08064 33.0113 8.79258 33.0123 8.50452 33.014C8.50314 32.6866 8.4997 31.226 8.4997 31.226H9.36879C9.86989 31.226 10.2926 31.6349 10.2926 32.1186C10.2926 32.6024 9.8698 33.0109 9.3687 33.0109ZM15.3199 29.8905H13.7599C13.6665 29.8905 13.5741 29.9089 13.4879 29.9446C13.4017 29.9803 13.3233 30.0327 13.2574 30.0987C13.1914 30.1648 13.1392 30.2432 13.1036 30.3295C13.0681 30.4158 13.0499 30.5082 13.0502 30.6016L13.0543 33.3488C13.0543 34.1149 13.0613 36.1123 13.0613 36.1123C13.0616 36.2056 13.0804 36.2979 13.1164 36.3839C13.1524 36.47 13.2051 36.5481 13.2713 36.6138C13.4042 36.7456 13.5838 36.8196 13.771 36.8196H13.7738C13.7738 36.8196 14.9305 36.8151 15.3781 36.8075C17.0449 36.778 18.255 35.3261 18.255 33.3551C18.2549 31.2828 17.0753 29.8905 15.3199 29.8905ZM15.3531 35.388C15.1501 35.3915 14.7987 35.3946 14.4785 35.3964C14.4765 34.7467 14.4737 33.8173 14.4737 33.3487L14.471 31.3098H15.32C16.7629 31.3098 16.8356 33.0133 16.8356 33.3549C16.8356 34.354 16.3774 35.3701 15.3531 35.388Z" fill="white"/>
</g>
<path id="Vector_7" d="M17.012 24.0077C16.4645 24.0077 15.9697 23.7229 15.6218 23.1854C15.1048 22.3877 15.2407 21.4844 15.994 20.7067C16.7536 19.9222 18.308 19.1841 20.1786 18.5815C20.7621 17.4817 21.3561 16.1943 21.9112 14.7711C22.2391 13.9301 22.5038 13.1719 22.7158 12.4938C21.7809 10.7798 21.2251 9.18413 21.3727 8.14798C21.5231 7.09662 22.3083 6.50477 23.4754 6.56922C23.8219 6.58796 24.6488 6.76886 24.8484 8.04193C25.0008 9.01535 24.7444 10.5889 24.2302 12.377C25.2032 14.0185 26.5373 15.7767 27.8423 17.126C29.8147 17.0058 31.4863 17.1496 32.3269 17.6569C32.9853 18.054 33.2438 18.7016 33.0185 19.3888C32.6499 20.5119 31.7593 21.0264 30.6338 20.7641C29.6864 20.543 28.5124 19.7159 27.3218 18.5676C25.4069 18.736 23.1531 19.1258 21.1758 19.7073C19.9956 21.8255 18.7197 23.4747 17.6483 23.8843C17.4321 23.9672 17.2186 24.0077 17.012 24.0077ZM16.8125 22.4141C16.931 22.5964 16.9961 22.5926 17.0266 22.5891C17.4785 22.543 18.2311 21.763 19.0905 20.4444C18.5222 20.6881 18.0128 20.9521 17.5845 21.2356C16.5103 21.947 16.7383 22.2984 16.8125 22.4141ZM29.315 18.4738C29.9214 18.9478 30.4849 19.2718 30.9561 19.3821C31.3241 19.4677 31.5134 19.424 31.6699 18.9468C31.4607 18.6293 30.5701 18.4769 29.315 18.4738ZM23.6784 14.0979C23.2035 15.446 22.6542 16.7667 22.0332 18.0541C23.3631 17.72 24.7651 17.457 26.1041 17.29C25.2385 16.309 24.4019 15.2071 23.6784 14.0979ZM23.3367 7.95961C22.8329 7.95961 22.8066 8.1485 22.7775 8.34804C22.7033 8.87235 22.8876 9.61803 23.2515 10.4777C23.5724 8.94574 23.5072 8.13526 23.3513 7.95961H23.3367Z" fill="#E15F78"/>
</g>
</g>
<defs>
<clipPath id="clip0_1902_226348">
<rect width="44" height="44" fill="white"/>
</clipPath>
</defs>
</svg>
