<?xml version="1.0"?>
<svg width="16" height="16" xmlns="http://www.w3.org/2000/svg" xmlns:svg="http://www.w3.org/2000/svg">
 <g class="layer">
  <title>Layer 1</title>
  <g id="vuesax/linear/filter">
   <g id="filter">
    <path d="m3.6,1.4l8.8,0c0.73,0 1.33,0.6 1.33,1.33l0,1.47c0,0.53 -0.33,1.2 -0.66,1.53l-2.87,2.54c-0.4,0.33 -0.67,1 -0.67,1.53l0,2.87c0,0.4 -0.26,0.93 -0.6,1.13l-0.93,0.6c-0.87,0.53 -2.07,-0.07 -2.07,-1.13l0,-3.54c0,-0.46 -0.26,-1.06 -0.53,-1.4l-2.53,-2.66c-0.34,-0.34 -0.6,-0.94 -0.6,-1.34l0,-1.53c0,-0.8 0.6,-1.4 1.33,-1.4z" fill="none" id="Vector" stroke="#ffffff" stroke-linecap="round" stroke-linejoin="round" stroke-miterlimit="10" stroke-width="1.5"/>
    <path d="m7.29,1.4l-3.29,5.27" fill="none" id="Vector_2" stroke="#ffffff" stroke-linecap="round" stroke-linejoin="round" stroke-miterlimit="10" stroke-width="1.5"/>
   </g>
  </g>
 </g>
</svg>