<svg width="32" height="32" viewBox="0 0 32 32" fill="none" xmlns="http://www.w3.org/2000/svg">
<g id="Frame">
<g id="Group">
<path id="Vector" d="M19.9394 14.6869H13.1128C12.8301 14.6869 12.559 14.5746 12.3591 14.3747C12.1592 14.1748 12.0469 13.9037 12.0469 13.6211C12.0469 13.3384 12.1592 13.0673 12.3591 12.8674C12.559 12.6675 12.8301 12.5552 13.1128 12.5552H19.9394C20.2221 12.5552 20.4932 12.6675 20.6931 12.8674C20.893 13.0673 21.0052 13.3384 21.0052 13.6211C21.0052 13.9037 20.893 14.1748 20.6931 14.3747C20.4932 14.5746 20.2221 14.6869 19.9394 14.6869Z" fill="#939598"/>
<path id="Vector_2" d="M20.3141 12.6235C20.3574 12.7397 20.3823 12.8648 20.3823 12.9962C20.3823 13.2788 20.27 13.55 20.0701 13.7498C19.8702 13.9497 19.5991 14.062 19.3164 14.062H12.4898C12.3625 14.0618 12.2363 14.0387 12.1172 13.9938C12.2684 14.3984 12.6574 14.687 13.1148 14.687H19.9414C20.2241 14.687 20.4952 14.5747 20.6951 14.3748C20.895 14.175 21.0073 13.9038 21.0073 13.6212C21.0073 13.1638 20.7187 12.7748 20.3141 12.6235Z" fill="#808285"/>
<path id="Vector_3" d="M24.0313 2.4834H9.03125V9.34027C9.03122 9.55798 9.08807 9.77191 9.19616 9.96088C9.30425 10.1499 9.45983 10.3073 9.6475 10.4176L13.2812 12.5551H19.7813L23.415 10.4176C23.6026 10.3073 23.7582 10.1498 23.8663 9.96083C23.9743 9.77187 24.0312 9.55796 24.0313 9.34027V2.4834Z" fill="#A54AF4"/>
<path id="Vector_4" d="M9.78125 8.51665C9.71495 8.51665 9.65136 8.49031 9.60447 8.44343C9.55759 8.39654 9.53125 8.33295 9.53125 8.26665V4.26665C9.53125 4.20034 9.55759 4.13676 9.60447 4.08987C9.65136 4.04299 9.71495 4.01665 9.78125 4.01665C9.84755 4.01665 9.91114 4.04299 9.95803 4.08987C10.0049 4.13676 10.0312 4.20034 10.0312 4.26665V8.26665C10.0312 8.33295 10.0049 8.39654 9.95803 8.44343C9.91114 8.49031 9.84755 8.51665 9.78125 8.51665ZM9.78125 3.51665C9.71495 3.51665 9.65136 3.49031 9.60447 3.44343C9.55759 3.39654 9.53125 3.33295 9.53125 3.26665V3.2334C9.53125 3.16709 9.55759 3.10351 9.60447 3.05662C9.65136 3.00974 9.71495 2.9834 9.78125 2.9834C9.84755 2.9834 9.91114 3.00974 9.95803 3.05662C10.0049 3.10351 10.0312 3.16709 10.0312 3.2334V3.26665C10.0312 3.33295 10.0049 3.39654 9.95803 3.44343C9.91114 3.49031 9.84755 3.51665 9.78125 3.51665Z" fill="#B171F4"/>
<path id="Vector_5" d="M22.7765 2.4834V8.09027C22.7765 8.30798 22.7197 8.52191 22.6116 8.71088C22.5035 8.89985 22.3479 9.05731 22.1602 9.16765L18.5265 11.3051H12.0265L9.04688 9.5524C9.07736 9.73126 9.14646 9.90132 9.24937 10.0508C9.35228 10.2002 9.48652 10.3254 9.64275 10.4176L13.2765 12.5551H19.7765L23.4102 10.4176C23.5979 10.3073 23.7534 10.1498 23.8615 9.96083C23.9696 9.77187 24.0265 9.55796 24.0265 9.34027V2.4834H22.7765Z" fill="#893ADD"/>
<path id="Vector_6" d="M23.4039 2.4834V8.71527C23.404 8.93298 23.3471 9.14691 23.239 9.33588C23.1309 9.52485 22.9754 9.68231 22.7877 9.79265L19.1539 11.9301H12.6539L9.14844 9.86815C9.25453 10.0974 9.42771 10.289 9.64506 10.4176L13.2788 12.5551H19.7788L23.4126 10.4176C23.6002 10.3073 23.7557 10.1498 23.8638 9.96083C23.9719 9.77187 24.0288 9.55796 24.0288 9.34027V2.4834H23.4039Z" fill="#6C2BC1"/>
<path id="Vector_7" d="M24.8291 2.48335H8.23338C8.01401 2.48335 7.80363 2.39621 7.64851 2.24109C7.49339 2.08598 7.40625 1.87559 7.40625 1.65623C7.40625 1.43686 7.49339 1.22648 7.64851 1.07136C7.80363 0.916245 8.01401 0.829102 8.23338 0.829102H24.8291C25.0485 0.829102 25.2589 0.916245 25.414 1.07136C25.5691 1.22648 25.6562 1.43686 25.6562 1.65623C25.6562 1.87559 25.5691 2.08598 25.414 2.24109C25.2589 2.39621 25.0485 2.48335 24.8291 2.48335Z" fill="#939598"/>
<path id="Vector_8" d="M25.2766 0.960449C25.3623 1.09337 25.4078 1.24817 25.4078 1.40632C25.4078 1.62569 25.3207 1.83607 25.1656 1.99119C25.0104 2.14631 24.8001 2.23345 24.5807 2.23345H7.98494C7.82678 2.23353 7.67196 2.18795 7.53906 2.1022C7.61373 2.21905 7.71661 2.31523 7.83822 2.38185C7.95984 2.44848 8.09627 2.48342 8.23494 2.48345H24.8308C25.0502 2.48345 25.2606 2.39631 25.4157 2.24119C25.5708 2.08607 25.6579 1.87569 25.6579 1.65632C25.6579 1.51765 25.6229 1.38122 25.5563 1.25961C25.4896 1.138 25.3934 1.03512 25.2766 0.960449Z" fill="#808285"/>
<path id="Vector_9" d="M14.0312 2.4834H19.0313V12.5551H14.0312V2.4834Z" fill="#F1F2F2"/>
<path id="Vector_10" d="M14.0312 11.9302H19.0313V12.5552H14.0312V11.9302Z" fill="#E6E7E8"/>
<path id="Vector_11" d="M24.0313 26.3126V19.0957C24.0313 18.8763 23.9735 18.6608 23.8638 18.4707C23.7541 18.2807 23.5963 18.1229 23.4063 18.0132L17.1563 14.4047C16.9662 14.295 16.7507 14.2373 16.5313 14.2373C16.3118 14.2373 16.0963 14.295 15.9062 14.4047L9.65625 18.0132C9.46623 18.1229 9.30844 18.2807 9.19873 18.4708C9.08902 18.6608 9.03126 18.8763 9.03125 19.0957V26.3126C9.03124 26.532 9.089 26.7476 9.19871 26.9376C9.30842 27.1276 9.46622 27.2854 9.65625 27.3951L15.9062 31.0036C16.0963 31.1133 16.3118 31.171 16.5313 31.171C16.7507 31.171 16.9662 31.1133 17.1563 31.0036L23.4063 27.3951C23.5963 27.2854 23.7541 27.1276 23.8638 26.9376C23.9735 26.7476 24.0313 26.532 24.0313 26.3126Z" fill="#FFC91D"/>
<path id="Vector_12" d="M23.4049 18.0133L23.2864 17.9448C23.3619 18.1073 23.4049 18.2856 23.4049 18.4708V25.6877C23.4049 25.9071 23.3472 26.1227 23.2375 26.3127C23.1278 26.5027 22.97 26.6605 22.7799 26.7702L16.5299 30.3786C16.3399 30.4883 16.1244 30.546 15.9049 30.546C15.6855 30.546 15.47 30.4883 15.2799 30.3786L9.14844 26.8386C9.25595 27.0718 9.43283 27.2661 9.65494 27.3951L15.9049 31.0035C16.095 31.1131 16.3105 31.1709 16.5299 31.1709C16.7494 31.1709 16.9649 31.1131 17.1549 31.0035L23.4049 27.3951C23.595 27.2854 23.7528 27.1276 23.8625 26.9376C23.9722 26.7475 24.0299 26.532 24.0299 26.3126V19.0957C24.0299 18.8763 23.9722 18.6608 23.8625 18.4708C23.7528 18.2808 23.595 18.123 23.4049 18.0133Z" fill="#FFA91A"/>
<path id="Vector_13" d="M22.2963 25.3133V20.0949C22.2963 19.8755 22.2386 19.6599 22.1289 19.4699C22.0191 19.2799 21.8613 19.1221 21.6713 19.0124L17.1521 16.4033C16.962 16.2936 16.7465 16.2358 16.5271 16.2358C16.3076 16.2358 16.0921 16.2936 15.9021 16.4033L11.3828 19.0124C11.1928 19.1221 11.035 19.2799 10.9253 19.4699C10.8156 19.6599 10.7578 19.8755 10.7578 20.0949V25.3133C10.7578 25.5327 10.8156 25.7482 10.9253 25.9383C11.035 26.1283 11.1928 26.2861 11.3828 26.3958L15.9021 29.0049C16.0921 29.1146 16.3076 29.1723 16.5271 29.1723C16.7465 29.1723 16.962 29.1146 17.1521 29.0049L21.6713 26.3958C21.8613 26.2861 22.0191 26.1283 22.1289 25.9383C22.2386 25.7482 22.2963 25.5327 22.2963 25.3133Z" fill="#F79219"/>
<path id="Vector_14" d="M21.6778 19.0123L21.5593 18.9438C21.6348 19.1063 21.6778 19.2846 21.6778 19.4698V24.6882C21.6778 24.9076 21.6201 25.1232 21.5104 25.3132C21.4006 25.5032 21.2428 25.661 21.0528 25.7707L16.5336 28.3798C16.3435 28.4895 16.128 28.5473 15.9086 28.5473C15.6891 28.5473 15.4736 28.4895 15.2836 28.3798L10.8828 25.8391C10.9903 26.0723 11.1672 26.2667 11.3893 26.3956L15.9086 29.0047C16.0986 29.1144 16.3141 29.1722 16.5336 29.1722C16.753 29.1722 16.9685 29.1144 17.1586 29.0047L21.6778 26.3956C21.8678 26.2859 22.0256 26.1281 22.1353 25.9381C22.245 25.7481 22.3028 25.5325 22.3028 25.3131V20.0947C22.3028 19.8753 22.2451 19.6598 22.1353 19.4698C22.0256 19.2798 21.8678 19.122 21.6778 19.0123Z" fill="#EF7816"/>
<path id="Vector_15" d="M16.7697 19.2968L17.5307 21.6388H19.9933C20.2354 21.6388 20.3362 21.9487 20.1403 22.0911L18.1481 23.5386L18.9091 25.8806C18.9839 26.1109 18.7203 26.3024 18.5243 26.1601L16.5321 24.7126L14.5398 26.1601C14.3439 26.3024 14.0803 26.1109 14.1551 25.8806L14.9161 23.5386L12.9238 22.0911C12.7279 21.9487 12.8286 21.6388 13.0708 21.6388H15.5333L16.2943 19.2968C16.3689 19.0664 16.6948 19.0664 16.7697 19.2968Z" fill="white"/>
<path id="Vector_16" d="M6.02634 23.1832L6.10609 23.5547C6.14715 23.7458 6.24252 23.921 6.38073 24.0592C6.51894 24.1974 6.69412 24.2928 6.88522 24.3338L7.25672 24.4136C7.34634 24.4328 7.34634 24.5606 7.25672 24.5798L6.88522 24.6596C6.69412 24.7006 6.51894 24.796 6.38073 24.9342C6.24252 25.0724 6.14715 25.2476 6.10609 25.4387L6.02634 25.8102C6.00709 25.8998 5.87934 25.8998 5.86009 25.8102L5.78034 25.4387C5.73928 25.2476 5.64392 25.0724 5.50571 24.9342C5.3675 24.796 5.19232 24.7006 5.00122 24.6596L4.62972 24.5798C4.54009 24.5606 4.54009 24.4328 4.62972 24.4136L5.00122 24.3338C5.19232 24.2928 5.3675 24.1974 5.50571 24.0592C5.64392 23.921 5.73928 23.7458 5.78034 23.5547L5.86009 23.1832C5.87934 23.0937 6.00709 23.0937 6.02634 23.1832ZM7.62297 26.9679L7.73984 27.5123C7.79998 27.7923 7.93971 28.049 8.14223 28.2516C8.34475 28.4541 8.60145 28.5938 8.88147 28.6539L9.42584 28.7708C9.55709 28.7989 9.55709 28.9863 9.42584 29.0144L8.88147 29.1313C8.60145 29.1915 8.34475 29.3312 8.14223 29.5337C7.93971 29.7362 7.79998 29.9929 7.73984 30.2729L7.62297 30.8173C7.59484 30.9486 7.40747 30.9486 7.37934 30.8173L7.26247 30.2729C7.20233 29.9929 7.06261 29.7362 6.86008 29.5337C6.65756 29.3312 6.40087 29.1915 6.12084 29.1313L5.57647 29.0144C5.44522 28.9863 5.44522 28.7989 5.57647 28.7708L6.12084 28.6539C6.40087 28.5938 6.65756 28.4541 6.86008 28.2516C7.06261 28.049 7.20233 27.7923 7.26247 27.5123L7.37934 26.9679C7.40747 26.8367 7.59484 26.8367 7.62297 26.9679ZM25.7907 15.0536L25.8921 15.5258C25.9443 15.7687 26.0655 15.9914 26.2411 16.167C26.4168 16.3427 26.6395 16.4639 26.8823 16.5161L27.3546 16.6174C27.4685 16.6419 27.4685 16.8043 27.3546 16.8288L26.8823 16.9302C26.6395 16.9824 26.4168 17.1036 26.2411 17.2793C26.0655 17.4549 25.9443 17.6776 25.8921 17.9204L25.7907 18.3927C25.7662 18.5066 25.6038 18.5066 25.5793 18.3927L25.478 17.9204C25.4258 17.6776 25.3046 17.4549 25.1289 17.2793C24.9533 17.1036 24.7306 16.9824 24.4877 16.9302L24.0155 16.8288C23.9016 16.8043 23.9016 16.6419 24.0155 16.6174L24.4877 16.5161C24.7306 16.4639 24.9533 16.3427 25.1289 16.167C25.3046 15.9914 25.4258 15.7687 25.478 15.5258L25.5793 15.0536C25.6038 14.9398 25.7662 14.9398 25.7907 15.0536Z" fill="#FFC91D"/>
</g>
</g>
</svg>
