<svg width="32" height="32" viewBox="0 0 32 32" fill="none" xmlns="http://www.w3.org/2000/svg">
<g id="Frame">
<g id="Group">
<path id="Vector" d="M21.2467 20.7114V29.3336C21.2467 30.0448 20.4467 30.4003 19.9134 29.9559L16.8911 27.467C16.8911 27.467 16.8023 27.467 16.8023 27.3781C16.5356 27.2003 16.2689 27.1114 16.0023 27.1114C15.6467 27.1114 15.38 27.2003 15.1134 27.467L12.0911 30.0448C11.5578 30.4892 10.7578 30.1336 10.7578 29.4225V20.8003H21.2467V20.7114Z" fill="#F45170"/>
<path id="Vector_2" d="M21.2444 20.7114V29.3336C21.2444 30.0448 20.4444 30.4003 19.9111 29.9559L16.8889 27.467C16.8889 27.467 16.8 27.467 16.8 27.3781C16.5333 27.2003 16.2667 27.1114 16 27.1114V20.7114H21.2444Z" fill="#E93565"/>
<path id="Vector_3" d="M21.2467 22.7559V24.0892C20.4467 24.267 19.4689 24.0003 18.7578 24.1781C17.8689 24.4447 16.98 25.4225 16.0023 25.4225C15.0245 25.4225 14.1356 24.4447 13.2467 24.1781C12.4467 24.0003 11.4689 24.267 10.7578 24.0892V22.7559H21.2467Z" fill="#CC104A"/>
<path id="Vector_4" d="M26.226 16.0001C25.9594 16.9779 26.4038 18.1334 25.9594 19.0223C25.426 19.9112 24.1816 20.089 23.4705 20.8001C22.7594 21.5112 22.5816 22.7556 21.6927 23.289C20.8927 23.7334 19.6483 23.289 18.6705 23.5556C17.7816 23.8223 16.8927 24.8001 15.9149 24.8001C14.9372 24.8001 14.0483 23.8223 13.1594 23.5556C12.1816 23.289 11.026 23.7334 10.1372 23.289C9.33715 22.8445 9.07049 21.5112 8.35937 20.8001C7.64826 20.089 6.40382 19.9112 5.87049 19.0223C5.42604 18.2223 5.87049 16.9779 5.60382 16.0001C5.33715 15.1112 4.35938 14.2223 4.35938 13.2445C4.35938 12.2667 5.33715 11.3779 5.60382 10.489C5.87049 9.51119 5.42604 8.35563 5.87049 7.46674C6.31493 6.66674 7.64826 6.40008 8.35937 5.68896C9.07049 4.97785 9.24826 3.73341 10.1372 3.20008C10.9372 2.75563 12.1816 3.20008 13.1594 2.93341C14.0483 2.66674 14.9372 1.68896 15.9149 1.68896C16.8927 1.68896 17.7816 2.66674 18.6705 2.93341C19.6483 3.20008 20.8038 2.75563 21.6927 3.20008C22.4927 3.64452 22.7594 4.97785 23.4705 5.68896C24.1816 6.40008 25.426 6.57785 25.9594 7.46674C26.4038 8.26674 25.9594 9.51119 26.226 10.489C26.4927 11.3779 27.4705 12.2667 27.4705 13.2445C27.4705 14.2223 26.4927 15.1112 26.226 16.0001Z" fill="#F9BE48"/>
<path id="Vector_5" opacity="0.4" d="M24.6273 13.2443C24.6273 17.9554 20.805 21.8665 16.005 21.8665C11.2939 21.8665 7.38281 18.0443 7.38281 13.2443C7.38281 8.53318 11.205 4.62207 16.005 4.62207C20.7161 4.62207 24.6273 8.53318 24.6273 13.2443Z" fill="white"/>
<path id="Vector_6" d="M23.7401 13.2446C23.7401 17.5112 20.2734 20.9779 16.0068 20.9779C11.7401 20.9779 8.27344 17.5112 8.27344 13.2446C8.27344 8.9779 11.7401 5.51123 16.0068 5.51123C20.2734 5.51123 23.7401 8.9779 23.7401 13.2446Z" fill="#F3A250"/>
<path id="Vector_7" d="M23.7379 13.778C23.4713 9.6891 20.0935 6.4891 16.0046 6.4891C11.9157 6.4891 8.53794 9.6891 8.27128 13.778C8.00461 9.15577 11.7379 5.42243 16.0046 5.51132C20.3602 5.60021 24.0046 9.06688 23.7379 13.778Z" fill="#EF7B56"/>
<path id="Vector_8" d="M18.4908 14.4L18.9352 17.1556C19.0241 17.6 18.5797 17.8667 18.2241 17.6889L15.8241 16.4445C15.6464 16.3556 15.4686 16.3556 15.3797 16.4445L12.9797 17.6889C12.6241 17.8667 12.1797 17.6 12.2686 17.1556L12.713 14.4C12.713 14.2223 12.713 14.0445 12.5352 13.9556L10.5797 12C10.313 11.7334 10.4019 11.2 10.8464 11.1112L13.6019 10.6667C13.7797 10.6667 13.8686 10.5778 13.9575 10.4L15.113 8.08893C15.2908 7.73338 15.8241 7.73338 16.0019 8.08893L17.2464 10.5778C17.3352 10.7556 17.4241 10.8445 17.6019 10.8445L20.3575 11.2889C20.8019 11.3778 20.9797 11.8223 20.6241 12.1778L18.6686 13.9556C18.5797 14.1334 18.4908 14.2223 18.4908 14.4Z" fill="#EF7B56"/>
<path id="Vector_9" d="M18.9391 14.8444L19.3835 17.6C19.4724 18.0444 19.028 18.3111 18.6724 18.1333L16.2724 16.8889C16.0946 16.8 15.9168 16.8 15.828 16.8889L13.3391 18.1333C12.9835 18.3111 12.5391 18.0444 12.628 17.6L13.0724 14.8444C13.0724 14.6666 13.0724 14.4889 12.8946 14.4L10.9391 12.4444C10.6724 12.1778 10.7613 11.6444 11.2057 11.5555L13.9613 11.1111C14.1391 11.1111 14.228 11.0222 14.3168 10.8444L15.5613 8.35553C15.7391 7.99998 16.2724 7.99998 16.4502 8.35553L17.6946 10.8444C17.7835 11.0222 17.8724 11.1111 18.0502 11.1111L20.8057 11.5555C21.2502 11.6444 21.428 12.0889 21.0724 12.4444L19.1168 14.4C18.9391 14.4889 18.9391 14.6666 18.9391 14.8444Z" fill="#F9CF6B"/>
<path id="Vector_10" opacity="0.5" d="M11.4721 12.5332C11.2055 12.2665 11.3833 11.8221 11.7388 11.7332L14.1388 11.3776C14.3166 11.3776 14.4055 11.2887 14.4944 11.111L15.561 8.88874C15.7388 8.53318 16.1833 8.53318 16.361 8.88874L17.4277 11.111C17.5166 11.2887 17.6055 11.3776 17.7833 11.3776L20.1833 11.7332C20.5388 11.8221 20.7166 12.2665 20.4499 12.5332C20.4499 12.5332 18.9388 14.2221 15.8277 14.2221C13.5166 14.2221 11.4721 12.5332 11.4721 12.5332Z" fill="white"/>
<path id="Vector_11" opacity="0.7" d="M15.2891 11.2887C14.8447 11.111 15.5558 9.2443 16.0003 9.42208C16.2669 9.51097 15.8225 11.4665 15.2891 11.2887Z" fill="white"/>
<path id="Vector_12" d="M12.0935 7.5555C11.8269 7.5555 11.6491 7.73328 11.4713 7.91106C11.5602 7.99995 12.4491 8.71106 12.3602 8.79995C12.2713 8.88883 11.3824 8.26661 11.2935 8.17772C11.2046 8.3555 11.1157 8.62217 11.2046 8.79995C11.4713 11.0222 11.1157 11.1111 10.6713 8.88883C10.5824 8.62217 10.4935 8.44439 10.3157 8.26661C10.2269 8.3555 9.51575 9.24439 9.42686 9.1555C9.33797 9.06661 9.96019 8.17772 10.0491 8.08884C9.8713 7.99995 9.60463 7.99995 9.42686 7.99995C7.11575 8.17772 7.02686 7.91106 9.33797 7.46661C9.60463 7.37772 9.78241 7.28884 9.96019 7.11106L9.8713 7.02217C8.62686 6.04439 8.80463 5.9555 10.0491 6.7555H10.138C10.2269 6.57772 10.3157 6.31106 10.2269 6.13328C9.96019 3.82217 10.3157 3.82217 10.7602 6.04439C10.7602 6.31106 10.938 6.48884 11.1157 6.66661L11.2046 6.57772C12.1824 5.33328 12.2713 5.51106 11.4713 6.7555V6.84439C11.5602 7.02217 11.8269 7.11106 12.0046 7.11106C14.3157 6.84439 14.3157 7.11106 12.0935 7.5555Z" fill="white"/>
<path id="Vector_13" opacity="0.5" d="M12.0958 26.7558C12.0958 28.0002 12.0069 28.0891 11.8292 28.0891C11.7403 28.0891 11.5625 28.0002 11.5625 26.7558C11.5625 25.5113 11.6514 25.1558 11.8292 25.1558C12.0069 25.1558 12.0958 25.5113 12.0958 26.7558Z" fill="white"/>
</g>
</g>
</svg>
