<svg width="32" height="32" viewBox="0 0 32 32" fill="none" xmlns="http://www.w3.org/2000/svg">
<g id="Frame" clip-path="url(#clip0_1390_190560)">
<g id="Group">
<path id="Vector" d="M31.6964 17.2806C32.1012 16.4787 32.1012 15.5213 31.6964 14.7194L31.2771 13.889C31.1859 13.7092 31.1536 13.5052 31.1847 13.306L31.3268 12.3867C31.4641 11.499 31.1682 10.5885 30.5354 9.95097L29.8801 9.29079C29.7378 9.14792 29.644 8.96388 29.6121 8.76474L29.4632 7.84654C29.321 6.96972 28.7691 6.20253 27.9844 5.78844L27.1782 5.31296C27.1625 5.30377 27.1467 5.29502 27.1306 5.28677C26.9511 5.19491 26.8051 5.04887 26.7133 4.86936L26.2878 4.04217C25.8867 3.2621 25.0689 2.68524 24.1534 2.53673L23.2352 2.38784C23.0361 2.35591 22.8521 2.26217 22.7092 2.11988L22.049 1.46452C21.4115 0.831717 20.5011 0.536067 19.6133 0.673079L18.694 0.815153C18.4948 0.846349 18.2908 0.81405 18.1109 0.722833L17.2805 0.303611C16.4787 -0.101172 15.5213 -0.101235 14.7195 0.303611L13.8891 0.722833C13.7092 0.813957 13.5053 0.846272 13.306 0.815215L12.3868 0.673141C11.4989 0.535817 10.5885 0.831779 9.951 1.46458L9.29076 2.11982C9.14791 2.26215 8.96389 2.35592 8.76478 2.38784L7.84652 2.53673C6.93107 2.68524 6.11319 3.26204 5.71209 4.04217L5.28675 4.86936C5.19485 5.04887 5.04879 5.1949 4.86927 5.28677L4.04202 5.71218C3.26196 6.11328 2.6851 6.93116 2.53665 7.84661L2.3877 8.76487C2.35579 8.96398 2.26202 9.14801 2.11967 9.29085L1.4645 9.95103C0.831693 10.5885 0.535856 11.499 0.673055 12.3867L0.815192 13.3061C0.846381 13.5053 0.814058 13.7092 0.722809 13.889L0.303587 14.7194C-0.101196 15.5212 -0.101196 16.4786 0.303587 17.2805L0.722809 18.1109C0.814006 18.2907 0.846326 18.4947 0.815192 18.6939L0.673055 19.6133C0.535856 20.501 0.831756 21.4115 1.4645 22.049L2.1198 22.7092C2.26216 22.8521 2.35593 23.0361 2.38782 23.2352L2.53677 24.1534C2.68522 25.0689 3.26208 25.8868 4.04214 26.2879L4.86934 26.7132C5.04886 26.8051 5.19492 26.9512 5.28681 27.1307L5.71216 27.9579C6.11331 28.738 6.93119 29.3149 7.84664 29.4633L8.76484 29.6123C8.96394 29.6442 9.14795 29.7379 9.29082 29.8802L9.95107 30.5356C10.5887 31.1684 11.4991 31.464 12.3868 31.327L13.3061 31.1848C13.5053 31.1537 13.7093 31.186 13.8891 31.2772L14.7195 31.6964C15.1167 31.8964 15.5553 32.0004 16 32C16.4447 32.0004 16.8833 31.8964 17.2805 31.6964L18.1109 31.2772C18.2908 31.1861 18.4947 31.1537 18.694 31.1848L19.6132 31.3269C20.5009 31.464 21.4114 31.1683 22.049 30.5355L22.7092 29.8802C22.852 29.7378 23.0361 29.644 23.2352 29.6121L24.1534 29.4632C25.0302 29.321 25.7974 28.7691 26.2115 27.9843L26.687 27.1781C26.6962 27.1625 26.7049 27.1467 26.7132 27.1306C26.8051 26.9511 26.9511 26.805 27.1306 26.7132L27.9578 26.2878C28.7566 25.8771 29.3194 25.1025 29.4632 24.2158L29.6121 23.2977C29.644 23.0986 29.7378 22.9145 29.8801 22.7716C30.1043 22.5254 30.3282 22.279 30.5518 22.0323C31.1733 21.3957 31.4629 20.4932 31.3268 19.6133L31.1847 18.694C31.1536 18.4948 31.1859 18.2907 31.2771 18.1109L31.6964 17.2806Z" fill="url(#paint0_linear_1390_190560)"/>
<path id="Vector_2" d="M16.0009 4.68652C9.78973 4.68652 4.6875 9.79013 4.6875 16C4.6875 22.2111 9.79111 27.3134 16.0009 27.3134C22.2121 27.3134 27.3144 22.2098 27.3144 16C27.3144 9.78875 22.2107 4.68652 16.0009 4.68652ZM22.536 13.4146L20.6608 20.9152C20.6101 21.1181 20.493 21.2982 20.3282 21.4268C20.1634 21.5555 19.9603 21.6254 19.7512 21.6254H12.2506C12.0415 21.6254 11.8384 21.5555 11.6736 21.4268C11.5088 21.2982 11.3918 21.1181 11.341 20.9152L9.46589 13.4146C9.41245 13.2006 9.43619 12.9746 9.53293 12.7763C9.62967 12.578 9.79323 12.4202 9.99482 12.3306C10.1964 12.241 10.4232 12.2254 10.6351 12.2865C10.8471 12.3475 11.0308 12.4814 11.1538 12.6645C11.4104 13.0416 12.3386 14.1248 13.1882 14.1248C13.3435 14.1248 13.8245 13.7634 14.32 12.6462C14.7646 11.6439 15.0634 10.3542 15.0634 9.43691C15.0634 8.91912 15.4831 8.49934 16.0009 8.49934C16.5187 8.49934 16.9385 8.91912 16.9385 9.43691C16.9385 10.3542 17.2372 11.6439 17.6818 12.6462C18.1774 13.7634 18.6584 14.1248 18.8137 14.1248C19.6885 14.1248 20.6409 12.973 20.848 12.6645C20.9711 12.4814 21.1547 12.3475 21.3667 12.2864C21.5787 12.2253 21.8055 12.2409 22.0071 12.3304C22.2087 12.42 22.3723 12.5779 22.469 12.7762C22.5658 12.9745 22.5895 13.2006 22.536 13.4146Z" fill="url(#paint1_linear_1390_190560)"/>
</g>
</g>
<defs>
<linearGradient id="paint0_linear_1390_190560" x1="16" y1="32" x2="16" y2="2.28882e-05" gradientUnits="userSpaceOnUse">
<stop stop-color="#FD5900"/>
<stop offset="1" stop-color="#FFDE00"/>
</linearGradient>
<linearGradient id="paint1_linear_1390_190560" x1="16.0009" y1="27.3134" x2="16.0009" y2="4.68652" gradientUnits="userSpaceOnUse">
<stop stop-color="#FFE59A"/>
<stop offset="1" stop-color="#FFFFD5"/>
</linearGradient>
<clipPath id="clip0_1390_190560">
<rect width="32" height="32" fill="white"/>
</clipPath>
</defs>
</svg>
