<svg width="65" height="64" viewBox="0 0 65 64" fill="none" xmlns="http://www.w3.org/2000/svg">
<g id="vuesax/linear/global">
<g id="global">
<path id="Vector" d="M32.6667 58.6673C47.3943 58.6673 59.3333 46.7282 59.3333 32.0007C59.3333 17.2731 47.3943 5.33398 32.6667 5.33398C17.9391 5.33398 6 17.2731 6 32.0007C6 46.7282 17.9391 58.6673 32.6667 58.6673Z" fill="#3194A0" stroke="white" stroke-width="1.5" stroke-linecap="round" stroke-linejoin="round"/>
<path id="Vector_2" d="M21.999 8H24.6656C19.4656 23.5733 19.4656 40.4267 24.6656 56H21.999" stroke="white" stroke-width="1.5" stroke-linecap="round" stroke-linejoin="round"/>
<path id="Vector_3" d="M40.6641 8C45.8641 23.5733 45.8641 40.4267 40.6641 56" stroke="white" stroke-width="1.5" stroke-linecap="round" stroke-linejoin="round"/>
<path id="Vector_4" d="M8.66406 42.6667V40C24.2374 45.2 41.0907 45.2 56.6641 40V42.6667" stroke="white" stroke-width="1.5" stroke-linecap="round" stroke-linejoin="round"/>
<path id="Vector_5" d="M8.66406 23.9996C24.2374 18.7996 41.0907 18.7996 56.6641 23.9996" stroke="white" stroke-width="1.5" stroke-linecap="round" stroke-linejoin="round"/>
</g>
</g>
</svg>
