<svg width="16" height="16" viewBox="0 0 16 16" fill="none" xmlns="http://www.w3.org/2000/svg">
<g id="vuesax/linear/messages-2">
<g id="messages-2">
<path id="Vector" d="M12.3106 11.2197L12.5706 13.3263C12.6373 13.8797 12.044 14.2663 11.5706 13.9797L8.77729 12.3197C8.47063 12.3197 8.17063 12.2997 7.8773 12.2597C8.37063 11.6797 8.66396 10.9463 8.66396 10.153C8.66396 8.25966 7.02396 6.72636 4.99729 6.72636C4.22396 6.72636 3.51063 6.94634 2.9173 7.33301C2.8973 7.16634 2.89062 6.99967 2.89062 6.82633C2.89062 3.793 5.52396 1.33301 8.77729 1.33301C12.0306 1.33301 14.664 3.793 14.664 6.82633C14.664 8.62633 13.7373 10.2197 12.3106 11.2197Z" stroke="#828282" stroke-linecap="round" stroke-linejoin="round"/>
<path id="Vector_2" d="M8.66927 10.1532C8.66927 10.9465 8.37594 11.6799 7.88261 12.2599C7.22261 13.0599 6.17594 13.5732 5.0026 13.5732L3.2626 14.6065C2.96927 14.7865 2.59594 14.5399 2.63594 14.1999L2.8026 12.8866C1.90927 12.2666 1.33594 11.2732 1.33594 10.1532C1.33594 8.97986 1.96261 7.94654 2.92261 7.33321C3.51594 6.94654 4.22927 6.72656 5.0026 6.72656C7.02927 6.72656 8.66927 8.25986 8.66927 10.1532Z" stroke="#828282" stroke-linecap="round" stroke-linejoin="round"/>
</g>
</g>
</svg>
