<svg width="24" height="24" viewBox="0 0 24 24" fill="none" xmlns="http://www.w3.org/2000/svg">
<g id="vuesax/bold/note">
<path id="Vector" d="M13.5484 20.1599C13.2884 20.2699 13.0084 20.3699 12.7084 20.4699L11.1284 20.9899C7.15839 22.2699 5.06839 21.1999 3.77839 17.2299L2.49839 13.2799C1.21839 9.30992 2.27839 7.20992 6.24839 5.92992L7.78839 5.41992C7.59839 5.89992 7.43839 6.44992 7.28839 7.06992L6.30839 11.2599C5.20839 15.9699 6.81839 18.5699 11.5284 19.6899L13.2084 20.0899C13.3184 20.1199 13.4384 20.1399 13.5484 20.1599Z" fill="#3194A0"/>
<path id="Vector_2" d="M17.1702 3.20952L15.5002 2.81952C12.1602 2.02952 10.1702 2.67952 9.00018 5.09952C8.70018 5.70952 8.46018 6.44952 8.26018 7.29952L7.28018 11.4895C6.30018 15.6695 7.59018 17.7295 11.7602 18.7195L13.4402 19.1195C14.0202 19.2595 14.5602 19.3495 15.0602 19.3895C18.1802 19.6895 19.8402 18.2295 20.6802 14.6195L21.6602 10.4395C22.6402 6.25952 21.3602 4.18952 17.1702 3.20952Z" fill="#3194A0"/>
</g>
</svg>
