<?xml version="1.0"?>
<svg width="512" height="512" xmlns="http://www.w3.org/2000/svg" xmlns:svg="http://www.w3.org/2000/svg" preserveAspectRatio="xMidYMid meet" version="1.0">
 <g class="layer">
  <title>Layer 1</title>
  <g fill="#000000" id="svg_1" transform="translate(0.000000,512.000000) scale(0.100000,-0.100000)">
   <path d="m980,5109c-160,-31 -299,-173 -330,-339c-14,-73 -14,-4347 0,-4420c32,-170 170,-308 339,-340c74,-14 3069,-14 3141,0c170,32 308,170 340,339c6,35 10,683 10,1833c0,1563 -2,1784 -15,1812c-20,42 -1082,1102 -1118,1115c-35,14 -2300,13 -2367,0zm2220,-533c0,-183 5,-358 10,-387c32,-169 170,-307 340,-339c29,-5 203,-10 386,-10l334,0l0,-1705c0,-1218 -3,-1719 -11,-1756c-16,-74 -84,-142 -158,-158c-74,-16 -3008,-16 -3082,0c-74,16 -142,84 -158,158c-16,74 -16,4288 0,4362c15,69 85,143 150,157c27,6 458,10 1117,11l1072,1l0,-334zm673,-524c-296,-3 -328,3 -393,67c-64,64 -70,96 -70,394l0,242l350,-350l350,-350l-237,-3z" fill="#9e9c9c" id="svg_2"/>
   <path d="m2347,3396c-126,-47 -190,-152 -207,-341c-18,-188 37,-347 204,-587l50,-70l-63,-192c-80,-243 -160,-458 -174,-472c-7,-6 -131,-69 -277,-139c-315,-151 -427,-215 -498,-285c-64,-63 -92,-115 -99,-186c-20,-188 240,-330 439,-241c190,85 390,306 561,618l36,65l123,42c143,48 301,90 480,128l127,27l68,-50c112,-82 183,-128 270,-173c76,-40 89,-44 152,-42c90,1 138,15 197,55c60,40 95,106 102,192c11,142 -59,228 -216,265c-75,17 -288,15 -402,-4c-52,-9 -100,-16 -107,-16c-32,0 -304,250 -429,396l-51,59l43,140c83,265 97,335 91,465c-7,178 -51,275 -147,329c-35,20 -61,25 -139,28c-66,2 -108,-1 -134,-11zm185,-226c24,-33 35,-165 19,-240c-6,-30 -26,-104 -43,-163c-36,-123 -34,-123 -90,-12c-51,99 -68,161 -68,244c0,93 14,146 46,178c34,34 108,30 136,-7zm162,-1104l136,-133l-61,-12c-34,-7 -123,-30 -198,-51c-75,-21 -137,-37 -138,-36c-3,3 118,366 122,366c2,0 64,-60 139,-134zm888,-266c38,-11 51,-29 41,-57c-9,-26 -23,-33 -67,-33c-38,0 -123,38 -176,80l-25,20l95,0c52,0 111,-5 132,-10zm-1618,-412c-24,-42 -115,-146 -178,-205c-113,-106 -182,-132 -262,-98l-35,15l17,30c10,16 38,44 63,62c43,31 378,207 394,208c5,0 5,-6 1,-12z" fill="#9e9c9c" id="svg_3"/>
  </g>
 </g>
</svg>