<?xml version="1.0"?>
<svg width="40" height="40" xmlns="http://www.w3.org/2000/svg" xmlns:svg="http://www.w3.org/2000/svg">
 <g class="layer">
  <title>Layer 1</title>
  <g id="vuesax/bold/play-circle">
   <g id="play-circle">
    <path d="m19.95,3.33c-9.2,0 -16.67,7.47 -16.67,16.67c0,9.2 7.47,16.67 16.67,16.67c9.2,0 16.66,-7.47 16.66,-16.67c0,-9.2 -7.45,-16.67 -16.66,-16.67zm5,20.39l-4.84,2.78c-0.6,0.35 -1.26,0.52 -1.91,0.52c-0.67,0 -1.32,-0.17 -1.92,-0.52c-1.2,-0.7 -1.92,-1.93 -1.92,-3.33l0,-5.59c0,-1.38 0.72,-2.63 1.92,-3.33c1.2,-0.7 2.63,-0.7 3.85,0l4.83,2.78c1.2,0.7 1.92,1.94 1.92,3.34c0,1.4 -0.72,2.65 -1.93,3.35z" fill="#3f3f3f" id="Vector"/>
   </g>
  </g>
 </g>
</svg>