<?xml version="1.0"?>
<svg width="20" height="20" xmlns="http://www.w3.org/2000/svg" xmlns:svg="http://www.w3.org/2000/svg">
 <g class="layer">
  <title>Layer 1</title>
  <path d="m14.66,15.55l2.44,2.44c0.12,0.11 0.28,0.17 0.44,0.17c0.17,0 0.32,-0.07 0.44,-0.18c0.11,-0.12 0.18,-0.27 0.18,-0.44c0,-0.16 -0.06,-0.32 -0.17,-0.44l-2.83,-1.96c1.37,-1.59 2.45,-4.14 2.33,-6.23c-0.12,-2.1 -1.05,-4.07 -2.6,-5.5c-1.54,-1.42 -3.57,-2.2 -5.67,-2.16c-2.1,0.04 -4.1,0.89 -5.59,2.38c-1.49,1.49 -2.34,3.49 -2.38,5.59c-0.04,2.1 0.74,4.13 2.16,5.67c1.43,1.55 3.4,2.48 5.5,2.6c2.09,0.12 4.16,-0.58 5.75,-1.94l0,0zm1.88,-6.07c0,1.82 -0.82,3.86 -2.11,5.15c-1.29,1.29 -3.14,2.01 -4.97,2.01c-1.82,0 -3.86,-0.82 -5.15,-2.11c-1.29,-1.29 -2.11,-3.23 -2.11,-5.05c0,-1.83 0.82,-3.87 2.11,-5.16c1.29,-1.29 3.23,-2.2 5.05,-2.2c1.83,0 3.96,1.01 5.25,2.3c1.29,1.29 1.91,3.23 1.91,5.06z" fill="black" id="svg_1" stroke="#ffffff"/>
  <path d="m17.21,17.27c-0.77,-0.58 -0.54,-0.54 0.08,-0.02l-0.02,0.11l-0.29,-0.23" fill="none" id="svg_2" stroke="#ffffff"/>
 </g>
</svg>