<?xml version="1.0"?>
<svg width="20" height="20" xmlns="http://www.w3.org/2000/svg" xmlns:svg="http://www.w3.org/2000/svg">
 <g class="layer">
  <title>Layer 1</title>
  <path d="m14.66,15.55l2.44,2.44c0.12,0.11 0.28,0.17 0.44,0.17c0.17,0 0.32,-0.07 0.44,-0.18c0.11,-0.12 0.18,-0.27 0.18,-0.44c0,-0.16 -0.06,-0.32 -0.17,-0.44l-2.45,-2.44c1.37,-1.59 2.07,-3.66 1.95,-5.75c-0.12,-2.1 -1.05,-4.07 -2.6,-5.5c-1.54,-1.42 -3.57,-2.2 -5.67,-2.16c-2.1,0.04 -4.1,0.89 -5.59,2.38c-1.49,1.49 -2.34,3.49 -2.38,5.59c-0.04,2.1 0.74,4.13 2.16,5.67c1.43,1.55 3.4,2.48 5.5,2.6c2.09,0.12 4.16,-0.58 5.75,-1.94l0,0zm1.59,-6.17c0,1.82 -0.72,3.57 -2.01,4.86c-1.29,1.29 -3.04,2.01 -4.87,2.01c-1.82,0 -3.57,-0.72 -4.86,-2.01c-1.29,-1.29 -2.01,-3.04 -2.01,-4.86c0,-1.83 0.72,-3.58 2.01,-4.87c1.29,-1.29 3.04,-2.01 4.86,-2.01c1.83,0 3.58,0.72 4.87,2.01c1.29,1.29 2.01,3.04 2.01,4.87z" fill="#ffffff" id="svg_1"/>
 </g>
</svg>