<?xml version="1.0"?>
<svg width="24" height="24" xmlns="http://www.w3.org/2000/svg" xmlns:svg="http://www.w3.org/2000/svg">
 <g class="layer">
  <title>Layer 1</title>
  <path d="m12,15c1.66,0 3,-1.34 3,-3c0,-1.66 -1.34,-3 -3,-3c-1.66,0 -3,1.34 -3,3c0,1.66 1.34,3 3,3z" fill="none" id="svg_1" stroke="#ffffff" stroke-linecap="round" stroke-linejoin="round" stroke-miterlimit="10" stroke-width="1.5"/>
  <path d="m2,12.88l0,-1.76c0,-1.04 0.85,-1.9 1.9,-1.9c1.81,0 2.55,-1.28 1.64,-2.85c-0.52,-0.9 -0.21,-2.07 0.7,-2.59l1.73,-0.99c0.79,-0.47 1.81,-0.19 2.28,0.6l0.11,0.19c0.9,1.57 2.38,1.57 3.29,0l0.11,-0.19c0.47,-0.79 1.49,-1.07 2.28,-0.6l1.73,0.99c0.91,0.52 1.22,1.69 0.7,2.59c-0.91,1.57 -0.17,2.85 1.64,2.85c1.04,0 1.9,0.85 1.9,1.9l0,1.76c0,1.04 -0.85,1.9 -1.9,1.9c-1.81,0 -2.55,1.28 -1.64,2.85c0.52,0.91 0.21,2.07 -0.7,2.59l-1.73,0.99c-0.79,0.47 -1.81,0.19 -2.28,-0.6l-0.11,-0.19c-0.9,-1.57 -2.38,-1.57 -3.29,0l-0.11,0.19c-0.47,0.79 -1.49,1.07 -2.28,0.6l-1.73,-0.99c-0.91,-0.52 -1.22,-1.69 -0.7,-2.59c0.91,-1.57 0.17,-2.85 -1.64,-2.85c-1.05,0 -1.9,-0.86 -1.9,-1.9z" fill="none" id="svg_2" stroke="#ffffff" stroke-linecap="round" stroke-linejoin="round" stroke-miterlimit="10" stroke-width="1.5"/>
 </g>
</svg>