<?xml version="1.0"?>
<svg width="24" height="24" xmlns="http://www.w3.org/2000/svg" xmlns:svg="http://www.w3.org/2000/svg">
 <g class="layer">
  <title>Layer 1</title>
  <path d="m12,2c-5.51,0 -10,4.49 -10,10c0,5.51 4.49,10 10,10c5.51,0 10,-4.49 10,-10c0,-5.51 -4.49,-10 -10,-10zm4.78,7.7l-5.67,5.67c-0.14,0.14 -0.33,0.22 -0.53,0.22c-0.2,0 -0.39,-0.08 -0.53,-0.22l-2.83,-2.83c-0.29,-0.29 -0.29,-0.77 0,-1.06c0.29,-0.29 0.77,-0.29 1.06,0l2.3,2.3l5.14,-5.14c0.29,-0.29 0.77,-0.29 1.06,0c0.29,0.29 0.29,0.76 0,1.06z" fill="#3194a0" id="svg_1"/>
 </g>
</svg>