<?xml version="1.0"?>
<svg width="111.87" height="122.88" xmlns="http://www.w3.org/2000/svg" xmlns:svg="http://www.w3.org/2000/svg" data-name="Layer 1">
 <defs>
  <style>.cls-1{fill-rule:evenodd;}</style>
 </defs>
 <title>video-file</title>
 <g class="layer">
  <title>Layer 1</title>
  <path class="cls-1" d="m56.75,113.57l0,-38.5a9.34,9.34 0 0 1 9.31,-9.31l36.5,0a9.34,9.34 0 0 1 9.31,9.31l0,38.5a9.34,9.34 0 0 1 -9.31,9.31l-36.5,0a9.34,9.34 0 0 1 -9.31,-9.31zm2.74,-102.1l19.59,18.35l-19.59,0l0,-18.35zm-38.77,57.91a2.12,2.12 0 0 0 -2,2.21a2.08,2.08 0 0 0 2,2.21l24.58,0l0,-4.42l-24.58,0zm0.68,15.83a2.12,2.12 0 0 0 -2,2.21a2.09,2.09 0 0 0 2,2.21l24.6,0l0,-4.42l-24.6,0zm-0.7,-47.5a2.12,2.12 0 0 0 -2,2.21a2.09,2.09 0 0 0 2,2.21l22.75,0a2.12,2.12 0 0 0 2,-2.21a2.1,2.1 0 0 0 -2,-2.21l-22.75,0zm0,-15.83a2.12,2.12 0 0 0 -2,2.21a2.08,2.08 0 0 0 2,2.21l12.5,0a2.12,2.12 0 0 0 2,-2.21a2.1,2.1 0 0 0 -2,-2.21l-12.5,0zm0,31.67a2.12,2.12 0 0 0 -2,2.21a2.09,2.09 0 0 0 2,2.21l38.46,0a2.12,2.12 0 0 0 2,-2.21a2.09,2.09 0 0 0 -2,-2.21l-38.46,0zm69.3,-21.1a3.26,3.26 0 0 0 -2.37,-3.14l-28.89,-28.11a3.21,3.21 0 0 0 -2.51,-1.2l-50.36,0a5.86,5.86 0 0 0 -5.87,5.86l0,100.39a5.84,5.84 0 0 0 1.72,4.15a5.91,5.91 0 0 0 4.15,1.71l39.52,0l0,-6.55l-38.84,0l0,-99l46.39,0l0,26.52a3.29,3.29 0 0 0 3.29,3.29l27.2,0l0,21.45l6.57,0l0,-25.37zm4.3,63.73c1.9,-1.23 1.89,-2.59 0,-3.68l-16.91,-11.27c-1.55,-1 -3.16,-0.4 -3.12,1.62l0.06,22.78c0.13,2.19 1.38,2.79 3.23,1.77l16.72,-11.22l0.02,0z" fill="#ffffff" id="svg_1"/>
 </g>
</svg>