<?xml version="1.0"?>
<svg width="122.88" height="111.34" xmlns="http://www.w3.org/2000/svg" xmlns:svg="http://www.w3.org/2000/svg" data-name="Layer 1">
 <title>video</title>
 <g class="layer">
  <title>Layer 1</title>
  <path d="m23.59,0l75.7,0a23.68,23.68 0 0 1 23.59,23.59l0,64.16a23.56,23.56 0 0 1 -6.88,16.66l-0.22,0.2a23.53,23.53 0 0 1 -16.44,6.73l-75.75,0a23.53,23.53 0 0 1 -16.66,-6.93l-0.2,-0.22a23.46,23.46 0 0 1 -6.73,-16.44l0,-64.16a23.66,23.66 0 0 1 23.59,-23.59zm30.41,47.73l25.25,17.63a3.79,3.79 0 0 1 0.14,6.3l-25.17,17.39a3.75,3.75 0 0 1 -2.4,0.87a3.79,3.79 0 0 1 -3.82,-3.79l0,-35.31l0,0a3.77,3.77 0 0 1 6,-3.09zm-46.65,-21.26l14,0l9.06,-19.12l-6.82,0a16.29,16.29 0 0 0 -16.24,16.24l0,2.88zm29.7,-19.12l-9.05,19.12l25.36,0l9.07,-19.09l0,0l-25.38,-0.03zm32,0l-9.13,19.12l24.7,0l9.08,-19.12l-24.65,0zm31.32,0l-9.11,19.12l24.27,0l0,-2.88a16.32,16.32 0 0 0 -15.2,-16.21l0.04,-0.03zm15.2,26.68l-108.22,0l0,53.72a16.21,16.21 0 0 0 4.65,11.3l0.17,0.16a16.19,16.19 0 0 0 11.42,4.79l75.7,0a16.21,16.21 0 0 0 11.3,-4.6l0.16,-0.18a16.17,16.17 0 0 0 4.78,-11.46l0,-53.7l0.04,-0.03z" fill="#ffffff" id="svg_1"/>
 </g>
</svg>