<svg width="48" height="49" viewBox="0 0 48 49" fill="none" xmlns="http://www.w3.org/2000/svg">
<g id="icon / iconoir / bell-notification">
<path id="Vector" d="M36.2672 22.5312C37.431 33.2823 42 36.5312 42 36.5312H6C6 36.5312 12 32.2646 12 17.3312C12 13.9365 13.2643 10.6808 15.5147 8.28029C17.7652 5.87981 20.8174 4.53125 24 4.53125C24.6746 4.53125 25.3434 4.59185 26 4.71023" stroke="#3194A0" stroke-width="1.5" stroke-linecap="round" stroke-linejoin="round"/>
<path id="Vector_2" d="M38 16.5312C41.3138 16.5312 44 13.8449 44 10.5312C44 7.21755 41.3138 4.53125 38 4.53125C34.6862 4.53125 32 7.21755 32 10.5312C32 13.8449 34.6862 16.5312 38 16.5312Z" stroke="#3194A0" stroke-width="1.5" stroke-linecap="round" stroke-linejoin="round"/>
<path id="Vector_3" d="M27.4591 42.5312C27.1075 43.1374 26.6029 43.6406 25.9955 43.9902C25.3883 44.34 24.6999 44.5243 23.9991 44.5243C23.2983 44.5243 22.6099 44.34 22.0027 43.9902C21.3955 43.6406 20.8907 43.1374 20.5391 42.5312" stroke="#3194A0" stroke-width="1.5" stroke-linecap="round" stroke-linejoin="round"/>
</g>
</svg>
