<svg width="48" height="49" viewBox="0 0 48 49" fill="none" xmlns="http://www.w3.org/2000/svg">
<g id="icon / iconoir / card-wallet">
<path id="Vector" d="M38 40.5312H10C7.79086 40.5312 6 38.7404 6 36.5312V18.5312C6 16.3221 7.79086 14.5312 10 14.5312H38C40.2092 14.5312 42 16.3221 42 18.5312V36.5312C42 38.7404 40.2092 40.5312 38 40.5312Z" stroke="#3194A0" stroke-width="1.5"/>
<path id="Vector_2" d="M14 14.5312V7.73125C14 7.06851 14.5373 6.53125 15.2 6.53125H32.8C33.4628 6.53125 34 7.06851 34 7.73125V14.5312" stroke="#3194A0" stroke-width="1.5"/>
<path id="Vector_3" d="M20 6.53125V14.5312" stroke="#3194A0" stroke-width="1.5"/>
<path id="Vector_4" d="M24 6.53125V14.5312" stroke="#3194A0" stroke-width="1.5"/>
<path id="Vector_5" d="M33 28.5312C32.4478 28.5312 32 28.0835 32 27.5312C32 26.979 32.4478 26.5312 33 26.5312C33.5522 26.5312 34 26.979 34 27.5312C34 28.0835 33.5522 28.5312 33 28.5312Z" fill="#3194A0" stroke="#3194A0" stroke-width="1.5" stroke-linecap="round" stroke-linejoin="round"/>
</g>
</svg>
