<svg width="32" height="33" viewBox="0 0 32 33" fill="none" xmlns="http://www.w3.org/2000/svg">
<g id="icon / iconoir / cart">
<path id="Vector" d="M26 29.8652C27.1045 29.8652 28 28.9698 28 27.8652C28 26.7607 27.1045 25.8652 26 25.8652C24.8955 25.8652 24 26.7607 24 27.8652C24 28.9698 24.8955 29.8652 26 29.8652Z" stroke="#3194A0" stroke-width="1.5" stroke-linecap="round" stroke-linejoin="round"/>
<path id="Vector_2" d="M12.6641 29.8652C13.7686 29.8652 14.6641 28.9698 14.6641 27.8652C14.6641 26.7607 13.7686 25.8652 12.6641 25.8652C11.5595 25.8652 10.6641 26.7607 10.6641 27.8652C10.6641 28.9698 11.5595 29.8652 12.6641 29.8652Z" stroke="#3194A0" stroke-width="1.5" stroke-linecap="round" stroke-linejoin="round"/>
<path id="Vector_3" d="M6.66406 5.86393C6.44184 4.97504 5.33073 3.19727 2.66406 3.19727M6.66406 5.86393H29.3307L26.6641 20.5306H9.33073L6.66406 5.86393Z" stroke="#3194A0" stroke-width="1.5" stroke-linecap="round" stroke-linejoin="round"/>
<path id="Vector_4" d="M26.6693 20.5312H9.33594H6.97696C4.59788 20.5312 3.33594 21.5729 3.33594 23.1979C3.33594 24.823 4.59788 25.8646 6.97696 25.8646H26.0026" stroke="#3194A0" stroke-width="1.5" stroke-linecap="round" stroke-linejoin="round"/>
</g>
</svg>
