<svg width="48" height="48" viewBox="0 0 48 48" fill="none" xmlns="http://www.w3.org/2000/svg">
<g id="icon / iconoir / cash">
<path id="Vector" d="M20 38V10M28 10H42.8C43.4628 10 44 10.5373 44 11.2V36.8C44 37.4628 43.4628 38 42.8 38H28V10ZM28 10V38V10ZM28 10H20H28ZM28 38H20H28ZM20 38H5.2C4.53726 38 4 37.4628 4 36.8V11.2C4 10.5373 4.53726 10 5.2 10H20V38Z" stroke="#3194A0" stroke-width="1.5" stroke-linecap="round" stroke-linejoin="round"/>
<g id="Vector_2">
<mask id="path-2-inside-1_1152_122200" fill="white">
<path d="M14 19.6966C14 18.8684 13.1736 18.2998 12.5012 18.7832C10.9865 19.8723 10 21.6501 10 23.6581C10 25.6661 10.9865 27.4439 12.5012 28.5329C13.1736 29.0163 14 28.4479 14 27.6197C14 25.1117 14 22.7529 14 19.6966Z"/>
</mask>
<path d="M14 19.6966C14 18.8684 13.1736 18.2998 12.5012 18.7832C10.9865 19.8723 10 21.6501 10 23.6581C10 25.6661 10.9865 27.4439 12.5012 28.5329C13.1736 29.0163 14 28.4479 14 27.6197C14 25.1117 14 22.7529 14 19.6966Z" fill="#3194A0"/>
<path d="M12.5012 18.7832L13.085 19.5951L13.085 19.5951L12.5012 18.7832ZM12.5012 28.5329L11.9175 29.3448L11.9175 29.3448L12.5012 28.5329ZM15 19.6966C15 18.9481 14.625 18.2775 14.0402 17.9048C13.4292 17.5153 12.6089 17.4742 11.9174 17.9713L13.085 19.5951C13.0913 19.5906 13.0885 19.5938 13.0761 19.598C13.0636 19.6021 13.0474 19.6053 13.0292 19.6055C12.9915 19.6058 12.9696 19.5941 12.9653 19.5913C12.9618 19.5891 13 19.6169 13 19.6966H15ZM11.9175 17.9713C10.1526 19.2402 9 21.3146 9 23.6581H11C11 21.9855 11.8203 20.5044 13.085 19.5951L11.9175 17.9713ZM9 23.6581C9 26.0015 10.1526 28.076 11.9175 29.3448L13.0849 27.7209C11.8203 26.8117 11 25.3306 11 23.6581H9ZM11.9175 29.3448C12.6088 29.8418 13.4291 29.8008 14.0401 29.4115C14.625 29.0388 15 28.3682 15 27.6197H13C13 27.6993 12.9618 27.727 12.9654 27.7248C12.9697 27.722 12.9917 27.7102 13.0292 27.7106C13.0474 27.7108 13.0637 27.7139 13.0761 27.7181C13.0885 27.7222 13.0913 27.7254 13.0849 27.7209L11.9175 29.3448ZM15 27.6197C15 27.6148 15 27.6099 15 27.605C15 27.6001 15 27.5952 15 27.5903C15 27.5854 15 27.5805 15 27.5756C15 27.5707 15 27.5658 15 27.5609C15 27.556 15 27.5511 15 27.5462C15 27.5413 15 27.5364 15 27.5315C15 27.5267 15 27.5218 15 27.5169C15 27.512 15 27.5071 15 27.5022C15 27.4973 15 27.4924 15 27.4875C15 27.4826 15 27.4778 15 27.4729C15 27.468 15 27.4631 15 27.4582C15 27.4533 15 27.4484 15 27.4436C15 27.4387 15 27.4338 15 27.4289C15 27.424 15 27.4191 15 27.4142C15 27.4094 15 27.4045 15 27.3996C15 27.3947 15 27.3898 15 27.3849C15 27.3801 15 27.3752 15 27.3703C15 27.3654 15 27.3605 15 27.3557C15 27.3508 15 27.3459 15 27.341C15 27.3361 15 27.3313 15 27.3264C15 27.3215 15 27.3166 15 27.3118C15 27.3069 15 27.302 15 27.2971C15 27.2922 15 27.2874 15 27.2825C15 27.2776 15 27.2727 15 27.2679C15 27.263 15 27.2581 15 27.2532C15 27.2484 15 27.2435 15 27.2386C15 27.2338 15 27.2289 15 27.224C15 27.2191 15 27.2143 15 27.2094C15 27.2045 15 27.1996 15 27.1948C15 27.1899 15 27.185 15 27.1802C15 27.1753 15 27.1704 15 27.1656C15 27.1607 15 27.1558 15 27.151C15 27.1461 15 27.1412 15 27.1363C15 27.1315 15 27.1266 15 27.1217C15 27.1169 15 27.112 15 27.1071C15 27.1023 15 27.0974 15 27.0925C15 27.0877 15 27.0828 15 27.078C15 27.0731 15 27.0682 15 27.0634C15 27.0585 15 27.0536 15 27.0488C15 27.0439 15 27.039 15 27.0342C15 27.0293 15 27.0245 15 27.0196C15 27.0147 15 27.0099 15 27.005C15 27.0001 15 26.9953 15 26.9904C15 26.9856 15 26.9807 15 26.9758C15 26.971 15 26.9661 15 26.9613C15 26.9564 15 26.9515 15 26.9467C15 26.9418 15 26.937 15 26.9321C15 26.9272 15 26.9224 15 26.9175C15 26.9127 15 26.9078 15 26.9029C15 26.8981 15 26.8932 15 26.8884C15 26.8835 15 26.8787 15 26.8738C15 26.8689 15 26.8641 15 26.8592C15 26.8544 15 26.8495 15 26.8447C15 26.8398 15 26.835 15 26.8301C15 26.8252 15 26.8204 15 26.8155C15 26.8107 15 26.8058 15 26.801C15 26.7961 15 26.7913 15 26.7864C15 26.7816 15 26.7767 15 26.7718C15 26.767 15 26.7621 15 26.7573C15 26.7524 15 26.7476 15 26.7427C15 26.7379 15 26.733 15 26.7282C15 26.7233 15 26.7185 15 26.7136C15 26.7088 15 26.7039 15 26.6991C15 26.6942 15 26.6894 15 26.6845C15 26.6797 15 26.6748 15 26.6699C15 26.6651 15 26.6602 15 26.6554C15 26.6505 15 26.6457 15 26.6408C15 26.636 15 26.6311 15 26.6263C15 26.6214 15 26.6166 15 26.6117C15 26.6069 15 26.602 15 26.5972C15 26.5923 15 26.5875 15 26.5826C15 26.5778 15 26.5729 15 26.5681C15 26.5632 15 26.5584 15 26.5535C15 26.5487 15 26.5439 15 26.539C15 26.5342 15 26.5293 15 26.5245C15 26.5196 15 26.5148 15 26.5099C15 26.5051 15 26.5002 15 26.4954C15 26.4905 15 26.4857 15 26.4808C15 26.476 15 26.4711 15 26.4663C15 26.4614 15 26.4566 15 26.4517C15 26.4469 15 26.442 15 26.4372C15 26.4323 15 26.4275 15 26.4226C15 26.4178 15 26.413 15 26.4081C15 26.4033 15 26.3984 15 26.3936C15 26.3887 15 26.3839 15 26.379C15 26.3742 15 26.3693 15 26.3645C15 26.3596 15 26.3548 15 26.3499C15 26.3451 15 26.3402 15 26.3354C15 26.3306 15 26.3257 15 26.3209C15 26.316 15 26.3112 15 26.3063C15 26.3015 15 26.2966 15 26.2918C15 26.2869 15 26.2821 15 26.2772C15 26.2724 15 26.2675 15 26.2627C15 26.2578 15 26.253 15 26.2481C15 26.2433 15 26.2385 15 26.2336C15 26.2288 15 26.2239 15 26.2191C15 26.2142 15 26.2094 15 26.2045C15 26.1997 15 26.1948 15 26.19C15 26.1851 15 26.1803 15 26.1754C15 26.1706 15 26.1657 15 26.1609C15 26.156 15 26.1512 15 26.1464C15 26.1415 15 26.1367 15 26.1318C15 26.127 15 26.1221 15 26.1173C15 26.1124 15 26.1076 15 26.1027C15 26.0979 15 26.093 15 26.0882C15 26.0833 15 26.0785 15 26.0736C15 26.0688 15 26.0639 15 26.0591C15 26.0542 15 26.0494 15 26.0445C15 26.0397 15 26.0348 15 26.03C15 26.0251 15 26.0203 15 26.0154C15 26.0106 15 26.0057 15 26.0009C15 25.996 15 25.9912 15 25.9863C15 25.9815 15 25.9766 15 25.9718C15 25.9669 15 25.9621 15 25.9572C15 25.9524 15 25.9475 15 25.9427C15 25.9378 15 25.933 15 25.9281C15 25.9233 15 25.9184 15 25.9136C15 25.9087 15 25.9039 15 25.899C15 25.8942 15 25.8893 15 25.8845C15 25.8796 15 25.8748 15 25.8699C15 25.8651 15 25.8602 15 25.8554C15 25.8505 15 25.8456 15 25.8408C15 25.8359 15 25.8311 15 25.8262C15 25.8214 15 25.8165 15 25.8117C15 25.8068 15 25.802 15 25.7971C15 25.7923 15 25.7874 15 25.7825C15 25.7777 15 25.7728 15 25.768C15 25.7631 15 25.7583 15 25.7534C15 25.7486 15 25.7437 15 25.7388C15 25.734 15 25.7291 15 25.7243C15 25.7194 15 25.7146 15 25.7097C15 25.7048 15 25.7 15 25.6951C15 25.6903 15 25.6854 15 25.6805C15 25.6757 15 25.6708 15 25.666C15 25.6611 15 25.6563 15 25.6514C15 25.6465 15 25.6417 15 25.6368C15 25.632 15 25.6271 15 25.6222C15 25.6174 15 25.6125 15 25.6076C15 25.6028 15 25.5979 15 25.5931C15 25.5882 15 25.5833 15 25.5785C15 25.5736 15 25.5687 15 25.5639C15 25.559 15 25.5542 15 25.5493C15 25.5444 15 25.5396 15 25.5347C15 25.5298 15 25.525 15 25.5201C15 25.5152 15 25.5104 15 25.5055C15 25.5006 15 25.4958 15 25.4909C15 25.486 15 25.4812 15 25.4763C15 25.4714 15 25.4666 15 25.4617C15 25.4568 15 25.452 15 25.4471C15 25.4422 15 25.4374 15 25.4325C15 25.4276 15 25.4228 15 25.4179C15 25.413 15 25.4081 15 25.4033C15 25.3984 15 25.3935 15 25.3887C15 25.3838 15 25.3789 15 25.374C15 25.3692 15 25.3643 15 25.3594C15 25.3545 15 25.3497 15 25.3448C15 25.3399 15 25.335 15 25.3302C15 25.3253 15 25.3204 15 25.3155C15 25.3107 15 25.3058 15 25.3009C15 25.296 15 25.2912 15 25.2863C15 25.2814 15 25.2765 15 25.2716C15 25.2668 15 25.2619 15 25.257C15 25.2521 15 25.2473 15 25.2424C15 25.2375 15 25.2326 15 25.2277C15 25.2228 15 25.218 15 25.2131C15 25.2082 15 25.2033 15 25.1984C15 25.1936 15 25.1887 15 25.1838C15 25.1789 15 25.174 15 25.1691C15 25.1642 15 25.1594 15 25.1545C15 25.1496 15 25.1447 15 25.1398C15 25.1349 15 25.13 15 25.1251C15 25.1203 15 25.1154 15 25.1105C15 25.1056 15 25.1007 15 25.0958C15 25.0909 15 25.086 15 25.0811C15 25.0762 15 25.0714 15 25.0665C15 25.0616 15 25.0567 15 25.0518C15 25.0469 15 25.042 15 25.0371C15 25.0322 15 25.0273 15 25.0224C15 25.0175 15 25.0126 15 25.0077C15 25.0028 15 24.9979 15 24.993C15 24.9881 15 24.9832 15 24.9783C15 24.9734 15 24.9685 15 24.9636C15 24.9587 15 24.9538 15 24.9489C15 24.944 15 24.9391 15 24.9342C15 24.9293 15 24.9244 15 24.9195C15 24.9146 15 24.9097 15 24.9048C15 24.8999 15 24.895 15 24.8901C15 24.8852 15 24.8803 15 24.8754C15 24.8705 15 24.8656 15 24.8607C15 24.8557 15 24.8508 15 24.8459C15 24.841 15 24.8361 15 24.8312C15 24.8263 15 24.8214 15 24.8165C15 24.8115 15 24.8066 15 24.8017C15 24.7968 15 24.7919 15 24.787C15 24.7821 15 24.7771 15 24.7722C15 24.7673 15 24.7624 15 24.7575C15 24.7526 15 24.7476 15 24.7427C15 24.7378 15 24.7329 15 24.728C15 24.723 15 24.7181 15 24.7132C15 24.7083 15 24.7034 15 24.6984C15 24.6935 15 24.6886 15 24.6837C15 24.6787 15 24.6738 15 24.6689C15 24.664 15 24.659 15 24.6541C15 24.6492 15 24.6442 15 24.6393C15 24.6344 15 24.6295 15 24.6245C15 24.6196 15 24.6147 15 24.6097C15 24.6048 15 24.5999 15 24.5949C15 24.59 15 24.5851 15 24.5801C15 24.5752 15 24.5703 15 24.5653C15 24.5604 15 24.5555 15 24.5505C15 24.5456 15 24.5406 15 24.5357C15 24.5308 15 24.5258 15 24.5209C15 24.5159 15 24.511 15 24.5061C15 24.5011 15 24.4962 15 24.4912C15 24.4863 15 24.4813 15 24.4764C15 24.4715 15 24.4665 15 24.4616C15 24.4566 15 24.4517 15 24.4467C15 24.4418 15 24.4368 15 24.4319C15 24.4269 15 24.422 15 24.417C15 24.4121 15 24.4071 15 24.4022C15 24.3972 15 24.3923 15 24.3873C15 24.3823 15 24.3774 15 24.3724C15 24.3675 15 24.3625 15 24.3576C15 24.3526 15 24.3476 15 24.3427C15 24.3377 15 24.3328 15 24.3278C15 24.3228 15 24.3179 15 24.3129C15 24.308 15 24.303 15 24.298C15 24.2931 15 24.2881 15 24.2831C15 24.2782 15 24.2732 15 24.2682C15 24.2633 15 24.2583 15 24.2533C15 24.2483 15 24.2434 15 24.2384C15 24.2334 15 24.2285 15 24.2235C15 24.2185 15 24.2135 15 24.2086C15 24.2036 15 24.1986 15 24.1936C15 24.1886 15 24.1837 15 24.1787C15 24.1737 15 24.1687 15 24.1637C15 24.1588 15 24.1538 15 24.1488C15 24.1438 15 24.1388 15 24.1339C15 24.1289 15 24.1239 15 24.1189C15 24.1139 15 24.1089 15 24.1039C15 24.0989 15 24.094 15 24.089C15 24.084 15 24.079 15 24.074C15 24.069 15 24.064 15 24.059C15 24.054 15 24.049 15 24.044C15 24.039 15 24.034 15 24.029C15 24.024 15 24.019 15 24.014C15 24.009 15 24.004 15 23.999C15 23.994 15 23.989 15 23.984C15 23.979 15 23.974 15 23.969C15 23.964 15 23.959 15 23.954C15 23.949 15 23.944 15 23.939C15 23.9339 15 23.9289 15 23.9239C15 23.9189 15 23.9139 15 23.9089C15 23.9039 15 23.8989 15 23.8938C15 23.8888 15 23.8838 15 23.8788C15 23.8738 15 23.8687 15 23.8637C15 23.8587 15 23.8537 15 23.8487C15 23.8436 15 23.8386 15 23.8336C15 23.8286 15 23.8235 15 23.8185C15 23.8135 15 23.8085 15 23.8034C15 23.7984 15 23.7934 15 23.7883C15 23.7833 15 23.7783 15 23.7732C15 23.7682 15 23.7632 15 23.7581C15 23.7531 15 23.7481 15 23.743C15 23.738 15 23.733 15 23.7279C15 23.7229 15 23.7178 15 23.7128C15 23.7078 15 23.7027 15 23.6977C15 23.6926 15 23.6876 15 23.6825C15 23.6775 15 23.6724 15 23.6674C15 23.6623 15 23.6573 15 23.6522C15 23.6472 15 23.6421 15 23.6371C15 23.632 15 23.627 15 23.6219C15 23.6169 15 23.6118 15 23.6067C15 23.6017 15 23.5966 15 23.5916C15 23.5865 15 23.5814 15 23.5764C15 23.5713 15 23.5663 15 23.5612C15 23.5561 15 23.5511 15 23.546C15 23.5409 15 23.5359 15 23.5308C15 23.5257 15 23.5207 15 23.5156C15 23.5105 15 23.5054 15 23.5004C15 23.4953 15 23.4902 15 23.4851C15 23.4801 15 23.475 15 23.4699C15 23.4648 15 23.4597 15 23.4547C15 23.4496 15 23.4445 15 23.4394C15 23.4343 15 23.4292 15 23.4242C15 23.4191 15 23.414 15 23.4089C15 23.4038 15 23.3987 15 23.3936C15 23.3885 15 23.3834 15 23.3783C15 23.3733 15 23.3682 15 23.3631C15 23.358 15 23.3529 15 23.3478C15 23.3427 15 23.3376 15 23.3325C15 23.3274 15 23.3223 15 23.3172C15 23.3121 15 23.3069 15 23.3018C15 23.2967 15 23.2916 15 23.2865C15 23.2814 15 23.2763 15 23.2712C15 23.2661 15 23.261 15 23.2558C15 23.2507 15 23.2456 15 23.2405C15 23.2354 15 23.2303 15 23.2251C15 23.22 15 23.2149 15 23.2098C15 23.2047 15 23.1995 15 23.1944C15 23.1893 15 23.1842 15 23.179C15 23.1739 15 23.1688 15 23.1637C15 23.1585 15 23.1534 15 23.1483C15 23.1431 15 23.138 15 23.1329C15 23.1277 15 23.1226 15 23.1174C15 23.1123 15 23.1072 15 23.102C15 23.0969 15 23.0917 15 23.0866C15 23.0815 15 23.0763 15 23.0712C15 23.066 15 23.0609 15 23.0557C15 23.0506 15 23.0454 15 23.0403C15 23.0351 15 23.03 15 23.0248C15 23.0197 15 23.0145 15 23.0093C15 23.0042 15 22.999 15 22.9939C15 22.9887 15 22.9835 15 22.9784C15 22.9732 15 22.9681 15 22.9629C15 22.9577 15 22.9526 15 22.9474C15 22.9422 15 22.9371 15 22.9319C15 22.9267 15 22.9215 15 22.9164C15 22.9112 15 22.906 15 22.9008C15 22.8957 15 22.8905 15 22.8853C15 22.8801 15 22.8749 15 22.8698C15 22.8646 15 22.8594 15 22.8542C15 22.849 15 22.8438 15 22.8386C15 22.8334 15 22.8283 15 22.8231C15 22.8179 15 22.8127 15 22.8075C15 22.8023 15 22.7971 15 22.7919C15 22.7867 15 22.7815 15 22.7763C15 22.7711 15 22.7659 15 22.7607C15 22.7555 15 22.7503 15 22.7451C15 22.7399 15 22.7347 15 22.7295C15 22.7242 15 22.719 15 22.7138C15 22.7086 15 22.7034 15 22.6982C15 22.693 15 22.6877 15 22.6825C15 22.6773 15 22.6721 15 22.6669C15 22.6616 15 22.6564 15 22.6512C15 22.646 15 22.6407 15 22.6355C15 22.6303 15 22.6251 15 22.6198C15 22.6146 15 22.6094 15 22.6041C15 22.5989 15 22.5937 15 22.5884C15 22.5832 15 22.5779 15 22.5727C15 22.5675 15 22.5622 15 22.557C15 22.5517 15 22.5465 15 22.5412C15 22.536 15 22.5307 15 22.5255C15 22.5202 15 22.515 15 22.5097C15 22.5045 15 22.4992 15 22.494C15 22.4887 15 22.4835 15 22.4782C15 22.4729 15 22.4677 15 22.4624C15 22.4571 15 22.4519 15 22.4466C15 22.4414 15 22.4361 15 22.4308C15 22.4255 15 22.4203 15 22.415C15 22.4097 15 22.4045 15 22.3992C15 22.3939 15 22.3886 15 22.3833C15 22.3781 15 22.3728 15 22.3675C15 22.3622 15 22.3569 15 22.3516C15 22.3464 15 22.3411 15 22.3358C15 22.3305 15 22.3252 15 22.3199C15 22.3146 15 22.3093 15 22.304C15 22.2987 15 22.2934 15 22.2881C15 22.2828 15 22.2775 15 22.2722C15 22.2669 15 22.2616 15 22.2563C15 22.251 15 22.2457 15 22.2404C15 22.2351 15 22.2298 15 22.2245C15 22.2191 15 22.2138 15 22.2085C15 22.2032 15 22.1979 15 22.1926C15 22.1872 15 22.1819 15 22.1766C15 22.1713 15 22.1659 15 22.1606C15 22.1553 15 22.15 15 22.1446C15 22.1393 15 22.134 15 22.1286C15 22.1233 15 22.118 15 22.1126C15 22.1073 15 22.102 15 22.0966C15 22.0913 15 22.0859 15 22.0806C15 22.0752 15 22.0699 15 22.0645C15 22.0592 15 22.0539 15 22.0485C15 22.0431 15 22.0378 15 22.0324C15 22.0271 15 22.0217 15 22.0164C15 22.011 15 22.0056 15 22.0003C15 21.9949 15 21.9896 15 21.9842C15 21.9788 15 21.9735 15 21.9681C15 21.9627 15 21.9574 15 21.952C15 21.9466 15 21.9412 15 21.9359C15 21.9305 15 21.9251 15 21.9197C15 21.9143 15 21.909 15 21.9036C15 21.8982 15 21.8928 15 21.8874C15 21.882 15 21.8766 15 21.8712C15 21.8659 15 21.8605 15 21.8551C15 21.8497 15 21.8443 15 21.8389C15 21.8335 15 21.8281 15 21.8227C15 21.8173 15 21.8119 15 21.8065C15 21.801 15 21.7956 15 21.7902C15 21.7848 15 21.7794 15 21.774C15 21.7686 15 21.7632 15 21.7577C15 21.7523 15 21.7469 15 21.7415C15 21.7361 15 21.7306 15 21.7252C15 21.7198 15 21.7144 15 21.7089C15 21.7035 15 21.6981 15 21.6926C15 21.6872 15 21.6818 15 21.6763C15 21.6709 15 21.6655 15 21.66C15 21.6546 15 21.6491 15 21.6437C15 21.6382 15 21.6328 15 21.6274C15 21.6219 15 21.6165 15 21.611C15 21.6055 15 21.6001 15 21.5946C15 21.5892 15 21.5837 15 21.5783C15 21.5728 15 21.5673 15 21.5619C15 21.5564 15 21.5509 15 21.5455C15 21.54 15 21.5345 15 21.5291C15 21.5236 15 21.5181 15 21.5126C15 21.5072 15 21.5017 15 21.4962C15 21.4907 15 21.4852 15 21.4798C15 21.4743 15 21.4688 15 21.4633C15 21.4578 15 21.4523 15 21.4468C15 21.4413 15 21.4358 15 21.4304C15 21.4249 15 21.4194 15 21.4139C15 21.4084 15 21.4029 15 21.3974C15 21.3918 15 21.3863 15 21.3808C15 21.3753 15 21.3698 15 21.3643C15 21.3588 15 21.3533 15 21.3478C15 21.3422 15 21.3367 15 21.3312C15 21.3257 15 21.3202 15 21.3146C15 21.3091 15 21.3036 15 21.2981C15 21.2925 15 21.287 15 21.2815C15 21.2759 15 21.2704 15 21.2649C15 21.2593 15 21.2538 15 21.2482C15 21.2427 15 21.2372 15 21.2316C15 21.2261 15 21.2205 15 21.215C15 21.2094 15 21.2039 15 21.1983C15 21.1928 15 21.1872 15 21.1816C15 21.1761 15 21.1705 15 21.165C15 21.1594 15 21.1538 15 21.1483C15 21.1427 15 21.1371 15 21.1316C15 21.126 15 21.1204 15 21.1148C15 21.1093 15 21.1037 15 21.0981C15 21.0925 15 21.0869 15 21.0814C15 21.0758 15 21.0702 15 21.0646C15 21.059 15 21.0534 15 21.0478C15 21.0422 15 21.0366 15 21.031C15 21.0254 15 21.0198 15 21.0142C15 21.0086 15 21.003 15 20.9974C15 20.9918 15 20.9862 15 20.9806C15 20.975 15 20.9694 15 20.9638C15 20.9582 15 20.9525 15 20.9469C15 20.9413 15 20.9357 15 20.9301C15 20.9244 15 20.9188 15 20.9132C15 20.9076 15 20.9019 15 20.8963C15 20.8907 15 20.885 15 20.8794C15 20.8738 15 20.8681 15 20.8625C15 20.8568 15 20.8512 15 20.8455C15 20.8399 15 20.8343 15 20.8286C15 20.823 15 20.8173 15 20.8116C15 20.806 15 20.8003 15 20.7947C15 20.789 15 20.7834 15 20.7777C15 20.772 15 20.7664 15 20.7607C15 20.755 15 20.7494 15 20.7437C15 20.738 15 20.7323 15 20.7267C15 20.721 15 20.7153 15 20.7096C15 20.7039 15 20.6983 15 20.6926C15 20.6869 15 20.6812 15 20.6755C15 20.6698 15 20.6641 15 20.6584C15 20.6527 15 20.647 15 20.6413C15 20.6356 15 20.6299 15 20.6242C15 20.6185 15 20.6128 15 20.6071C15 20.6014 15 20.5957 15 20.59C15 20.5842 15 20.5785 15 20.5728C15 20.5671 15 20.5614 15 20.5556C15 20.5499 15 20.5442 15 20.5385C15 20.5327 15 20.527 15 20.5213C15 20.5155 15 20.5098 15 20.5041C15 20.4983 15 20.4926 15 20.4868C15 20.4811 15 20.4754 15 20.4696C15 20.4639 15 20.4581 15 20.4524C15 20.4466 15 20.4409 15 20.4351C15 20.4293 15 20.4236 15 20.4178C15 20.4121 15 20.4063 15 20.4005C15 20.3948 15 20.389 15 20.3832C15 20.3775 15 20.3717 15 20.3659C15 20.3601 15 20.3543 15 20.3486C15 20.3428 15 20.337 15 20.3312C15 20.3254 15 20.3196 15 20.3139C15 20.3081 15 20.3023 15 20.2965C15 20.2907 15 20.2849 15 20.2791C15 20.2733 15 20.2675 15 20.2617C15 20.2559 15 20.2501 15 20.2442C15 20.2384 15 20.2326 15 20.2268C15 20.221 15 20.2152 15 20.2094C15 20.2035 15 20.1977 15 20.1919C15 20.1861 15 20.1802 15 20.1744C15 20.1686 15 20.1627 15 20.1569C15 20.1511 15 20.1452 15 20.1394C15 20.1335 15 20.1277 15 20.1219C15 20.116 15 20.1102 15 20.1043C15 20.0985 15 20.0926 15 20.0868C15 20.0809 15 20.075 15 20.0692C15 20.0633 15 20.0575 15 20.0516C15 20.0457 15 20.0399 15 20.034C15 20.0281 15 20.0223 15 20.0164C15 20.0105 15 20.0046 15 19.9987C15 19.9929 15 19.987 15 19.9811C15 19.9752 15 19.9693 15 19.9634C15 19.9575 15 19.9516 15 19.9457C15 19.9398 15 19.934 15 19.928C15 19.9221 15 19.9162 15 19.9103C15 19.9044 15 19.8985 15 19.8926C15 19.8867 15 19.8808 15 19.8749C15 19.869 15 19.863 15 19.8571C15 19.8512 15 19.8453 15 19.8393C15 19.8334 15 19.8275 15 19.8215C15 19.8156 15 19.8097 15 19.8037C15 19.7978 15 19.7919 15 19.7859C15 19.78 15 19.774 15 19.7681C15 19.7621 15 19.7562 15 19.7502C15 19.7443 15 19.7383 15 19.7324C15 19.7264 15 19.7204 15 19.7145C15 19.7085 15 19.7026 15 19.6966H13C13 19.7026 13 19.7085 13 19.7145C13 19.7204 13 19.7264 13 19.7324C13 19.7383 13 19.7443 13 19.7502C13 19.7562 13 19.7621 13 19.7681C13 19.774 13 19.78 13 19.7859C13 19.7919 13 19.7978 13 19.8037C13 19.8097 13 19.8156 13 19.8215C13 19.8275 13 19.8334 13 19.8393C13 19.8453 13 19.8512 13 19.8571C13 19.863 13 19.869 13 19.8749C13 19.8808 13 19.8867 13 19.8926C13 19.8985 13 19.9044 13 19.9103C13 19.9162 13 19.9221 13 19.928C13 19.934 13 19.9398 13 19.9457C13 19.9516 13 19.9575 13 19.9634C13 19.9693 13 19.9752 13 19.9811C13 19.987 13 19.9929 13 19.9987C13 20.0046 13 20.0105 13 20.0164C13 20.0223 13 20.0281 13 20.034C13 20.0399 13 20.0457 13 20.0516C13 20.0575 13 20.0633 13 20.0692C13 20.075 13 20.0809 13 20.0868C13 20.0926 13 20.0985 13 20.1043C13 20.1102 13 20.116 13 20.1219C13 20.1277 13 20.1335 13 20.1394C13 20.1452 13 20.1511 13 20.1569C13 20.1627 13 20.1686 13 20.1744C13 20.1802 13 20.1861 13 20.1919C13 20.1977 13 20.2035 13 20.2094C13 20.2152 13 20.221 13 20.2268C13 20.2326 13 20.2384 13 20.2442C13 20.2501 13 20.2559 13 20.2617C13 20.2675 13 20.2733 13 20.2791C13 20.2849 13 20.2907 13 20.2965C13 20.3023 13 20.3081 13 20.3139C13 20.3196 13 20.3254 13 20.3312C13 20.337 13 20.3428 13 20.3486C13 20.3543 13 20.3601 13 20.3659C13 20.3717 13 20.3775 13 20.3832C13 20.389 13 20.3948 13 20.4005C13 20.4063 13 20.4121 13 20.4178C13 20.4236 13 20.4293 13 20.4351C13 20.4409 13 20.4466 13 20.4524C13 20.4581 13 20.4639 13 20.4696C13 20.4754 13 20.4811 13 20.4868C13 20.4926 13 20.4983 13 20.5041C13 20.5098 13 20.5155 13 20.5213C13 20.527 13 20.5327 13 20.5385C13 20.5442 13 20.5499 13 20.5556C13 20.5614 13 20.5671 13 20.5728C13 20.5785 13 20.5842 13 20.59C13 20.5957 13 20.6014 13 20.6071C13 20.6128 13 20.6185 13 20.6242C13 20.6299 13 20.6356 13 20.6413C13 20.647 13 20.6527 13 20.6584C13 20.6641 13 20.6698 13 20.6755C13 20.6812 13 20.6869 13 20.6926C13 20.6983 13 20.7039 13 20.7096C13 20.7153 13 20.721 13 20.7267C13 20.7323 13 20.738 13 20.7437C13 20.7494 13 20.755 13 20.7607C13 20.7664 13 20.772 13 20.7777C13 20.7834 13 20.789 13 20.7947C13 20.8003 13 20.806 13 20.8116C13 20.8173 13 20.823 13 20.8286C13 20.8343 13 20.8399 13 20.8455C13 20.8512 13 20.8568 13 20.8625C13 20.8681 13 20.8738 13 20.8794C13 20.885 13 20.8907 13 20.8963C13 20.9019 13 20.9076 13 20.9132C13 20.9188 13 20.9244 13 20.9301C13 20.9357 13 20.9413 13 20.9469C13 20.9525 13 20.9582 13 20.9638C13 20.9694 13 20.975 13 20.9806C13 20.9862 13 20.9918 13 20.9974C13 21.003 13 21.0086 13 21.0142C13 21.0198 13 21.0254 13 21.031C13 21.0366 13 21.0422 13 21.0478C13 21.0534 13 21.059 13 21.0646C13 21.0702 13 21.0758 13 21.0814C13 21.0869 13 21.0925 13 21.0981C13 21.1037 13 21.1093 13 21.1148C13 21.1204 13 21.126 13 21.1316C13 21.1371 13 21.1427 13 21.1483C13 21.1538 13 21.1594 13 21.165C13 21.1705 13 21.1761 13 21.1816C13 21.1872 13 21.1928 13 21.1983C13 21.2039 13 21.2094 13 21.215C13 21.2205 13 21.2261 13 21.2316C13 21.2372 13 21.2427 13 21.2482C13 21.2538 13 21.2593 13 21.2649C13 21.2704 13 21.2759 13 21.2815C13 21.287 13 21.2925 13 21.2981C13 21.3036 13 21.3091 13 21.3146C13 21.3202 13 21.3257 13 21.3312C13 21.3367 13 21.3422 13 21.3478C13 21.3533 13 21.3588 13 21.3643C13 21.3698 13 21.3753 13 21.3808C13 21.3863 13 21.3918 13 21.3974C13 21.4029 13 21.4084 13 21.4139C13 21.4194 13 21.4249 13 21.4304C13 21.4358 13 21.4413 13 21.4468C13 21.4523 13 21.4578 13 21.4633C13 21.4688 13 21.4743 13 21.4798C13 21.4852 13 21.4907 13 21.4962C13 21.5017 13 21.5072 13 21.5126C13 21.5181 13 21.5236 13 21.5291C13 21.5345 13 21.54 13 21.5455C13 21.5509 13 21.5564 13 21.5619C13 21.5673 13 21.5728 13 21.5783C13 21.5837 13 21.5892 13 21.5946C13 21.6001 13 21.6055 13 21.611C13 21.6165 13 21.6219 13 21.6274C13 21.6328 13 21.6382 13 21.6437C13 21.6491 13 21.6546 13 21.66C13 21.6655 13 21.6709 13 21.6763C13 21.6818 13 21.6872 13 21.6926C13 21.6981 13 21.7035 13 21.7089C13 21.7144 13 21.7198 13 21.7252C13 21.7306 13 21.7361 13 21.7415C13 21.7469 13 21.7523 13 21.7577C13 21.7632 13 21.7686 13 21.774C13 21.7794 13 21.7848 13 21.7902C13 21.7956 13 21.801 13 21.8065C13 21.8119 13 21.8173 13 21.8227C13 21.8281 13 21.8335 13 21.8389C13 21.8443 13 21.8497 13 21.8551C13 21.8605 13 21.8659 13 21.8712C13 21.8766 13 21.882 13 21.8874C13 21.8928 13 21.8982 13 21.9036C13 21.909 13 21.9143 13 21.9197C13 21.9251 13 21.9305 13 21.9359C13 21.9412 13 21.9466 13 21.952C13 21.9574 13 21.9627 13 21.9681C13 21.9735 13 21.9788 13 21.9842C13 21.9896 13 21.9949 13 22.0003C13 22.0056 13 22.011 13 22.0164C13 22.0217 13 22.0271 13 22.0324C13 22.0378 13 22.0431 13 22.0485C13 22.0539 13 22.0592 13 22.0645C13 22.0699 13 22.0752 13 22.0806C13 22.0859 13 22.0913 13 22.0966C13 22.102 13 22.1073 13 22.1126C13 22.118 13 22.1233 13 22.1286C13 22.134 13 22.1393 13 22.1446C13 22.15 13 22.1553 13 22.1606C13 22.1659 13 22.1713 13 22.1766C13 22.1819 13 22.1872 13 22.1926C13 22.1979 13 22.2032 13 22.2085C13 22.2138 13 22.2191 13 22.2245C13 22.2298 13 22.2351 13 22.2404C13 22.2457 13 22.251 13 22.2563C13 22.2616 13 22.2669 13 22.2722C13 22.2775 13 22.2828 13 22.2881C13 22.2934 13 22.2987 13 22.304C13 22.3093 13 22.3146 13 22.3199C13 22.3252 13 22.3305 13 22.3358C13 22.3411 13 22.3464 13 22.3516C13 22.3569 13 22.3622 13 22.3675C13 22.3728 13 22.3781 13 22.3833C13 22.3886 13 22.3939 13 22.3992C13 22.4045 13 22.4097 13 22.415C13 22.4203 13 22.4255 13 22.4308C13 22.4361 13 22.4414 13 22.4466C13 22.4519 13 22.4571 13 22.4624C13 22.4677 13 22.4729 13 22.4782C13 22.4835 13 22.4887 13 22.494C13 22.4992 13 22.5045 13 22.5097C13 22.515 13 22.5202 13 22.5255C13 22.5307 13 22.536 13 22.5412C13 22.5465 13 22.5517 13 22.557C13 22.5622 13 22.5675 13 22.5727C13 22.5779 13 22.5832 13 22.5884C13 22.5937 13 22.5989 13 22.6041C13 22.6094 13 22.6146 13 22.6198C13 22.6251 13 22.6303 13 22.6355C13 22.6407 13 22.646 13 22.6512C13 22.6564 13 22.6616 13 22.6669C13 22.6721 13 22.6773 13 22.6825C13 22.6877 13 22.693 13 22.6982C13 22.7034 13 22.7086 13 22.7138C13 22.719 13 22.7242 13 22.7295C13 22.7347 13 22.7399 13 22.7451C13 22.7503 13 22.7555 13 22.7607C13 22.7659 13 22.7711 13 22.7763C13 22.7815 13 22.7867 13 22.7919C13 22.7971 13 22.8023 13 22.8075C13 22.8127 13 22.8179 13 22.8231C13 22.8283 13 22.8334 13 22.8386C13 22.8438 13 22.849 13 22.8542C13 22.8594 13 22.8646 13 22.8698C13 22.8749 13 22.8801 13 22.8853C13 22.8905 13 22.8957 13 22.9008C13 22.906 13 22.9112 13 22.9164C13 22.9215 13 22.9267 13 22.9319C13 22.9371 13 22.9422 13 22.9474C13 22.9526 13 22.9577 13 22.9629C13 22.9681 13 22.9732 13 22.9784C13 22.9835 13 22.9887 13 22.9939C13 22.999 13 23.0042 13 23.0093C13 23.0145 13 23.0197 13 23.0248C13 23.03 13 23.0351 13 23.0403C13 23.0454 13 23.0506 13 23.0557C13 23.0609 13 23.066 13 23.0712C13 23.0763 13 23.0815 13 23.0866C13 23.0917 13 23.0969 13 23.102C13 23.1072 13 23.1123 13 23.1174C13 23.1226 13 23.1277 13 23.1329C13 23.138 13 23.1431 13 23.1483C13 23.1534 13 23.1585 13 23.1637C13 23.1688 13 23.1739 13 23.179C13 23.1842 13 23.1893 13 23.1944C13 23.1995 13 23.2047 13 23.2098C13 23.2149 13 23.22 13 23.2251C13 23.2303 13 23.2354 13 23.2405C13 23.2456 13 23.2507 13 23.2558C13 23.261 13 23.2661 13 23.2712C13 23.2763 13 23.2814 13 23.2865C13 23.2916 13 23.2967 13 23.3018C13 23.3069 13 23.3121 13 23.3172C13 23.3223 13 23.3274 13 23.3325C13 23.3376 13 23.3427 13 23.3478C13 23.3529 13 23.358 13 23.3631C13 23.3682 13 23.3733 13 23.3783C13 23.3834 13 23.3885 13 23.3936C13 23.3987 13 23.4038 13 23.4089C13 23.414 13 23.4191 13 23.4242C13 23.4292 13 23.4343 13 23.4394C13 23.4445 13 23.4496 13 23.4547C13 23.4597 13 23.4648 13 23.4699C13 23.475 13 23.4801 13 23.4851C13 23.4902 13 23.4953 13 23.5004C13 23.5054 13 23.5105 13 23.5156C13 23.5207 13 23.5257 13 23.5308C13 23.5359 13 23.5409 13 23.546C13 23.5511 13 23.5561 13 23.5612C13 23.5663 13 23.5713 13 23.5764C13 23.5814 13 23.5865 13 23.5916C13 23.5966 13 23.6017 13 23.6067C13 23.6118 13 23.6169 13 23.6219C13 23.627 13 23.632 13 23.6371C13 23.6421 13 23.6472 13 23.6522C13 23.6573 13 23.6623 13 23.6674C13 23.6724 13 23.6775 13 23.6825C13 23.6876 13 23.6926 13 23.6977C13 23.7027 13 23.7078 13 23.7128C13 23.7178 13 23.7229 13 23.7279C13 23.733 13 23.738 13 23.743C13 23.7481 13 23.7531 13 23.7581C13 23.7632 13 23.7682 13 23.7732C13 23.7783 13 23.7833 13 23.7883C13 23.7934 13 23.7984 13 23.8034C13 23.8085 13 23.8135 13 23.8185C13 23.8235 13 23.8286 13 23.8336C13 23.8386 13 23.8436 13 23.8487C13 23.8537 13 23.8587 13 23.8637C13 23.8687 13 23.8738 13 23.8788C13 23.8838 13 23.8888 13 23.8938C13 23.8989 13 23.9039 13 23.9089C13 23.9139 13 23.9189 13 23.9239C13 23.9289 13 23.9339 13 23.939C13 23.944 13 23.949 13 23.954C13 23.959 13 23.964 13 23.969C13 23.974 13 23.979 13 23.984C13 23.989 13 23.994 13 23.999C13 24.004 13 24.009 13 24.014C13 24.019 13 24.024 13 24.029C13 24.034 13 24.039 13 24.044C13 24.049 13 24.054 13 24.059C13 24.064 13 24.069 13 24.074C13 24.079 13 24.084 13 24.089C13 24.094 13 24.0989 13 24.1039C13 24.1089 13 24.1139 13 24.1189C13 24.1239 13 24.1289 13 24.1339C13 24.1388 13 24.1438 13 24.1488C13 24.1538 13 24.1588 13 24.1637C13 24.1687 13 24.1737 13 24.1787C13 24.1837 13 24.1886 13 24.1936C13 24.1986 13 24.2036 13 24.2086C13 24.2135 13 24.2185 13 24.2235C13 24.2285 13 24.2334 13 24.2384C13 24.2434 13 24.2483 13 24.2533C13 24.2583 13 24.2633 13 24.2682C13 24.2732 13 24.2782 13 24.2831C13 24.2881 13 24.2931 13 24.298C13 24.303 13 24.308 13 24.3129C13 24.3179 13 24.3228 13 24.3278C13 24.3328 13 24.3377 13 24.3427C13 24.3476 13 24.3526 13 24.3576C13 24.3625 13 24.3675 13 24.3724C13 24.3774 13 24.3823 13 24.3873C13 24.3923 13 24.3972 13 24.4022C13 24.4071 13 24.4121 13 24.417C13 24.422 13 24.4269 13 24.4319C13 24.4368 13 24.4418 13 24.4467C13 24.4517 13 24.4566 13 24.4616C13 24.4665 13 24.4715 13 24.4764C13 24.4813 13 24.4863 13 24.4912C13 24.4962 13 24.5011 13 24.5061C13 24.511 13 24.5159 13 24.5209C13 24.5258 13 24.5308 13 24.5357C13 24.5406 13 24.5456 13 24.5505C13 24.5555 13 24.5604 13 24.5653C13 24.5703 13 24.5752 13 24.5801C13 24.5851 13 24.59 13 24.5949C13 24.5999 13 24.6048 13 24.6097C13 24.6147 13 24.6196 13 24.6245C13 24.6295 13 24.6344 13 24.6393C13 24.6442 13 24.6492 13 24.6541C13 24.659 13 24.664 13 24.6689C13 24.6738 13 24.6787 13 24.6837C13 24.6886 13 24.6935 13 24.6984C13 24.7034 13 24.7083 13 24.7132C13 24.7181 13 24.723 13 24.728C13 24.7329 13 24.7378 13 24.7427C13 24.7476 13 24.7526 13 24.7575C13 24.7624 13 24.7673 13 24.7722C13 24.7771 13 24.7821 13 24.787C13 24.7919 13 24.7968 13 24.8017C13 24.8066 13 24.8115 13 24.8165C13 24.8214 13 24.8263 13 24.8312C13 24.8361 13 24.841 13 24.8459C13 24.8508 13 24.8557 13 24.8607C13 24.8656 13 24.8705 13 24.8754C13 24.8803 13 24.8852 13 24.8901C13 24.895 13 24.8999 13 24.9048C13 24.9097 13 24.9146 13 24.9195C13 24.9244 13 24.9293 13 24.9342C13 24.9391 13 24.944 13 24.9489C13 24.9538 13 24.9587 13 24.9636C13 24.9685 13 24.9734 13 24.9783C13 24.9832 13 24.9881 13 24.993C13 24.9979 13 25.0028 13 25.0077C13 25.0126 13 25.0175 13 25.0224C13 25.0273 13 25.0322 13 25.0371C13 25.042 13 25.0469 13 25.0518C13 25.0567 13 25.0616 13 25.0665C13 25.0714 13 25.0762 13 25.0811C13 25.086 13 25.0909 13 25.0958C13 25.1007 13 25.1056 13 25.1105C13 25.1154 13 25.1203 13 25.1251C13 25.13 13 25.1349 13 25.1398C13 25.1447 13 25.1496 13 25.1545C13 25.1594 13 25.1642 13 25.1691C13 25.174 13 25.1789 13 25.1838C13 25.1887 13 25.1936 13 25.1984C13 25.2033 13 25.2082 13 25.2131C13 25.218 13 25.2228 13 25.2277C13 25.2326 13 25.2375 13 25.2424C13 25.2473 13 25.2521 13 25.257C13 25.2619 13 25.2668 13 25.2716C13 25.2765 13 25.2814 13 25.2863C13 25.2912 13 25.296 13 25.3009C13 25.3058 13 25.3107 13 25.3155C13 25.3204 13 25.3253 13 25.3302C13 25.335 13 25.3399 13 25.3448C13 25.3497 13 25.3545 13 25.3594C13 25.3643 13 25.3692 13 25.374C13 25.3789 13 25.3838 13 25.3887C13 25.3935 13 25.3984 13 25.4033C13 25.4081 13 25.413 13 25.4179C13 25.4228 13 25.4276 13 25.4325C13 25.4374 13 25.4422 13 25.4471C13 25.452 13 25.4568 13 25.4617C13 25.4666 13 25.4714 13 25.4763C13 25.4812 13 25.486 13 25.4909C13 25.4958 13 25.5006 13 25.5055C13 25.5104 13 25.5152 13 25.5201C13 25.525 13 25.5298 13 25.5347C13 25.5396 13 25.5444 13 25.5493C13 25.5542 13 25.559 13 25.5639C13 25.5687 13 25.5736 13 25.5785C13 25.5833 13 25.5882 13 25.5931C13 25.5979 13 25.6028 13 25.6076C13 25.6125 13 25.6174 13 25.6222C13 25.6271 13 25.632 13 25.6368C13 25.6417 13 25.6465 13 25.6514C13 25.6563 13 25.6611 13 25.666C13 25.6708 13 25.6757 13 25.6805C13 25.6854 13 25.6903 13 25.6951C13 25.7 13 25.7048 13 25.7097C13 25.7146 13 25.7194 13 25.7243C13 25.7291 13 25.734 13 25.7388C13 25.7437 13 25.7486 13 25.7534C13 25.7583 13 25.7631 13 25.768C13 25.7728 13 25.7777 13 25.7825C13 25.7874 13 25.7923 13 25.7971C13 25.802 13 25.8068 13 25.8117C13 25.8165 13 25.8214 13 25.8262C13 25.8311 13 25.8359 13 25.8408C13 25.8456 13 25.8505 13 25.8554C13 25.8602 13 25.8651 13 25.8699C13 25.8748 13 25.8796 13 25.8845C13 25.8893 13 25.8942 13 25.899C13 25.9039 13 25.9087 13 25.9136C13 25.9184 13 25.9233 13 25.9281C13 25.933 13 25.9378 13 25.9427C13 25.9475 13 25.9524 13 25.9572C13 25.9621 13 25.9669 13 25.9718C13 25.9766 13 25.9815 13 25.9863C13 25.9912 13 25.996 13 26.0009C13 26.0057 13 26.0106 13 26.0154C13 26.0203 13 26.0251 13 26.03C13 26.0348 13 26.0397 13 26.0445C13 26.0494 13 26.0542 13 26.0591C13 26.0639 13 26.0688 13 26.0736C13 26.0785 13 26.0833 13 26.0882C13 26.093 13 26.0979 13 26.1027C13 26.1076 13 26.1124 13 26.1173C13 26.1221 13 26.127 13 26.1318C13 26.1367 13 26.1415 13 26.1464C13 26.1512 13 26.156 13 26.1609C13 26.1657 13 26.1706 13 26.1754C13 26.1803 13 26.1851 13 26.19C13 26.1948 13 26.1997 13 26.2045C13 26.2094 13 26.2142 13 26.2191C13 26.2239 13 26.2288 13 26.2336C13 26.2385 13 26.2433 13 26.2481C13 26.253 13 26.2578 13 26.2627C13 26.2675 13 26.2724 13 26.2772C13 26.2821 13 26.2869 13 26.2918C13 26.2966 13 26.3015 13 26.3063C13 26.3112 13 26.316 13 26.3209C13 26.3257 13 26.3306 13 26.3354C13 26.3402 13 26.3451 13 26.3499C13 26.3548 13 26.3596 13 26.3645C13 26.3693 13 26.3742 13 26.379C13 26.3839 13 26.3887 13 26.3936C13 26.3984 13 26.4033 13 26.4081C13 26.413 13 26.4178 13 26.4226C13 26.4275 13 26.4323 13 26.4372C13 26.442 13 26.4469 13 26.4517C13 26.4566 13 26.4614 13 26.4663C13 26.4711 13 26.476 13 26.4808C13 26.4857 13 26.4905 13 26.4954C13 26.5002 13 26.5051 13 26.5099C13 26.5148 13 26.5196 13 26.5245C13 26.5293 13 26.5342 13 26.539C13 26.5439 13 26.5487 13 26.5535C13 26.5584 13 26.5632 13 26.5681C13 26.5729 13 26.5778 13 26.5826C13 26.5875 13 26.5923 13 26.5972C13 26.602 13 26.6069 13 26.6117C13 26.6166 13 26.6214 13 26.6263C13 26.6311 13 26.636 13 26.6408C13 26.6457 13 26.6505 13 26.6554C13 26.6602 13 26.6651 13 26.6699C13 26.6748 13 26.6797 13 26.6845C13 26.6894 13 26.6942 13 26.6991C13 26.7039 13 26.7088 13 26.7136C13 26.7185 13 26.7233 13 26.7282C13 26.733 13 26.7379 13 26.7427C13 26.7476 13 26.7524 13 26.7573C13 26.7621 13 26.767 13 26.7718C13 26.7767 13 26.7816 13 26.7864C13 26.7913 13 26.7961 13 26.801C13 26.8058 13 26.8107 13 26.8155C13 26.8204 13 26.8252 13 26.8301C13 26.835 13 26.8398 13 26.8447C13 26.8495 13 26.8544 13 26.8592C13 26.8641 13 26.8689 13 26.8738C13 26.8787 13 26.8835 13 26.8884C13 26.8932 13 26.8981 13 26.9029C13 26.9078 13 26.9127 13 26.9175C13 26.9224 13 26.9272 13 26.9321C13 26.937 13 26.9418 13 26.9467C13 26.9515 13 26.9564 13 26.9613C13 26.9661 13 26.971 13 26.9758C13 26.9807 13 26.9856 13 26.9904C13 26.9953 13 27.0001 13 27.005C13 27.0099 13 27.0147 13 27.0196C13 27.0245 13 27.0293 13 27.0342C13 27.039 13 27.0439 13 27.0488C13 27.0536 13 27.0585 13 27.0634C13 27.0682 13 27.0731 13 27.078C13 27.0828 13 27.0877 13 27.0925C13 27.0974 13 27.1023 13 27.1071C13 27.112 13 27.1169 13 27.1217C13 27.1266 13 27.1315 13 27.1363C13 27.1412 13 27.1461 13 27.151C13 27.1558 13 27.1607 13 27.1656C13 27.1704 13 27.1753 13 27.1802C13 27.185 13 27.1899 13 27.1948C13 27.1996 13 27.2045 13 27.2094C13 27.2143 13 27.2191 13 27.224C13 27.2289 13 27.2338 13 27.2386C13 27.2435 13 27.2484 13 27.2532C13 27.2581 13 27.263 13 27.2679C13 27.2727 13 27.2776 13 27.2825C13 27.2874 13 27.2922 13 27.2971C13 27.302 13 27.3069 13 27.3118C13 27.3166 13 27.3215 13 27.3264C13 27.3313 13 27.3361 13 27.341C13 27.3459 13 27.3508 13 27.3557C13 27.3605 13 27.3654 13 27.3703C13 27.3752 13 27.3801 13 27.3849C13 27.3898 13 27.3947 13 27.3996C13 27.4045 13 27.4094 13 27.4142C13 27.4191 13 27.424 13 27.4289C13 27.4338 13 27.4387 13 27.4436C13 27.4484 13 27.4533 13 27.4582C13 27.4631 13 27.468 13 27.4729C13 27.4778 13 27.4826 13 27.4875C13 27.4924 13 27.4973 13 27.5022C13 27.5071 13 27.512 13 27.5169C13 27.5218 13 27.5267 13 27.5315C13 27.5364 13 27.5413 13 27.5462C13 27.5511 13 27.556 13 27.5609C13 27.5658 13 27.5707 13 27.5756C13 27.5805 13 27.5854 13 27.5903C13 27.5952 13 27.6001 13 27.605C13 27.6099 13 27.6148 13 27.6197H15Z" fill="#3194A0" mask="url(#path-2-inside-1_1152_122200)"/>
</g>
<path id="Vector_3" d="M35.2069 19.1892L35.2069 19.1892C36.5967 20.1884 37.5 21.8178 37.5 23.6581C37.5 25.4984 36.5967 27.1278 35.2069 28.1269L35.4988 28.5329L35.2069 28.1269C35.0483 28.2409 34.8964 28.2296 34.7659 28.1464C34.6224 28.055 34.5 27.8665 34.5 27.6197V27.605V27.5903V27.5756V27.5609V27.5462V27.5315V27.5169V27.5022V27.4875V27.4729V27.4582V27.4436V27.4289V27.4142V27.3996V27.3849V27.3703V27.3557V27.341V27.3264V27.3118V27.2971V27.2825V27.2679V27.2532V27.2386V27.224V27.2094V27.1948V27.1802V27.1656V27.151V27.1363V27.1217V27.1071V27.0925V27.078V27.0634V27.0488V27.0342V27.0196V27.005V26.9904V26.9758V26.9613V26.9467V26.9321V26.9175V26.9029V26.8884V26.8738V26.8592V26.8447V26.8301V26.8155V26.801V26.7864V26.7718V26.7573V26.7427V26.7282V26.7136V26.6991V26.6845V26.6699V26.6554V26.6408V26.6263V26.6117V26.5972V26.5826V26.5681V26.5535V26.539V26.5245V26.5099V26.4954V26.4808V26.4663V26.4517V26.4372V26.4226V26.4081V26.3936V26.379V26.3645V26.3499V26.3354V26.3209V26.3063V26.2918V26.2772V26.2627V26.2481V26.2336V26.2191V26.2045V26.19V26.1754V26.1609V26.1464V26.1318V26.1173V26.1027V26.0882V26.0736V26.0591V26.0445V26.03V26.0154V26.0009V25.9863V25.9718V25.9572V25.9427V25.9281V25.9136V25.899V25.8845V25.8699V25.8554V25.8408V25.8262V25.8117V25.7971V25.7825V25.768V25.7534V25.7388V25.7243V25.7097V25.6951V25.6805V25.666V25.6514V25.6368V25.6222V25.6076V25.5931V25.5785V25.5639V25.5493V25.5347V25.5201V25.5055V25.4909V25.4763V25.4617V25.4471V25.4325V25.4179V25.4033V25.3887V25.374V25.3594V25.3448V25.3302V25.3155V25.3009V25.2863V25.2716V25.257V25.2424V25.2277V25.2131V25.1984V25.1838V25.1691V25.1545V25.1398V25.1251V25.1105V25.0958V25.0811V25.0665V25.0518V25.0371V25.0224V25.0077V24.993V24.9783V24.9636V24.9489V24.9342V24.9195V24.9048V24.8901V24.8754V24.8607V24.8459V24.8312V24.8165V24.8017V24.787V24.7722V24.7575V24.7427V24.728V24.7132V24.6984V24.6837V24.6689V24.6541V24.6393V24.6245V24.6097V24.5949V24.5801V24.5653V24.5505V24.5357V24.5209V24.5061V24.4912V24.4764V24.4616V24.4467V24.4319V24.417V24.4022V24.3873V24.3724V24.3576V24.3427V24.3278V24.3129V24.298V24.2831V24.2682V24.2533V24.2384V24.2235V24.2086V24.1936V24.1787V24.1637V24.1488V24.1339V24.1189V24.1039V24.089V24.074V24.059V24.044V24.029V24.014V23.999V23.984V23.969V23.954V23.939V23.9239V23.9089V23.8938V23.8788V23.8637V23.8487V23.8336V23.8185V23.8034V23.7883V23.7732V23.7581V23.743V23.7279V23.7128V23.6977V23.6825V23.6674V23.6522V23.6371V23.6219V23.6067V23.5916V23.5764V23.5612V23.546V23.5308V23.5156V23.5004V23.4851V23.4699V23.4547V23.4394V23.4242V23.4089V23.3936V23.3783V23.3631V23.3478V23.3325V23.3172V23.3018V23.2865V23.2712V23.2558V23.2405V23.2251V23.2098V23.1944V23.179V23.1637V23.1483V23.1329V23.1174V23.102V23.0866V23.0712V23.0557V23.0403V23.0248V23.0093V22.9939V22.9784V22.9629V22.9474V22.9319V22.9164V22.9008V22.8853V22.8698V22.8542V22.8386V22.8231V22.8075V22.7919V22.7763V22.7607V22.7451V22.7295V22.7138V22.6982V22.6825V22.6669V22.6512V22.6355V22.6198V22.6041V22.5884V22.5727V22.557V22.5412V22.5255V22.5097V22.494V22.4782V22.4624V22.4466V22.4308V22.415V22.3992V22.3833V22.3675V22.3516V22.3358V22.3199V22.304V22.2881V22.2722V22.2563V22.2404V22.2245V22.2085V22.1926V22.1766V22.1606V22.1446V22.1286V22.1126V22.0966V22.0806V22.0645V22.0485V22.0324V22.0164V22.0003V21.9842V21.9681V21.952V21.9359V21.9197V21.9036V21.8874V21.8712V21.8551V21.8389V21.8227V21.8065V21.7902V21.774V21.7577V21.7415V21.7252V21.7089V21.6926V21.6763V21.66V21.6437V21.6274V21.611V21.5946V21.5783V21.5619V21.5455V21.5291V21.5126V21.4962V21.4798V21.4633V21.4468V21.4304V21.4139V21.3974V21.3808V21.3643V21.3478V21.3312V21.3146V21.2981V21.2815V21.2649V21.2482V21.2316V21.215V21.1983V21.1816V21.165V21.1483V21.1316V21.1148V21.0981V21.0814V21.0646V21.0478V21.031V21.0142V20.9974V20.9806V20.9638V20.9469V20.9301V20.9132V20.8963V20.8794V20.8625V20.8455V20.8286V20.8116V20.7947V20.7777V20.7607V20.7437V20.7267V20.7096V20.6926V20.6755V20.6584V20.6413V20.6242V20.6071V20.59V20.5728V20.5556V20.5385V20.5213V20.5041V20.4868V20.4696V20.4524V20.4351V20.4178V20.4005V20.3832V20.3659V20.3486V20.3312V20.3139V20.2965V20.2791V20.2617V20.2442V20.2268V20.2094V20.1919V20.1744V20.1569V20.1394V20.1219V20.1043V20.0868V20.0692V20.0516V20.034V20.0164V19.9987V19.9811V19.9634V19.9457V19.928V19.9103V19.8926V19.8749V19.8571V19.8393V19.8215V19.8037V19.7859V19.7681V19.7502V19.7324V19.7145V19.6966C34.5 19.4497 34.6224 19.2612 34.766 19.1697C34.8964 19.0865 35.0483 19.0751 35.2069 19.1892ZM35.4987 18.7834L35.4988 18.7832L35.4987 18.7834Z" fill="#3194A0" stroke="#3194A0"/>
</g>
</svg>
