<svg width="32" height="33" viewBox="0 0 32 33" fill="none" xmlns="http://www.w3.org/2000/svg">
<g id="icon / iconoir / chat-bubble">
<path id="Vector" d="M22.6667 17.1986C23.0348 17.1986 23.3333 16.9 23.3333 16.5319C23.3333 16.1638 23.0348 15.8652 22.6667 15.8652C22.2985 15.8652 22 16.1638 22 16.5319C22 16.9 22.2985 17.1986 22.6667 17.1986Z" stroke="#3194A0" stroke-width="1.5" stroke-linecap="round" stroke-linejoin="round"/>
<path id="Vector_2" d="M16.0026 17.1986C16.3707 17.1986 16.6693 16.9 16.6693 16.5319C16.6693 16.1638 16.3707 15.8652 16.0026 15.8652C15.6345 15.8652 15.3359 16.1638 15.3359 16.5319C15.3359 16.9 15.6345 17.1986 16.0026 17.1986Z" fill="#3194A0" stroke="#3194A0" stroke-width="1.5" stroke-linecap="round" stroke-linejoin="round"/>
<path id="Vector_3" d="M9.33073 17.1986C9.69892 17.1986 9.9974 16.9 9.9974 16.5319C9.9974 16.1638 9.69892 15.8652 9.33073 15.8652C8.96254 15.8652 8.66406 16.1638 8.66406 16.5319C8.66406 16.9 8.96254 17.1986 9.33073 17.1986Z" fill="#3194A0" stroke="#3194A0" stroke-width="1.5" stroke-linecap="round" stroke-linejoin="round"/>
<path id="Vector_4" d="M15.9974 29.8639C23.3611 29.8639 29.3307 23.8943 29.3307 16.5306C29.3307 9.1668 23.3611 3.19727 15.9974 3.19727C8.6336 3.19727 2.66406 9.1668 2.66406 16.5306C2.66406 18.9591 3.31336 21.2361 4.44782 23.1973L3.33073 29.1973L9.33073 28.0802C11.2919 29.2146 13.5689 29.8639 15.9974 29.8639Z" stroke="#3194A0" stroke-width="1.5" stroke-linecap="round" stroke-linejoin="round"/>
</g>
</svg>
