<svg width="48" height="49" viewBox="0 0 48 49" fill="none" xmlns="http://www.w3.org/2000/svg">
<g id="icon / iconoir / cloud-sync">
<path id="Vector" d="M40 35.7458C42.9874 34.5754 46 31.909 46 26.5312C46 18.5312 39.3334 16.5312 36 16.5312C36 12.5312 36 4.53125 24 4.53125C12 4.53125 12 12.5312 12 16.5312C8.66666 16.5312 2 18.5312 2 26.5312C2 31.909 5.01256 34.5754 8 35.7458" stroke="#3194A0" stroke-width="1.5" stroke-linecap="round" stroke-linejoin="round"/>
<path id="Vector_2" d="M15.1641 39.5059L18.6996 43.0415C21.8239 46.1657 26.8891 46.1657 30.0133 43.0415L30.7205 42.3343" stroke="#3194A0" stroke-width="1.5" stroke-linecap="round" stroke-linejoin="round"/>
<path id="Vector_3" d="M15.8712 44.4557L15.1641 39.5059L20.1137 40.2131L15.8712 44.4557Z" stroke="#3194A0" stroke-width="1.5" stroke-linecap="round" stroke-linejoin="round"/>
<path id="Vector_4" d="M32.5955 34.3336L29.0599 30.7982C25.9357 27.674 20.8703 27.674 17.7462 30.7982L17.0391 31.5052" stroke="#3194A0" stroke-width="1.5" stroke-linecap="round" stroke-linejoin="round"/>
<path id="Vector_5" d="M31.891 29.3848L32.5982 34.3346L27.6484 33.6274L31.891 29.3848Z" stroke="#3194A0" stroke-width="1.5" stroke-linecap="round" stroke-linejoin="round"/>
</g>
</svg>
