<?xml version="1.0" encoding="utf-8"?>
<!-- Generator: Adobe Illustrator 28.1.0, SVG Export Plug-In . SVG Version: 6.00 Build 0)  -->
<svg version="1.1" xmlns="http://www.w3.org/2000/svg" xmlns:xlink="http://www.w3.org/1999/xlink" x="0px" y="0px"
	 viewBox="0 0 308.35 270.78" style="enable-background:new 0 0 308.35 270.78;" xml:space="preserve">
<style type="text/css">
	.st0{fill:#94A3B8;}
	.st1{fill:#0059A2;}
	.st2{fill:#FFFFFF;}
	.st3{display:none;}
	.st4{display:inline;fill:#0058A3;}
</style>
<g id="Layer_2">
	<path class="st0" d="M49.16,256.36c-5.81,0-10.5-4.6-10.5-10.23V24.74c0-5.64,4.69-10.3,10.5-10.3h214.66
		c5.81,0,10.5,4.65,10.5,10.3v221.4c0,5.64-4.69,10.23-10.5,10.23H49.16"/>
	<path class="st1" d="M55.66,188.48c0,17.79,13.64,29.67,31.53,29.67c17.93,0,31.85-12.65,31.85-31.65
		c0-17.57-14.3-28.47-32.3-28.47C69.18,158.04,55.66,171.35,55.66,188.48"/>
	<path class="st0" d="M67.45,185.63c0-11.11,4.35-23.98,19.12-23.98c14.03,0,20.67,14.62,20.67,26.66c0,12.1-2.91,26.17-19.23,26.17
		C74.32,214.48,67.45,200.42,67.45,185.63"/>
</g>
<g id="Layer_1">
	<g>
		<g>
			<path class="st1" d="M191.99,172.55l20.4,45.61h2.08l21.46-46.48h0.16l2.36,34.82c0.11,2.13,0.11,3.06,0.11,4.05
				c0,3.61-2.85,3.61-7.26,3.88v2.47c4.64-0.16,9.27-0.33,13.91-0.33c4.09,0,8.17,0.17,12.14,0.33v-2.47
				c-5.04-0.16-7.16-0.49-7.5-4.6L246.66,172c-0.16-1.81-0.51-4.32-0.46-6.46c0.18-3.62,5.31-3.78,7.83-3.78h0.78v-2.52
				c-2.96,0-5.97,0.33-8.95,0.33c-3.01,0-6.04-0.33-8.6-0.33l-19.95,43.2l-19.74-43.2c-2.52,0-5.09,0.33-7.6,0.33
				c-3.47,0-6.83-0.33-10.29-0.33v2.52h1.13c3.69,0,7.31,1.53,7.31,6.19c0,3.28-0.33,8.64-1,14.5l-2.52,23
				c-0.77,5.91-1.06,8.7-7.65,8.97h-1.23v2.47c3.3-0.16,6.65-0.33,9.95-0.33c3.8,0,7.65,0.17,11.47,0.33v-2.47h-1.02
				c-2.34-0.05-4.13-0.16-5.37-0.93c-1.11-0.71-1.79-2.03-1.79-4.71l2.86-36.24H191.99"/>
			<path class="st1" d="M131.56,201.89c0.4,4.21,1.01,8.32,1.4,12.53c4.13,2.09,8.71,3.73,13.42,3.73
				c10.79,0,20.39-5.97,20.39-17.36c0-19.82-25.27-15.66-25.27-29.4c0-6.52,3.69-10.4,10.35-10.4c5.81,0,9.39,5.15,9.94,10.51
				l2.35-0.44c-0.51-3.94-0.84-7.94-0.84-11.83c-2.58-0.33-9.78-1.2-12.12-1.2c-10.85,0-18.62,6.36-18.62,17.08
				c0,19.87,24.76,15.39,24.76,30c0,5.86-4.64,9.36-10.33,9.36c-8.05,0-12.07-6.08-13.07-13.08L131.56,201.89"/>
			<polyline class="st1" points="130.9,131.21 156.44,101.49 182.04,131.11 156.33,44.93 130.9,131.21 			"/>
			<path class="st2" d="M55.65,188.56c0-17.13,13.53-30.44,31.07-30.44c18,0,32.3,10.9,32.3,28.47c0,19-13.92,31.65-31.85,31.65
				C69.29,218.23,55.65,206.35,55.65,188.56 M67.44,185.7c0,14.79,6.87,28.86,20.56,28.86c16.32,0,19.23-14.07,19.23-26.17
				c0-12.04-6.65-26.66-20.67-26.66C71.79,161.73,67.44,174.6,67.44,185.7"/>
			<path class="st2" d="M132.95,214.5c-0.4-4.21-1.01-8.32-1.4-12.53l2.36-0.49c1,7,5.02,13.08,13.07,13.08
				c5.7,0,10.33-3.51,10.33-9.36c0-14.61-24.76-10.13-24.76-30c0-10.73,7.78-17.08,18.62-17.08c2.34,0,9.55,0.88,12.12,1.2
				c0,3.89,0.33,7.88,0.84,11.83l-2.35,0.44c-0.55-5.36-4.13-10.51-9.94-10.51c-6.66,0-10.35,3.89-10.35,10.4
				c0,13.74,25.26,9.58,25.26,29.4c0,11.38-9.6,17.35-20.39,17.35C141.67,218.23,137.08,216.59,132.95,214.5"/>
			<path class="st2" d="M212.38,218.23l-20.4-45.61h-0.17l-2.86,36.24c0,2.68,0.67,3.99,1.79,4.71c1.24,0.76,3.03,0.88,5.37,0.93
				h1.02v2.46c-3.82-0.16-7.67-0.33-11.47-0.33c-3.3,0-6.65,0.17-9.95,0.33v-2.46h1.23c6.59-0.27,6.88-3.07,7.65-8.98l2.52-23
				c0.68-5.86,1.01-11.22,1.01-14.5c0-4.66-3.62-6.19-7.31-6.19h-1.13v-2.52c3.47,0,6.82,0.33,10.29,0.33c2.51,0,5.08-0.33,7.6-0.33
				l19.74,43.2l19.95-43.2c2.56,0,5.59,0.33,8.6,0.33c2.98,0,5.99-0.33,8.95-0.33v2.52h-0.78c-2.52,0-7.65,0.16-7.83,3.78
				c-0.05,2.13,0.29,4.65,0.46,6.46l3.18,37.83c0.35,4.11,2.46,4.43,7.5,4.6v2.46c-3.98-0.16-8.05-0.33-12.14-0.33
				c-4.64,0-9.27,0.17-13.91,0.33v-2.46c4.42-0.27,7.26-0.27,7.26-3.89c0-0.99,0-1.92-0.11-4.05l-2.36-34.82h-0.16l-21.46,46.48
				H212.38"/>
			<polygon class="st2" points="156.32,45.01 182.03,131.18 156.43,101.56 130.89,131.29 			"/>
		</g>
		<g class="st3">
			<path class="st4" d="M43.52,283.15h3.78l7.12,17.05l7.44-17.05h3.78l4.51,26.83h-5.31l-2.41-16.53l-7.2,16.53h-1.77l-6.88-16.53
				l-2.73,16.53h-5.31L43.52,283.15z"/>
			<path class="st4" d="M98.98,304.35H88.16l-2.37,5.63h-5.67l11.54-26.83h4.1l11.22,26.83h-5.63L98.98,304.35z M97.45,300.08
				l-3.82-9.65l-3.82,9.65H97.45z"/>
			<path class="st4" d="M126.12,283.15c3.7,0,5.59,0.96,6.84,2.01c2.05,1.73,2.65,4.02,2.65,6.03c0,2.61-1.05,4.91-3.14,6.32
				c-0.68,0.48-1.65,0.92-2.94,1.17l8.37,11.3h-6.52l-7.16-10.78h-0.64v10.78h-5.23v-26.83H126.12z M123.59,295.5h1.49
				c1,0,5.15-0.12,5.15-4.06c0-3.98-4.1-4.02-5.07-4.02h-1.57V295.5z"/>
			<path class="st4" d="M154.92,283.15v26.83h-5.23v-26.83H154.92z"/>
			<path class="st4" d="M177.72,287.66v22.32h-5.23v-22.32h-6.03v-4.51h17.29v4.51H177.72z"/>
			<path class="st4" d="M200.52,283.15v26.83h-5.23v-26.83H200.52z"/>
			<path class="st4" d="M218.5,283.15h3.78l7.12,17.05l7.44-17.05h3.78l4.51,26.83h-5.31l-2.41-16.53l-7.2,16.53h-1.77l-6.88-16.53
				l-2.73,16.53h-5.31L218.5,283.15z"/>
			<path class="st4" d="M272.95,287.66h-9.65v5.99h9.25v4.51h-9.25v7.32h9.65v4.51h-14.88v-26.83h14.88V287.66z"/>
		</g>
	</g>
	<g>
		<g>
			<path class="st2" d="M349.09,172.85c3.22,0,3.22-5,0-5C345.87,167.85,345.86,172.85,349.09,172.85L349.09,172.85z"/>
		</g>
	</g>
</g>
</svg>
