<svg width="79" height="78" viewBox="0 0 79 78" fill="none" xmlns="http://www.w3.org/2000/svg">
<g id="Frame" clip-path="url(#clip0_1267_88685)">
<g id="Group">
<g id="Group_2">
<path id="Vector" fill-rule="evenodd" clip-rule="evenodd" d="M39.5 0C17.9891 0 0.5 17.4891 0.5 39C0.5 60.5109 17.9891 78 39.5 78C61.0109 78 78.5 60.5109 78.5 39C78.5 17.4891 61.0109 0 39.5 0Z" fill="#3194A0"/>
<path id="Vector_2" fill-rule="evenodd" clip-rule="evenodd" d="M58.3584 25.8526C59.3029 26.7972 59.3029 28.3511 58.3584 29.2956L35.5068 52.1472C35.0346 52.6194 34.41 52.8632 33.7854 52.8632C33.1607 52.8632 32.5361 52.6194 32.0639 52.1472L20.6381 40.7214C19.6936 39.7769 19.6936 38.2229 20.6381 37.2784C21.5826 36.3339 23.1365 36.3339 24.0811 37.2784L33.7854 46.9827L54.9154 25.8526C55.86 24.8929 57.4139 24.8929 58.3584 25.8526Z" fill="white"/>
</g>
</g>
</g>
<defs>
<clipPath id="clip0_1267_88685">
<rect width="78" height="78" fill="white" transform="translate(0.5)"/>
</clipPath>
</defs>
</svg>
