<svg width="20" height="20" viewBox="0 0 20 20" fill="none" xmlns="http://www.w3.org/2000/svg">
<g id="vuesax/bold/document">
<g id="document">
<path id="Vector" d="M17.0859 8.4915H14.6776C12.7026 8.4915 11.0943 6.88317 11.0943 4.90817V2.49984C11.0943 2.0415 10.7193 1.6665 10.2609 1.6665H6.7276C4.16094 1.6665 2.08594 3.33317 2.08594 6.30817V13.6915C2.08594 16.6665 4.16094 18.3332 6.7276 18.3332H13.2776C15.8443 18.3332 17.9193 16.6665 17.9193 13.6915V9.32484C17.9193 8.8665 17.5443 8.4915 17.0859 8.4915Z" fill="#3194A0"/>
<path id="Vector_2" d="M13.1677 1.84158C12.826 1.49991 12.2344 1.73325 12.2344 2.20825V5.11658C12.2344 6.33325 13.2677 7.34158 14.526 7.34158C15.3177 7.34991 16.4177 7.34991 17.3594 7.34991C17.8344 7.34991 18.0844 6.79158 17.751 6.45825C16.551 5.24991 14.401 3.07491 13.1677 1.84158Z" fill="#3194A0"/>
</g>
</g>
</svg>
