<svg width="16" height="16" viewBox="0 0 16 16" fill="none" xmlns="http://www.w3.org/2000/svg">
<path d="M7.99995 10.8866C6.40661 10.8866 5.11328 9.59328 5.11328 7.99995C5.11328 6.40661 6.40661 5.11328 7.99995 5.11328C9.59328 5.11328 10.8866 6.40661 10.8866 7.99995C10.8866 9.59328 9.59328 10.8866 7.99995 10.8866ZM7.99995 6.11328C6.95995 6.11328 6.11328 6.95995 6.11328 7.99995C6.11328 9.03995 6.95995 9.88661 7.99995 9.88661C9.03995 9.88661 9.88661 9.03995 9.88661 7.99995C9.88661 6.95995 9.03995 6.11328 7.99995 6.11328Z" fill="white"/>
<path d="M7.99875 14.013C5.49208 14.013 3.12542 12.5463 1.49875 9.99966C0.792083 8.89966 0.792083 7.10633 1.49875 5.99966C3.13208 3.45299 5.49875 1.98633 7.99875 1.98633C10.4988 1.98633 12.8654 3.45299 14.4921 5.99966C15.1988 7.09966 15.1988 8.893 14.4921 9.99966C12.8654 12.5463 10.4988 14.013 7.99875 14.013ZM7.99875 2.98633C5.84542 2.98633 3.78542 4.27966 2.34542 6.53966C1.84542 7.31966 1.84542 8.67966 2.34542 9.45966C3.78542 11.7197 5.84542 13.013 7.99875 13.013C10.1521 13.013 12.2121 11.7197 13.6521 9.45966C14.1521 8.67966 14.1521 7.31966 13.6521 6.53966C12.2121 4.27966 10.1521 2.98633 7.99875 2.98633Z" fill="white"/>
</svg>
