<svg width="32" height="32" viewBox="0 0 32 32" fill="none" xmlns="http://www.w3.org/2000/svg">
<g id="Frame" clip-path="url(#clip0_1390_190582)">
<g id="Group">
<path id="Vector" d="M32 16C32 24.8366 24.8366 32 16 32C7.16344 32 0 24.8366 0 16C0 7.16344 7.16344 0 16 0C24.8366 0 32 7.16344 32 16Z" fill="#51489A"/>
<path id="Vector_2" d="M16 1.33984C20.0691 1.33984 24.0285 1.80947 27.8271 2.69734C28.1049 4.21191 28.25 5.77284 28.25 7.36778C28.25 16.6346 23.3502 24.7569 16 29.2855C8.64981 24.7569 3.75 16.6345 3.75 7.36778C3.75 5.77291 3.89512 4.21191 4.17294 2.69734C7.9715 1.80947 11.9309 1.33984 16 1.33984Z" fill="#FF9100"/>
<path id="Vector_3" d="M27.8271 2.69734C28.1048 4.21191 28.25 5.77284 28.25 7.36778C28.25 14.7247 25.1617 21.3603 20.2108 26.049C16.6472 22.312 14.375 16.6503 14.375 10.3127C14.375 7.09266 14.9616 4.04716 16.0061 1.33984C20.073 1.34034 24.0304 1.80991 27.8271 2.69734Z" fill="#FFB52D"/>
<path id="Vector_4" d="M28.4417 2.58459L28.3679 2.18197L27.9692 2.08878C24.0691 1.17709 20.0421 0.714844 16 0.714844C11.958 0.714844 7.93094 1.17709 4.03069 2.08872L3.63206 2.18191L3.55819 2.58453C3.27075 4.15172 3.125 5.76103 3.125 7.36778C3.125 11.9478 4.31831 16.4588 6.57594 20.4133C8.76519 24.2481 11.9106 27.5 15.6722 29.8176L16.0001 30.0196L16.3279 29.8176C20.0895 27.5 23.2349 24.2481 25.4241 20.4133C27.6817 16.4588 28.875 11.9478 28.875 7.36778C28.875 5.76097 28.7292 4.15166 28.4417 2.58459ZM16 28.548C8.71338 23.907 4.375 16.0183 4.375 7.36778C4.375 5.97416 4.49 4.57878 4.71712 3.21372C8.39869 2.38491 12.1924 1.96484 16 1.96484C19.8076 1.96484 23.6014 2.38491 27.2829 3.21372C27.5107 4.58667 27.6251 5.97605 27.625 7.36778C27.625 16.0183 23.2867 23.907 16 28.548Z" fill="#FFCD71"/>
<path id="Vector_5" d="M8.1875 12.125C8.1875 7.7716 11.7483 4.24985 16.1162 4.31335C20.3356 4.37466 23.7705 7.82653 23.8121 12.0462C23.834 14.2729 22.9243 16.2873 21.4489 17.7236C21.2726 17.8951 21.0589 18.0233 20.8246 18.098C20.5903 18.1727 20.3419 18.1919 20.0989 18.1541C18.7983 17.9521 17.4228 17.8437 16 17.8437C14.5851 17.8437 13.217 17.9508 11.9228 18.1507C11.4206 18.2283 10.908 18.0718 10.5443 17.717C9.09025 16.2982 8.1875 14.317 8.1875 12.125Z" fill="#FFD993"/>
<path id="Vector_6" d="M15.9988 15.4731C18.1275 15.4731 20.0573 16.3245 21.4664 17.7053C20.0573 19.0861 18.1274 19.9375 15.9988 19.9375C13.8701 19.9375 11.9403 19.0861 10.5312 17.7053C11.9403 16.3245 13.8701 15.4731 15.9988 15.4731Z" fill="#FFCD71"/>
<path id="Vector_7" d="M9.21875 14.9664H8.78125V8.48486H9.21875V14.9664Z" fill="#453D83"/>
<path id="Vector_8" d="M10.22 18.2989C9.82306 18.3667 9.41275 18.4023 8.99281 18.4023C8.57288 18.4023 8.1625 18.3667 7.76562 18.2989L8.43563 15.0827C8.37628 14.9994 8.34446 14.8996 8.34462 14.7972V14.4553C8.34462 14.3244 8.39661 14.1989 8.48913 14.1064C8.58166 14.0139 8.70715 13.9619 8.838 13.9619H9.14756C9.27841 13.9619 9.40391 14.0139 9.49643 14.1064C9.58896 14.1989 9.64094 14.3244 9.64094 14.4553V14.7972C9.6411 14.8996 9.60929 14.9994 9.54994 15.0827L10.22 18.2989Z" fill="#51489A"/>
<path id="Vector_9" d="M9.74463 14.6199C9.74463 15.0326 9.41 15.3672 8.99731 15.3672C8.58456 15.3672 8.25 15.0326 8.25 14.6199C8.25 14.2072 8.58463 13.8726 8.99731 13.8726C9.41006 13.8726 9.74463 14.2071 9.74463 14.6199Z" fill="#5F55AF"/>
<path id="Vector_10" d="M20.3209 16.049C20.2987 16.1552 20.2503 16.2542 20.18 16.3369C20.1097 16.4195 20.0197 16.4833 19.9184 16.5222C18.7281 16.9803 17.4098 17.2348 16.0229 17.2348C14.6359 17.2348 13.3177 16.9803 12.1273 16.5222C12.026 16.4833 11.9361 16.4196 11.8658 16.3369C11.7955 16.2542 11.747 16.1552 11.7249 16.049L10.3516 9.45703H21.6942L20.3209 16.049Z" fill="#51489A"/>
<path id="Vector_11" d="M15.2445 17.208C14.1424 17.1314 13.0928 16.8938 12.1273 16.5222C12.026 16.4833 11.9361 16.4196 11.8658 16.3369C11.7955 16.2542 11.747 16.1552 11.7249 16.049L10.3516 9.45703H14.2738C14.2299 9.98523 14.208 10.515 14.2081 11.045C14.2081 13.225 14.5762 15.3055 15.2445 17.208Z" fill="#453D83"/>
<path id="Vector_12" d="M24.1341 8.82427L16.7638 11.8759C16.2875 12.0731 15.7524 12.0731 15.2761 11.8759L7.90569 8.82427C7.71894 8.74695 7.71894 8.48239 7.90569 8.40508L15.2761 5.35345C15.7524 5.15627 16.2875 5.15627 16.7638 5.35345L24.1341 8.40508C24.3209 8.48239 24.3209 8.74695 24.1341 8.82427Z" fill="#5F55AF"/>
<path id="Vector_13" d="M24.1342 8.82427L19.7319 10.647C16.1448 10.2682 13.4922 8.92145 13.4922 7.3182C13.4922 6.72239 13.8586 6.16195 14.5031 5.67352L15.2762 5.35345C15.7525 5.15627 16.2876 5.15627 16.7639 5.35345L24.1342 8.40508C24.321 8.48239 24.321 8.74695 24.1342 8.82427Z" fill="#6A61B4"/>
<path id="Vector_14" d="M22.9244 7.71955L22.3201 8.00086C22.3016 8.00948 22.2856 8.02248 22.2732 8.03873L21.8709 8.57011C21.8141 8.64523 21.6977 8.6328 21.6579 8.54742L21.3766 7.94317C21.368 7.92469 21.355 7.9086 21.3388 7.8963L20.8074 7.49398C20.7322 7.43711 20.7447 7.3208 20.8301 7.28098L21.4343 6.99967C21.4528 6.99105 21.4689 6.97805 21.4812 6.9618L21.8835 6.43042C21.9404 6.3553 22.0567 6.36773 22.0965 6.45311L22.3778 7.05736C22.3864 7.07586 22.3994 7.09192 22.4157 7.10423L22.9471 7.50655C23.0222 7.56342 23.0098 7.67973 22.9244 7.71955Z" fill="#FFE7C0"/>
<path id="Vector_15" d="M22.0172 2.07409L23.1176 1.75178C23.2124 1.72403 23.3004 1.81203 23.2727 1.9069L22.9504 3.00728C22.9436 3.03021 22.9436 3.0546 22.9504 3.07753L23.2727 4.1779C23.3004 4.27271 23.2124 4.36078 23.1176 4.33303L22.0172 4.01071C21.9943 4.00396 21.9699 4.00396 21.9469 4.01071L20.8466 4.33303C20.7517 4.36078 20.6637 4.27278 20.6914 4.1779L21.0137 3.07753C21.0204 3.05459 21.0204 3.03022 21.0137 3.00728L20.6914 1.9069C20.6637 1.81209 20.7517 1.72403 20.8466 1.75178L21.9469 2.07409C21.9699 2.08078 21.9942 2.08078 22.0172 2.07409ZM13.7585 18.3052L13.3562 18.8366C13.3439 18.8528 13.3278 18.8658 13.3093 18.8745L12.7051 19.1558C12.6197 19.1955 12.6072 19.3119 12.6824 19.3688L13.2137 19.7711C13.23 19.7834 13.243 19.7995 13.2516 19.818L13.5329 20.4222C13.5727 20.5076 13.6891 20.52 13.7459 20.4449L14.1482 19.9135C14.1606 19.8973 14.1767 19.8843 14.1951 19.8757L14.7994 19.5943C14.8848 19.5546 14.8972 19.4382 14.8221 19.3813L14.2907 18.979C14.2744 18.9667 14.2614 18.9506 14.2528 18.9322L13.9715 18.3279C13.9317 18.2425 13.8154 18.2301 13.7585 18.3052Z" fill="white"/>
<path id="Vector_16" d="M28.6842 22.1894C28.6299 22.9015 28.0037 23.8115 27.0174 24.5031C26.1347 25.122 25.1857 25.4101 24.5029 25.3264C24.3038 25.5694 24.0969 25.8058 23.8824 26.0353C23.3965 26.5558 22.8729 27.0398 22.316 27.4836C23.4527 27.2902 24.4881 27.4761 25.019 27.9171C24.6781 28.5447 23.7344 29.1189 22.5514 29.3464C21.4722 29.5539 20.4709 29.4196 19.8864 29.048C19.162 29.4172 18.4076 29.7247 17.6314 29.9671C17.8042 29.9812 17.978 29.9923 18.1526 30.0002C18.1936 30.0021 18.2339 30.012 18.271 30.0294C18.3082 30.0468 18.3416 30.0714 18.3692 30.1017C18.3969 30.132 18.4184 30.1674 18.4323 30.206C18.4463 30.2446 18.4525 30.2855 18.4507 30.3265C18.4488 30.3675 18.4389 30.4078 18.4215 30.4449C18.4041 30.4821 18.3796 30.5155 18.3493 30.5432C18.319 30.5708 18.2835 30.5923 18.2449 30.6062C18.2063 30.6202 18.1654 30.6265 18.1244 30.6246C17.4107 30.5926 16.7002 30.5096 15.9984 30.3761C15.2965 30.5095 14.5861 30.5925 13.8724 30.6246C13.8314 30.6265 13.7904 30.6202 13.7518 30.6062C13.7132 30.5923 13.6778 30.5708 13.6475 30.5432C13.6172 30.5155 13.5926 30.4821 13.5752 30.4449C13.5578 30.4078 13.5479 30.3675 13.5461 30.3265C13.5442 30.2855 13.5504 30.2446 13.5644 30.206C13.5784 30.1674 13.5998 30.132 13.6275 30.1017C13.6552 30.0714 13.6886 30.0468 13.7257 30.0294C13.7629 30.012 13.8031 30.0021 13.8441 30.0002C14.0188 29.9924 14.1925 29.9813 14.3653 29.9671C13.5891 29.7247 12.8348 29.4172 12.1103 29.048C11.5259 29.4196 10.5245 29.5539 9.44531 29.3464C8.26244 29.1189 7.31869 28.5446 6.97775 27.9171C7.50869 27.4761 8.54406 27.2902 9.68075 27.4836C9.12383 27.0399 8.60027 26.5558 8.11431 26.0353C7.89987 25.8058 7.69293 25.5694 7.49381 25.3264C6.81106 25.4101 5.86206 25.122 4.97937 24.5031C3.99306 23.8116 3.36688 22.9015 3.3125 22.1894C3.95425 22.0107 4.92756 22.241 5.856 22.8341C4.7585 20.6997 4.23125 18.3147 4.34219 15.8619C4.34593 15.7791 4.38242 15.7011 4.44361 15.6452C4.47391 15.6176 4.50937 15.5961 4.54796 15.5822C4.58654 15.5682 4.6275 15.5619 4.6685 15.5638C4.7095 15.5657 4.74973 15.5756 4.78689 15.593C4.82406 15.6104 4.85744 15.6349 4.88511 15.6652C4.91279 15.6955 4.93423 15.731 4.9482 15.7696C4.96218 15.8082 4.96842 15.8491 4.96656 15.8901C4.83012 18.9065 5.72237 21.7409 7.33887 24.0675C7.24056 23.68 7.18625 23.2452 7.18813 22.786C7.19306 21.5815 7.58294 20.5479 8.13669 20.0969C8.68669 20.5524 9.06806 21.5892 9.06313 22.7937C9.05875 23.8559 8.75512 24.7852 8.30375 25.2992C9.22398 26.3444 10.2965 27.2449 11.4851 27.9704C11.1496 27.6014 10.842 27.1161 10.609 26.5531C10.1484 25.44 10.109 24.336 10.4456 23.7062C11.1289 23.9141 11.881 24.7232 12.3416 25.8362C12.7743 26.8822 12.8353 27.9201 12.5618 28.5641C13.6513 29.1034 14.8067 29.4978 15.9986 29.7371C17.1904 29.4977 18.3459 29.1034 19.4354 28.5641C19.1618 27.9201 19.2228 26.8822 19.6556 25.8362C20.1161 24.7232 20.8682 23.914 21.5515 23.7062C21.8881 24.3361 21.8487 25.4401 21.3881 26.5531C21.1552 27.1161 20.8476 27.6014 20.5121 27.9704C21.7006 27.2448 22.7731 26.3443 23.6934 25.2992C23.242 24.7852 22.9383 23.8559 22.934 22.7937C22.9291 21.5892 23.3104 20.5524 23.8604 20.0969C24.4141 20.5479 24.804 21.5815 24.809 22.786C24.8109 23.2452 24.7566 23.68 24.6583 24.0675C26.2748 21.7409 27.1669 18.9065 27.0306 15.8901C27.0268 15.8073 27.0561 15.7264 27.112 15.6652C27.1679 15.604 27.2458 15.5675 27.3286 15.5638C27.4114 15.5601 27.4923 15.5893 27.5535 15.6452C27.6147 15.7011 27.6512 15.7791 27.6549 15.8619C27.7659 18.3147 27.2386 20.6997 26.141 22.8341C27.0692 22.241 28.0425 22.0107 28.6842 22.1894Z" fill="#9BCF1B"/>
<path id="Vector_17" d="M5.69012 20.838C5.90748 21.46 6.17068 22.065 6.47756 22.6481C6.5675 22.8191 6.48681 23.0298 6.30531 23.0958C6.15499 23.1504 5.98812 23.0847 5.91374 22.9431C5.5712 22.2915 5.28132 21.6135 5.04687 20.9157C4.39256 20.7571 3.62356 20.2176 2.99806 19.4131C2.25875 18.4621 1.92781 17.4081 2.08531 16.7115C2.78443 16.7303 3.70031 17.2875 4.43231 18.2038C4.33785 17.4311 4.30787 16.6519 4.34268 15.8743C4.34987 15.7116 4.47662 15.5718 4.63925 15.564C4.68277 15.5617 4.72629 15.5686 4.767 15.5842C4.80771 15.5998 4.84471 15.6237 4.87563 15.6544C4.90655 15.6851 4.9307 15.722 4.94653 15.7626C4.96236 15.8032 4.96952 15.8467 4.96756 15.8902C4.92167 16.8934 4.99037 17.8986 5.17231 18.8863C5.22133 18.6345 5.28818 18.3866 5.37237 18.1443C5.76656 17.0061 6.46968 16.1541 7.13949 15.9063C7.51262 16.5153 7.53831 17.6196 7.14412 18.7579C6.81112 19.7193 6.25768 20.4766 5.69012 20.838ZM24.8547 18.7578C24.4606 17.6196 24.4862 16.5151 24.8594 15.9063C25.5292 16.154 26.2324 17.0061 26.6265 18.1443C26.7107 18.3865 26.7775 18.6345 26.8266 18.8862C27.0085 17.8985 27.0772 16.8934 27.0313 15.8901C27.0293 15.8466 27.0365 15.8031 27.0523 15.7625C27.0682 15.7219 27.0923 15.6851 27.1232 15.6543C27.1542 15.6236 27.1912 15.5997 27.2319 15.5841C27.2726 15.5685 27.3161 15.5616 27.3596 15.5639C27.5223 15.5718 27.649 15.7115 27.6562 15.8742C27.691 16.6519 27.661 17.4311 27.5666 18.2038C28.2986 17.2875 29.2144 16.7303 29.9136 16.7115C30.0711 17.408 29.7401 18.462 29.0008 19.413C28.3753 20.2176 27.6063 20.757 26.952 20.9156C26.7175 21.6135 26.4276 22.2914 26.0851 22.9431C26.0107 23.0846 25.8439 23.1503 25.6936 23.0957C25.5121 23.0297 25.4314 22.819 25.5213 22.6481C25.8282 22.065 26.0914 21.4599 26.3087 20.8379C25.7412 20.4766 25.1877 19.7193 24.8547 18.7578Z" fill="#B9E746"/>
<path id="Vector_18" d="M5.66786 14.9207C5.6323 15.7075 5.43523 16.4146 5.14323 16.9294C4.91605 17.3299 4.32598 17.3033 4.13592 16.8838C3.89161 16.3447 3.75917 15.6228 3.79479 14.8359C3.84923 13.6326 4.28123 12.6159 4.85298 12.188C5.38379 12.6657 5.72223 13.7173 5.66786 14.9207ZM27.1474 12.188C27.7191 12.6159 28.1512 13.6326 28.2055 14.8359C28.2411 15.6227 28.1087 16.3447 27.8644 16.8838C27.6743 17.3032 27.0843 17.3299 26.8571 16.9294C26.5651 16.4146 26.3681 15.7075 26.3325 14.9207C26.2781 13.7173 26.6165 12.6657 27.1474 12.188Z" fill="#CAED73"/>
</g>
</g>
<defs>
<clipPath id="clip0_1390_190582">
<rect width="32" height="32" fill="white"/>
</clipPath>
</defs>
</svg>
