<?xml version="1.0"?>
<svg width="115.28" height="122.88" xmlns="http://www.w3.org/2000/svg" xmlns:svg="http://www.w3.org/2000/svg" enable-background="new 0 0 115.28 122.88" version="1.1" xml:space="preserve">
 <style type="text/css">.st0{fill-rule:evenodd;clip-rule:evenodd;}</style>
 <g class="layer">
  <title>Layer 1</title>
  <g id="svg_1">
   <path class="st0" d="m25.38,57l64.88,0l0,-19.66l-20.67,0c-2.17,0 -5.19,-1.17 -6.62,-2.6c-1.43,-1.43 -2.3,-4.01 -2.3,-6.17l0,-20.93l0,0l-52.52,0c-0.18,0 -0.32,0.09 -0.41,0.18c-0.15,0.1 -0.19,0.23 -0.19,0.42l0,106.45c0,0.14 0.09,0.32 0.18,0.41c0.09,0.14 0.28,0.18 0.41,0.18c22.78,0 58.09,0 81.51,0c0.18,0 0.17,-0.09 0.27,-0.18c0.14,-0.09 0.33,-0.28 0.33,-0.41l0,-11.16l-64.87,0c-4.14,0 -7.56,-3.4 -7.56,-7.56l0,-31.42c0,-4.15 3.4,-7.55 7.56,-7.55l0,0zm4.11,11.38l7.43,0l0,18.15l11.63,0l0,5.92l-19.06,0l0,-24.07l0,0zm20.4,12.05c0,-3.93 1.09,-6.99 3.28,-9.17c2.19,-2.19 5.24,-3.28 9.15,-3.28c4.01,0 7.09,1.08 9.26,3.22c2.17,2.15 3.25,5.16 3.25,9.04c0,2.81 -0.47,5.11 -1.42,6.91c-0.95,1.8 -2.32,3.2 -4.11,4.2c-1.79,1 -4.02,1.5 -6.69,1.5c-2.71,0 -4.96,-0.43 -6.74,-1.29c-1.78,-0.87 -3.22,-2.23 -4.32,-4.11c-1.11,-1.87 -1.66,-4.21 -1.66,-7.02l0,0zm7.42,0.01c0,2.43 0.45,4.17 1.36,5.23c0.91,1.06 2.14,1.59 3.7,1.59c1.6,0 2.84,-0.52 3.71,-1.56c0.88,-1.04 1.32,-2.9 1.32,-5.6c0,-2.26 -0.46,-3.92 -1.37,-4.96c-0.92,-1.05 -2.16,-1.57 -3.73,-1.57c-1.5,0 -2.71,0.53 -3.62,1.59c-0.91,1.08 -1.37,2.83 -1.37,5.28l0,0zm33.11,3.3l0,-5.01l11.49,0l0,10.23c-2.2,1.5 -4.15,2.53 -5.83,3.07c-1.69,0.54 -3.7,0.81 -6.02,0.81c-2.86,0 -5.19,-0.49 -6.99,-1.46c-1.8,-0.97 -3.19,-2.42 -4.18,-4.35c-0.99,-1.92 -1.48,-4.13 -1.48,-6.63c0,-2.63 0.54,-4.91 1.62,-6.85c1.08,-1.94 2.67,-3.41 4.76,-4.42c1.63,-0.78 3.83,-1.17 6.58,-1.17c2.66,0 4.64,0.24 5.96,0.72c1.32,0.48 2.41,1.23 3.28,2.24c0.87,1.01 1.52,2.3 1.96,3.85l-7.16,1.29c-0.3,-0.91 -0.8,-1.61 -1.5,-2.09c-0.71,-0.49 -1.6,-0.73 -2.7,-0.73c-1.62,0 -2.92,0.57 -3.89,1.7c-0.97,1.13 -1.45,2.92 -1.45,5.37c0,2.6 0.49,4.46 1.47,5.57c0.97,1.11 2.34,1.68 4.09,1.68c0.83,0 1.62,-0.12 2.37,-0.36c0.75,-0.24 1.61,-0.65 2.59,-1.22l0,-2.25l-4.97,0l0,0.01zm7.37,-26.74l9.93,0c4.16,0 7.56,3.41 7.56,7.56l0,31.42c0,4.15 -3.41,7.56 -7.56,7.56l-9.93,0l0,13.55c0,1.61 -0.65,3.04 -1.7,4.1c-1.06,1.06 -2.49,1.7 -4.1,1.7c-29.44,0 -56.59,0 -86.18,0c-1.61,0 -3.04,-0.64 -4.1,-1.7c-1.06,-1.06 -1.7,-2.49 -1.7,-4.1l0,-111.24c0,-1.61 0.65,-3.04 1.7,-4.1c1.06,-1.06 2.53,-1.7 4.1,-1.7l58.72,0c0.13,-0.05 0.27,-0.05 0.41,-0.05c0.64,0 1.29,0.28 1.75,0.69l0.09,0c0.09,0.05 0.14,0.09 0.23,0.18l29.99,30.36c0.51,0.51 0.88,1.2 0.88,1.98c0,0.23 -0.05,0.41 -0.09,0.65l0,23.14l0,0zm-30.27,-29.03l0,-19.03l21.43,21.7l-18.76,0c-0.74,0 -1.38,-0.32 -1.89,-0.78c-0.46,-0.46 -0.78,-1.15 -0.78,-1.89l0,0z" fill="#ffffff" id="svg_2"/>
  </g>
 </g>
</svg>