<svg width="81" height="80" viewBox="0 0 81 80" fill="none" xmlns="http://www.w3.org/2000/svg">
<g id="Frame" clip-path="url(#clip0_1267_89043)">
<g id="Group">
<path id="Vector" d="M65.6069 50.2085H15.3984C14.1041 50.2085 13.0547 51.2579 13.0547 52.5522V77.6565C13.0547 78.9508 14.1041 80.0002 15.3984 80.0002H65.6067C66.9011 80.0002 67.9505 78.9508 67.9505 77.6565V52.5522C67.9506 51.2579 66.9012 50.2085 65.6069 50.2085Z" fill="#FFE660"/>
<path id="Vector_2" d="M67.948 77.6565V52.5522C67.948 51.2579 66.8986 50.2085 65.6042 50.2085H40.5V80.0002H65.6042C66.8986 80.0002 67.948 78.9508 67.948 77.6565Z" fill="#FFC54D"/>
<path id="Vector_3" d="M40.4981 39.8333C39.2041 39.8333 38.155 38.7847 38.1544 37.4908C38.1544 37.4241 38.1266 30.7467 36.3333 24.2227C34.1439 16.2575 30.4775 12.2187 25.4356 12.2187C20.9306 12.2187 18.9141 14.9003 18.9141 17.558C18.9141 21.1923 22.5261 25.1041 30.4564 25.1041C31.7508 25.1041 32.8002 26.1534 32.8002 27.4478C32.8002 28.7422 31.7508 29.7916 30.4564 29.7916C20.2359 29.7916 14.2266 24.1078 14.2266 17.558C14.2266 12.5753 18.0767 7.53125 25.4356 7.53125C30.5469 7.53125 37.3748 10.2264 40.8764 23.0656C42.8195 30.1902 42.8419 37.1948 42.8419 37.4895C42.8419 38.7839 41.7925 39.8333 40.4981 39.8333Z" fill="#D4E8FC"/>
<path id="Vector_4" d="M48.0312 29.792C46.7369 29.792 45.6875 28.7426 45.6875 27.4482C45.6875 26.1539 46.7369 25.1045 48.0312 25.1045C59.2413 25.1045 63.3194 19.3379 63.3194 15.0895C63.3194 10.7911 59.593 7.19824 53.0522 7.19824C51.7578 7.19824 50.7084 6.14887 50.7084 4.85449C50.7084 3.56012 51.7578 2.51074 53.0522 2.51074C63.7211 2.51074 68.0069 9.60309 68.0069 15.0895C68.0069 22.927 60.6866 29.792 48.0312 29.792Z" fill="#D7E8FF"/>
<path id="Vector_5" d="M43.0104 7.19805C42.3888 7.19805 41.7927 6.95117 41.3532 6.51148L38.8427 4.00102C37.9274 3.0857 37.9274 1.6018 38.8427 0.686484C39.7579 -0.228828 41.242 -0.228828 42.1573 0.686484L43.0104 1.53961L43.8634 0.686484C44.7787 -0.228828 46.2626 -0.228828 47.1779 0.686484C48.0932 1.6018 48.0932 3.0857 47.1779 4.00102L44.6676 6.51148C44.45 6.72917 44.1916 6.90185 43.9073 7.01965C43.6229 7.13745 43.3182 7.19807 43.0104 7.19805Z" fill="#142D3F"/>
<path id="Vector_6" d="M80.3214 39.1031C80.144 38.6749 79.8436 38.3088 79.4582 38.0513C79.0728 37.7937 78.6196 37.6563 78.1561 37.6562H53.0518C52.4303 37.6563 51.8342 37.9033 51.3947 38.3428L40.4998 49.2377L29.605 38.3428C29.1655 37.9033 28.5694 37.6563 27.9478 37.6562H2.84372C2.38016 37.6563 1.92702 37.7937 1.5416 38.0513C1.15617 38.3088 0.855769 38.6749 0.678385 39.1031C0.501002 39.5314 0.454601 40.0027 0.54505 40.4573C0.635499 40.912 0.858737 41.3296 1.18653 41.6573L13.052 53.5228H67.9478L79.8132 41.6573C80.141 41.3296 80.3643 40.912 80.4547 40.4573C80.5452 40.0027 80.4988 39.5314 80.3214 39.1031Z" fill="#FFC54D"/>
<path id="Vector_7" d="M79.8134 41.6573C80.1412 41.3296 80.3645 40.912 80.4549 40.4573C80.5454 40.0027 80.499 39.5314 80.3216 39.1031C80.1442 38.6749 79.8438 38.3088 79.4584 38.0513C79.0729 37.7937 78.6198 37.6563 78.1562 37.6562H53.052C52.4305 37.6563 51.8343 37.9033 51.3948 38.3428L40.5 49.2378V53.523H67.948L79.8134 41.6573Z" fill="#F98E00"/>
</g>
</g>
<defs>
<clipPath id="clip0_1267_89043">
<rect width="80" height="80" fill="white" transform="translate(0.5)"/>
</clipPath>
</defs>
</svg>
