<?xml version="1.0"?>
<svg width="30" height="30" xmlns="http://www.w3.org/2000/svg" xmlns:svg="http://www.w3.org/2000/svg">
 <g class="layer">
  <title>Layer 1</title>
  <path d="m15,3c-3.05,0 -5.84,1.16 -7.96,3.04l-2.04,-2.04l0,6l6,0l-2.54,-2.54c1.75,-1.53 4.03,-2.46 6.54,-2.46c5.53,0 10,4.47 10,10c0,5.53 -4.47,10 -10,10c-5.53,0 -10,-4.47 -10,-10a1,1 0 1 0 -2,0c0,6.62 5.38,12 12,12c6.62,0 12,-5.38 12,-12c0,-6.62 -5.38,-12 -12,-12zm2.69,8.35c-1.82,0 -2.96,1.36 -2.96,3.69c0,2.34 1.13,3.73 2.96,3.74c1.82,0 2.96,-1.41 2.96,-3.73c0,-2.34 -1.15,-3.7 -2.96,-3.7zm-6.56,0.19l-1.79,1.22l0,1.54l1.7,-1.15l0.09,0l0,5.44l1.8,0l0,-7.05l-1.8,0zm6.56,1.19c0.68,0 1.14,0.77 1.14,2.31c0,1.56 -0.46,2.36 -1.14,2.36c-0.69,0 -1.14,-0.8 -1.14,-2.36c0,-1.54 0.45,-2.31 1.14,-2.31z" fill="#ffffff" id="svg_1"/>
 </g>
</svg>