<svg width="64" height="64" viewBox="0 0 64 64" fill="none" xmlns="http://www.w3.org/2000/svg">
<g id="icon / ionicons / filled / school">
<path id="Vector" d="M32 45.9997C31.6519 45.9996 31.3097 45.9087 31.0075 45.7359L13.5 35.7297C13.3479 35.6418 13.1753 35.5956 12.9996 35.5957C12.824 35.5958 12.6514 35.6421 12.4994 35.73C12.3473 35.818 12.2211 35.9444 12.1334 36.0967C12.0458 36.2489 11.9997 36.4215 12 36.5972V45.9997C11.9997 46.3566 12.0949 46.7072 12.2758 47.0149C12.4567 47.3226 12.7167 47.5763 13.0288 47.7497L31.0288 57.7497C31.3259 57.9147 31.6601 58.0013 32 58.0013C32.3399 58.0013 32.6741 57.9147 32.9713 57.7497L50.9712 47.7497C51.2833 47.5763 51.5433 47.3226 51.7242 47.0149C51.9051 46.7072 52.0003 46.3566 52 45.9997V36.5972C52.0003 36.4215 51.9542 36.2489 51.8666 36.0967C51.7789 35.9444 51.6527 35.818 51.5006 35.73C51.3486 35.6421 51.176 35.5958 51.0004 35.5957C50.8247 35.5956 50.6521 35.6418 50.5 35.7297L32.9925 45.7359C32.6903 45.9087 32.3482 45.9996 32 45.9997Z" fill="#3194A0"/>
<path id="Vector_2" d="M61.9923 23.8124C61.9923 23.8124 61.9923 23.8024 61.9923 23.7986C61.96 23.4816 61.8523 23.1769 61.6784 22.9099C61.5045 22.6429 61.2692 22.4213 60.9923 22.2636L32.9923 6.26364C32.6901 6.09088 32.3479 6 31.9998 6C31.6517 6 31.3096 6.09088 31.0073 6.26364L3.00731 22.2636C2.70129 22.4386 2.44695 22.6913 2.27006 22.9962C2.09317 23.3011 2 23.6474 2 23.9999C2 24.3524 2.09317 24.6986 2.27006 25.0035C2.44695 25.3084 2.70129 25.5612 3.00731 25.7361L31.0073 41.7361C31.3096 41.9089 31.6517 41.9998 31.9998 41.9998C32.3479 41.9998 32.6901 41.9089 32.9923 41.7361L57.6273 27.6599C57.6654 27.6379 57.7086 27.6264 57.7526 27.6264C57.7965 27.6264 57.8397 27.6381 57.8777 27.6601C57.9158 27.6822 57.9473 27.7139 57.9692 27.752C57.9911 27.7902 58.0025 27.8334 58.0023 27.8774V45.9436C58.0023 47.0199 58.8298 47.9436 59.9061 47.9974C60.1765 48.0104 60.4467 47.9684 60.7004 47.8739C60.9541 47.7794 61.186 47.6344 61.382 47.4476C61.578 47.2608 61.734 47.0362 61.8407 46.7874C61.9473 46.5385 62.0023 46.2706 62.0023 45.9999V23.9999C62.0022 23.9373 61.9988 23.8747 61.9923 23.8124Z" fill="white"/>
</g>
</svg>
