<svg width="20" height="20" viewBox="0 0 20 20" fill="none" xmlns="http://www.w3.org/2000/svg">
<path d="M14.6625 15.5451L17.1025 17.9864C17.2204 18.1002 17.3782 18.1632 17.5421 18.1618C17.706 18.1603 17.8627 18.0946 17.9786 17.9787C18.0945 17.8629 18.1602 17.7061 18.1616 17.5422C18.1631 17.3784 18.1001 17.2205 17.9862 17.1026L15.545 14.6614C16.9118 13.0661 17.6076 11.0034 17.4863 8.90612C17.3651 6.80888 16.4363 4.8401 14.8948 3.41291C13.3532 1.98573 11.3189 1.21108 9.21851 1.25151C7.11815 1.29194 5.11509 2.14431 3.62964 3.62976C2.14418 5.11521 1.29181 7.11827 1.25138 9.21863C1.21095 11.319 1.98561 13.3534 3.41279 14.8949C4.83998 16.4364 6.80875 17.3652 8.906 17.4865C11.0032 17.6077 13.0659 16.9119 14.6612 15.5451L14.6625 15.5451ZM16.25 9.3751C16.25 11.1985 15.5257 12.9471 14.2363 14.2365C12.947 15.5258 11.1983 16.2501 9.37498 16.2501C7.55162 16.2501 5.80293 15.5258 4.51362 14.2365C3.22431 12.9471 2.49998 11.1985 2.49998 9.3751C2.49998 7.55174 3.22431 5.80305 4.51362 4.51374C5.80293 3.22443 7.55162 2.5001 9.37498 2.5001C11.1983 2.5001 12.947 3.22443 14.2363 4.51374C15.5257 5.80306 16.25 7.55174 16.25 9.3751Z" fill="black"/>
</svg>
