<?xml version="1.0"?>
<svg width="512" height="512" xmlns="http://www.w3.org/2000/svg" xmlns:svg="http://www.w3.org/2000/svg" preserveAspectRatio="xMidYMid meet" version="1.0">
 <g class="layer">
  <title>Layer 1</title>
  <g fill="#000000" id="svg_1" transform="translate(0.000000,512.000000) scale(0.100000,-0.100000)">
   <path d="m2492,4624c-18,-10 -45,-33 -60,-52c-27,-35 -27,-36 -30,-238c-4,-229 2,-253 66,-302c51,-39 133,-39 184,0c62,47 68,72 68,288c0,215 -6,241 -67,287c-43,33 -114,41 -161,17z" fill="#ffffff" id="svg_2" stroke="#ed1299"/>
   <path d="m1153,4069c-76,-23 -124,-111 -103,-191c10,-36 36,-68 153,-185c114,-113 150,-144 184,-154c117,-34 228,78 194,194c-10,33 -41,70 -145,175c-72,74 -142,140 -156,147c-37,19 -90,25 -127,14z" fill="#ffffff" id="svg_3" stroke="#ed1299"/>
   <path d="m3865,4065c-61,-22 -309,-275 -326,-332c-34,-117 77,-228 194,-194c33,10 70,41 175,145c74,72 141,145 150,161c22,42 20,113 -4,153c-37,65 -118,93 -189,67z" fill="#ffffff" id="svg_4" stroke="#ed1299"/>
   <path d="m2440,3674c-14,-2 -52,-9 -85,-15c-86,-15 -208,-56 -295,-99c-310,-156 -526,-441 -602,-795c-16,-78 -16,-332 0,-410c100,-464 433,-797 897,-897c78,-16 332,-16 410,0c464,100 799,435 896,897c17,79 17,333 1,410c-99,459 -428,793 -877,891c-68,15 -295,27 -345,18zm325,-339c270,-73 497,-300 571,-575c25,-90 25,-310 0,-400c-61,-225 -222,-420 -430,-520c-126,-60 -190,-74 -346,-74c-156,0 -220,14 -346,74c-208,100 -369,295 -430,520c-25,90 -25,310 0,400c82,301 335,535 638,590c73,13 271,4 343,-15z" fill="#ffffff" id="svg_5" stroke="#ed1299"/>
   <path d="m572,2703c-18,-9 -45,-32 -60,-51c-39,-51 -38,-134 0,-184c47,-62 72,-68 288,-68c216,0 241,6 288,68c39,51 39,133 0,184c-48,62 -72,68 -290,68c-158,0 -199,-3 -226,-17z" fill="#ffffff" id="svg_6" stroke="#ed1299"/>
   <path d="m4092,2703c-18,-9 -45,-32 -60,-51c-39,-51 -38,-134 0,-184c47,-62 72,-68 288,-68c216,0 241,6 288,68c22,29 27,46 27,92c0,46 -5,63 -27,92c-48,62 -72,68 -290,68c-158,0 -199,-3 -226,-17z" fill="#ffffff" id="svg_7" stroke="#ed1299"/>
   <path d="m1365,1571c-24,-11 -94,-73 -172,-152c-106,-109 -133,-142 -142,-176c-32,-118 74,-224 192,-192c34,9 67,36 179,147c148,146 176,190 164,254c-10,54 -43,98 -89,118c-53,24 -81,25 -132,1z" fill="#ffffff" id="svg_8" stroke="#ed1299"/>
   <path d="m3623,1570c-46,-20 -79,-64 -89,-118c-12,-64 16,-108 164,-254c112,-111 145,-138 180,-147c117,-32 223,74 191,192c-9,34 -36,67 -142,176c-170,172 -213,193 -304,151z" fill="#ffffff" id="svg_9" stroke="#ed1299"/>
   <path d="m2492,1104c-18,-10 -45,-33 -60,-52c-27,-35 -27,-36 -30,-238c-4,-229 2,-253 66,-302c51,-39 133,-39 184,0c62,47 68,72 68,288c0,215 -6,241 -67,287c-43,33 -114,41 -161,17z" fill="#ffffff" id="svg_10" stroke="#ed1299"/>
  </g>
 </g>
</svg>