<svg width="20" height="20" viewBox="0 0 20 20" fill="none" xmlns="http://www.w3.org/2000/svg">
<g id="vuesax/bold/video-play">
<g id="video-play">
<path id="Vector" d="M12.2766 1.6665H7.72656V5.29984H12.2766V1.6665Z" fill="#3194A0"/>
<path id="Vector_2" d="M13.5234 1.6665V5.29984H18.2234C17.7984 3.00817 16.1068 1.67484 13.5234 1.6665Z" fill="#3194A0"/>
<path id="Vector_3" d="M1.66406 6.5498V13.4915C1.66406 16.5248 3.4724 18.3331 6.50573 18.3331H13.4891C16.5224 18.3331 18.3307 16.5248 18.3307 13.4915V6.5498H1.66406ZM12.0307 13.4831L10.2974 14.4831C9.93073 14.6915 9.5724 14.7998 9.23906 14.7998C8.98906 14.7998 8.76406 14.7415 8.55573 14.6248C8.0724 14.3498 7.80573 13.7831 7.80573 13.0498V11.0498C7.80573 10.3165 8.0724 9.7498 8.55573 9.4748C9.03906 9.19147 9.65573 9.24147 10.2974 9.61647L12.0307 10.6165C12.6724 10.9831 13.0224 11.4998 13.0224 12.0581C13.0224 12.6165 12.6641 13.1081 12.0307 13.4831Z" fill="#3194A0"/>
<path id="Vector_4" d="M6.47344 1.6665C3.8901 1.67484 2.19844 3.00817 1.77344 5.29984H6.47344V1.6665Z" fill="#3194A0"/>
</g>
</g>
</svg>
